M48
; DRILL file KiCad 10.0.5 date 2026-09-20T00:31:11
; FORMAT={-:-/ absolute / metric / decimal}
; #@! TF.CreationDate,2026-09-20T00:31:11+01:00
; #@! TF.GenerationSoftware,Kicad,Pcbnew,10.0.5
; #@! TF.FileFunction,Plated,1,2,PTH
FMAT,2
METRIC
; #@! TA.AperFunction,Plated,PTH,ViaDrill
T1C0.300
; #@! TA.AperFunction,Plated,PTH,ViaDrill
T2C3.000
%
G90
G05
T1
X65.975Y-74.5
X66.25Y-67.25
X66.3Y-83.5
X66.3Y-86.5
X66.3Y-94.5
X66.3Y-97.5
X66.5Y-80.0
X68.0Y-76.75
X68.25Y-71.5
X69.5Y-69.25
X69.5Y-87.25
X69.5Y-97.5
X70.0Y-92.5
X70.25Y-78.25
X70.915Y-79.45
X70.915Y-89.45
X70.915Y-99.45
X71.0Y-82.25
X71.0Y-87.25
X71.0Y-97.5
X71.5Y-78.25
X72.25Y-72.5
X72.5Y-103.5
X73.875Y-74.5
X74.085Y-85.55
X74.085Y-95.55
X75.0Y-102.25
X75.5Y-73.405
X75.915Y-89.45
X75.915Y-99.45
X77.5Y-103.5
X79.085Y-85.55
X79.085Y-95.55
X80.0Y-102.25
X80.915Y-79.45
X80.915Y-89.45
X80.915Y-99.45
X81.0Y-74.5
X82.5Y-67.5
X82.5Y-70.0
X82.5Y-78.25
X82.5Y-103.5
X83.75Y-87.5
X83.75Y-97.5
X84.0Y-78.25
X84.085Y-85.55
X84.085Y-95.55
X84.75Y-82.25
X84.75Y-92.5
X85.55Y-97.5
X85.75Y-87.5
X85.915Y-79.45
X85.915Y-89.45
X85.915Y-99.45
X87.5Y-67.5
X87.5Y-103.5
X88.95Y-72.5
X88.95Y-78.75
X88.95Y-81.75
X88.95Y-88.5
X88.95Y-91.5
X88.95Y-97.5
T2
X77.5Y-68.5
M30
