%TF.GenerationSoftware,KiCad,Pcbnew,10.0.5*%
%TF.CreationDate,2026-09-20T00:29:37+01:00*%
%TF.ProjectId,falling-shapes-earrings,66616c6c-696e-4672-9d73-68617065732d,V1.0*%
%TF.SameCoordinates,Original*%
%TF.FileFunction,Copper,L1,Top*%
%TF.FilePolarity,Positive*%
%FSLAX46Y46*%
G04 Gerber Fmt 4.6, Leading zero omitted, Abs format (unit mm)*
G04 Created by KiCad (PCBNEW 10.0.5) date 2026-09-20 00:29:37*
%MOMM*%
%LPD*%
G01*
G04 APERTURE LIST*
%TA.AperFunction,SMDPad,CuDef*%
%ADD10R,0.700000X0.700000*%
%TD*%
%TA.AperFunction,SMDPad,CuDef*%
%ADD11C,2.000000*%
%TD*%
%TA.AperFunction,ViaPad*%
%ADD12C,3.400000*%
%TD*%
%TA.AperFunction,ViaPad*%
%ADD13C,0.700000*%
%TD*%
%TA.AperFunction,Conductor*%
%ADD14C,0.200000*%
%TD*%
G04 APERTURE END LIST*
D10*
%TO.P,D20,1,DO_1*%
%TO.N,unconnected-(D20-DO-Pad1)*%
X85915000Y-100550000D03*
%TO.P,D20,2,GND_2*%
%TO.N,GNDREF*%
X85915000Y-99450000D03*
%TO.P,D20,3,DI_3*%
%TO.N,Net-(D15-DO)*%
X84085000Y-100550000D03*
%TO.P,D20,4,VDD_4*%
%TO.N,3.3V*%
X84085000Y-99450000D03*
%TD*%
%TO.P,D15,1,DO_1*%
%TO.N,Net-(D15-DO)*%
X80915000Y-100550000D03*
%TO.P,D15,2,GND_2*%
%TO.N,GNDREF*%
X80915000Y-99450000D03*
%TO.P,D15,3,DI_3*%
%TO.N,Net-(D10-DO)*%
X79085000Y-100550000D03*
%TO.P,D15,4,VDD_4*%
%TO.N,3.3V*%
X79085000Y-99450000D03*
%TD*%
%TO.P,D17,1,DO_1*%
%TO.N,Net-(D17-DO)*%
X69085000Y-84450000D03*
%TO.P,D17,2,GND_2*%
%TO.N,GNDREF*%
X69085000Y-85550000D03*
%TO.P,D17,3,DI_3*%
%TO.N,Net-(D12-DO)*%
X70915000Y-84450000D03*
%TO.P,D17,4,VDD_4*%
%TO.N,3.3V*%
X70915000Y-85550000D03*
%TD*%
%TO.P,D7,1,DO_1*%
%TO.N,Net-(D12-DI)*%
X79085000Y-84450000D03*
%TO.P,D7,2,GND_2*%
%TO.N,GNDREF*%
X79085000Y-85550000D03*
%TO.P,D7,3,DI_3*%
%TO.N,Net-(D2-DO)*%
X80915000Y-84450000D03*
%TO.P,D7,4,VDD_4*%
%TO.N,3.3V*%
X80915000Y-85550000D03*
%TD*%
%TO.P,D16,1,DO_1*%
%TO.N,Net-(D16-DO)*%
X85915000Y-80550000D03*
%TO.P,D16,2,GND_2*%
%TO.N,GNDREF*%
X85915000Y-79450000D03*
%TO.P,D16,3,DI_3*%
%TO.N,Net-(D11-DO)*%
X84085000Y-80550000D03*
%TO.P,D16,4,VDD_4*%
%TO.N,3.3V*%
X84085000Y-79450000D03*
%TD*%
%TO.P,D10,1,DO_1*%
%TO.N,Net-(D10-DO)*%
X75915000Y-100550000D03*
%TO.P,D10,2,GND_2*%
%TO.N,GNDREF*%
X75915000Y-99450000D03*
%TO.P,D10,3,DI_3*%
%TO.N,Net-(D10-DI)*%
X74085000Y-100550000D03*
%TO.P,D10,4,VDD_4*%
%TO.N,3.3V*%
X74085000Y-99450000D03*
%TD*%
%TO.P,D1,1,DO_1*%
%TO.N,Net-(D1-DO)*%
X70915000Y-80550000D03*
%TO.P,D1,2,GND_2*%
%TO.N,GNDREF*%
X70915000Y-79450000D03*
%TO.P,D1,3,DI_3*%
%TO.N,/LED_DAT*%
X69085000Y-80550000D03*
%TO.P,D1,4,VDD_4*%
%TO.N,3.3V*%
X69085000Y-79450000D03*
%TD*%
%TO.P,D8,1,DO_1*%
%TO.N,Net-(D13-DI)*%
X75915000Y-90550000D03*
%TO.P,D8,2,GND_2*%
%TO.N,GNDREF*%
X75915000Y-89450000D03*
%TO.P,D8,3,DI_3*%
%TO.N,Net-(D3-DO)*%
X74085000Y-90550000D03*
%TO.P,D8,4,VDD_4*%
%TO.N,3.3V*%
X74085000Y-89450000D03*
%TD*%
D11*
%TO.P,TP4,1,Test_1*%
%TO.N,/COIN_PWR*%
X82500000Y-70000000D03*
%TD*%
D10*
%TO.P,D18,1,DO_1*%
%TO.N,Net-(D18-DO)*%
X85915000Y-90550000D03*
%TO.P,D18,2,GND_2*%
%TO.N,GNDREF*%
X85915000Y-89450000D03*
%TO.P,D18,3,DI_3*%
%TO.N,Net-(D13-DO)*%
X84085000Y-90550000D03*
%TO.P,D18,4,VDD_4*%
%TO.N,3.3V*%
X84085000Y-89450000D03*
%TD*%
%TO.P,D2,1,DO_1*%
%TO.N,Net-(D2-DO)*%
X84085000Y-84450000D03*
%TO.P,D2,2,GND_2*%
%TO.N,GNDREF*%
X84085000Y-85550000D03*
%TO.P,D2,3,DI_3*%
%TO.N,Net-(D16-DO)*%
X85915000Y-84450000D03*
%TO.P,D2,4,VDD_4*%
%TO.N,3.3V*%
X85915000Y-85550000D03*
%TD*%
%TO.P,D9,1,DO_1*%
%TO.N,Net-(D14-DI)*%
X79085000Y-94450000D03*
%TO.P,D9,2,GND_2*%
%TO.N,GNDREF*%
X79085000Y-95550000D03*
%TO.P,D9,3,DI_3*%
%TO.N,Net-(D4-DO)*%
X80915000Y-94450000D03*
%TO.P,D9,4,VDD_4*%
%TO.N,3.3V*%
X80915000Y-95550000D03*
%TD*%
%TO.P,D12,1,DO_1*%
%TO.N,Net-(D12-DO)*%
X74085000Y-84450000D03*
%TO.P,D12,2,GND_2*%
%TO.N,GNDREF*%
X74085000Y-85550000D03*
%TO.P,D12,3,DI_3*%
%TO.N,Net-(D12-DI)*%
X75915000Y-84450000D03*
%TO.P,D12,4,VDD_4*%
%TO.N,3.3V*%
X75915000Y-85550000D03*
%TD*%
%TO.P,D3,1,DO_1*%
%TO.N,Net-(D3-DO)*%
X70915000Y-90550000D03*
%TO.P,D3,2,GND_2*%
%TO.N,GNDREF*%
X70915000Y-89450000D03*
%TO.P,D3,3,DI_3*%
%TO.N,Net-(D17-DO)*%
X69085000Y-90550000D03*
%TO.P,D3,4,VDD_4*%
%TO.N,3.3V*%
X69085000Y-89450000D03*
%TD*%
%TO.P,D11,1,DO_1*%
%TO.N,Net-(D11-DO)*%
X80915000Y-80550000D03*
%TO.P,D11,2,GND_2*%
%TO.N,GNDREF*%
X80915000Y-79450000D03*
%TO.P,D11,3,DI_3*%
%TO.N,Net-(D11-DI)*%
X79085000Y-80550000D03*
%TO.P,D11,4,VDD_4*%
%TO.N,3.3V*%
X79085000Y-79450000D03*
%TD*%
D11*
%TO.P,TP5,1,Test_1*%
%TO.N,GNDREF*%
X72500000Y-70000000D03*
%TD*%
D10*
%TO.P,D5,1,DO_1*%
%TO.N,Net-(D10-DI)*%
X70915000Y-100550000D03*
%TO.P,D5,2,GND_2*%
%TO.N,GNDREF*%
X70915000Y-99450000D03*
%TO.P,D5,3,DI_3*%
%TO.N,Net-(D19-DO)*%
X69085000Y-100550000D03*
%TO.P,D5,4,VDD_4*%
%TO.N,3.3V*%
X69085000Y-99450000D03*
%TD*%
%TO.P,D19,1,DO_1*%
%TO.N,Net-(D19-DO)*%
X69085000Y-94450000D03*
%TO.P,D19,2,GND_2*%
%TO.N,GNDREF*%
X69085000Y-95550000D03*
%TO.P,D19,3,DI_3*%
%TO.N,Net-(D14-DO)*%
X70915000Y-94450000D03*
%TO.P,D19,4,VDD_4*%
%TO.N,3.3V*%
X70915000Y-95550000D03*
%TD*%
%TO.P,D4,1,DO_1*%
%TO.N,Net-(D4-DO)*%
X84085000Y-94450000D03*
%TO.P,D4,2,GND_2*%
%TO.N,GNDREF*%
X84085000Y-95550000D03*
%TO.P,D4,3,DI_3*%
%TO.N,Net-(D18-DO)*%
X85915000Y-94450000D03*
%TO.P,D4,4,VDD_4*%
%TO.N,3.3V*%
X85915000Y-95550000D03*
%TD*%
%TO.P,D13,1,DO_1*%
%TO.N,Net-(D13-DO)*%
X80915000Y-90550000D03*
%TO.P,D13,2,GND_2*%
%TO.N,GNDREF*%
X80915000Y-89450000D03*
%TO.P,D13,3,DI_3*%
%TO.N,Net-(D13-DI)*%
X79085000Y-90550000D03*
%TO.P,D13,4,VDD_4*%
%TO.N,3.3V*%
X79085000Y-89450000D03*
%TD*%
%TO.P,D6,1,DO_1*%
%TO.N,Net-(D11-DI)*%
X75915000Y-80550000D03*
%TO.P,D6,2,GND_2*%
%TO.N,GNDREF*%
X75915000Y-79450000D03*
%TO.P,D6,3,DI_3*%
%TO.N,Net-(D1-DO)*%
X74085000Y-80550000D03*
%TO.P,D6,4,VDD_4*%
%TO.N,3.3V*%
X74085000Y-79450000D03*
%TD*%
%TO.P,D14,1,DO_1*%
%TO.N,Net-(D14-DO)*%
X74085000Y-94450000D03*
%TO.P,D14,2,GND_2*%
%TO.N,GNDREF*%
X74085000Y-95550000D03*
%TO.P,D14,3,DI_3*%
%TO.N,Net-(D14-DI)*%
X75915000Y-94450000D03*
%TO.P,D14,4,VDD_4*%
%TO.N,3.3V*%
X75915000Y-95550000D03*
%TD*%
D12*
%TO.N,*%
X77500000Y-68500000D03*
D13*
%TO.N,GNDREF*%
X79085000Y-95550000D03*
X66300000Y-83500000D03*
X84750000Y-82250000D03*
X74085000Y-85550000D03*
X75915000Y-89450000D03*
X84085000Y-85550000D03*
X77500000Y-103500000D03*
X70000000Y-92500000D03*
X74085000Y-95550000D03*
X75000000Y-102250000D03*
X88950000Y-78750000D03*
X85915000Y-99450000D03*
X66300000Y-86500000D03*
X70915000Y-99450000D03*
X88950000Y-91500000D03*
X69500000Y-69250000D03*
X66300000Y-94500000D03*
X66300000Y-97500000D03*
X88950000Y-81750000D03*
X72500000Y-103500000D03*
X88950000Y-97500000D03*
X87500000Y-103500000D03*
X65975000Y-74500000D03*
X88950000Y-88500000D03*
X75500000Y-73405000D03*
X68250000Y-71500000D03*
X70915000Y-79450000D03*
X81000000Y-74500000D03*
X72250000Y-72500000D03*
X70915000Y-89450000D03*
X82500000Y-67500000D03*
X66250000Y-67250000D03*
X85915000Y-79450000D03*
X84085000Y-95550000D03*
X71000000Y-82250000D03*
X80000000Y-102250000D03*
X80915000Y-89450000D03*
X82500000Y-103500000D03*
X73875000Y-74500000D03*
X84750000Y-92500000D03*
X85915000Y-89450000D03*
X80915000Y-99450000D03*
X80915000Y-79450000D03*
X87500000Y-67500000D03*
X79085000Y-85550000D03*
X88950000Y-72500000D03*
X75915000Y-99450000D03*
X68000000Y-76750000D03*
%TO.N,3.3V*%
X83750000Y-87500000D03*
X82500000Y-78250000D03*
X69500000Y-97500000D03*
X84000000Y-78250000D03*
X70250000Y-78250000D03*
X71000000Y-87250000D03*
X85750000Y-87500000D03*
X83750000Y-97500000D03*
X71000000Y-97500000D03*
X69500000Y-87250000D03*
X85550000Y-97500000D03*
X71500000Y-78250000D03*
%TO.N,/LED_DAT*%
X66500000Y-80000000D03*
%TO.N,/COIN_PWR*%
X82500000Y-70000000D03*
%TD*%
%TO.N,Net-(D15-DO)*%
D14*
X80915000Y-100550000D02*
X84085000Y-100550000D01*
%TO.N,Net-(D10-DO)*%
X75915000Y-100550000D02*
X79085000Y-100550000D01*
%TO.N,Net-(D17-DO)*%
X69085000Y-84450000D02*
X68050000Y-84450000D01*
X67250000Y-89750000D02*
X68050000Y-90550000D01*
X68050000Y-90550000D02*
X69085000Y-90550000D01*
X67250000Y-85250000D02*
X67250000Y-89750000D01*
X68050000Y-84450000D02*
X67250000Y-85250000D01*
%TO.N,Net-(D12-DO)*%
X74085000Y-84450000D02*
X70915000Y-84450000D01*
%TO.N,Net-(D12-DI)*%
X79085000Y-84450000D02*
X75915000Y-84450000D01*
%TO.N,Net-(D2-DO)*%
X84085000Y-84450000D02*
X80915000Y-84450000D01*
%TO.N,Net-(D16-DO)*%
X85915000Y-80550000D02*
X85915000Y-84450000D01*
%TO.N,Net-(D11-DO)*%
X80915000Y-80550000D02*
X84085000Y-80550000D01*
%TO.N,Net-(D10-DI)*%
X70915000Y-100550000D02*
X74085000Y-100550000D01*
%TO.N,Net-(D1-DO)*%
X70915000Y-80550000D02*
X74085000Y-80550000D01*
%TO.N,/LED_DAT*%
X66500000Y-80000000D02*
X67050000Y-80550000D01*
X67050000Y-80550000D02*
X69085000Y-80550000D01*
%TO.N,Net-(D13-DI)*%
X75915000Y-90550000D02*
X79085000Y-90550000D01*
%TO.N,Net-(D3-DO)*%
X70915000Y-90550000D02*
X74085000Y-90550000D01*
%TO.N,Net-(D18-DO)*%
X85915000Y-90550000D02*
X85915000Y-94450000D01*
%TO.N,Net-(D13-DO)*%
X80915000Y-90550000D02*
X84085000Y-90550000D01*
%TO.N,Net-(D14-DI)*%
X75915000Y-94450000D02*
X79085000Y-94450000D01*
%TO.N,Net-(D4-DO)*%
X80915000Y-94450000D02*
X84085000Y-94450000D01*
%TO.N,Net-(D11-DI)*%
X75915000Y-80550000D02*
X79085000Y-80550000D01*
%TO.N,Net-(D19-DO)*%
X67250000Y-95250000D02*
X67250000Y-99750000D01*
X68050000Y-100550000D02*
X69085000Y-100550000D01*
X68050000Y-94450000D02*
X67250000Y-95250000D01*
X69085000Y-94450000D02*
X68050000Y-94450000D01*
X67250000Y-99750000D02*
X68050000Y-100550000D01*
%TO.N,Net-(D14-DO)*%
X70915000Y-94450000D02*
X74085000Y-94450000D01*
%TD*%
%TA.AperFunction,Conductor*%
%TO.N,GNDREF*%
G36*
X76208093Y-79119685D02*
G01*
X76253848Y-79172489D01*
X76265054Y-79223946D01*
X76265340Y-79875446D01*
X76245685Y-79942494D01*
X76192901Y-79988272D01*
X76141340Y-79999500D01*
X75545247Y-79999500D01*
X75486770Y-80011131D01*
X75486769Y-80011131D01*
X75486768Y-80011132D01*
X75481355Y-80014024D01*
X75476614Y-80017916D01*
X75420447Y-80055446D01*
X75420446Y-80055447D01*
X75382916Y-80111614D01*
X75379024Y-80116355D01*
X75376130Y-80121771D01*
X75370521Y-80149971D01*
X75338135Y-80211882D01*
X75277419Y-80246456D01*
X75248959Y-80249779D01*
X74874055Y-80249945D01*
X74807007Y-80230290D01*
X74761228Y-80177506D01*
X74750000Y-80125945D01*
X74750000Y-79224000D01*
X74769685Y-79156961D01*
X74822489Y-79111206D01*
X74874000Y-79100000D01*
X76141054Y-79100000D01*
X76208093Y-79119685D01*
G37*
%TD.AperFunction*%
%TD*%
%TA.AperFunction,Conductor*%
%TO.N,3.3V*%
G36*
X85143106Y-77505023D02*
G01*
X85158104Y-77509427D01*
X85216855Y-77547172D01*
X85218042Y-77548541D01*
X85245518Y-77603402D01*
X85247163Y-77610960D01*
X85250000Y-77637331D01*
X85250000Y-79658170D01*
X85248713Y-79662551D01*
X85249684Y-79667012D01*
X85244975Y-79693114D01*
X85240570Y-79708112D01*
X85230929Y-79723116D01*
X85230315Y-79725209D01*
X85228668Y-79726636D01*
X85202827Y-79766855D01*
X85201458Y-79768042D01*
X85146597Y-79795518D01*
X85139039Y-79797163D01*
X85112668Y-79800000D01*
X84876830Y-79800000D01*
X84841889Y-79794975D01*
X84826890Y-79790570D01*
X84818246Y-79785016D01*
X84817407Y-79784834D01*
X84816409Y-79783836D01*
X84768144Y-79752827D01*
X84766957Y-79751458D01*
X84739477Y-79696583D01*
X84737832Y-79689021D01*
X84735000Y-79662668D01*
X84735000Y-79575000D01*
X83435001Y-79575000D01*
X83435001Y-79658170D01*
X83429976Y-79693114D01*
X83425571Y-79708112D01*
X83387828Y-79766855D01*
X83386459Y-79768042D01*
X83331598Y-79795518D01*
X83324040Y-79797163D01*
X83297669Y-79800000D01*
X81707330Y-79800000D01*
X81672389Y-79794975D01*
X81657390Y-79790570D01*
X81598644Y-79752827D01*
X81597457Y-79751458D01*
X81569977Y-79696583D01*
X81568332Y-79689021D01*
X81565500Y-79662668D01*
X81565500Y-79373759D01*
X81565499Y-79373703D01*
X81565499Y-79057063D01*
X81565499Y-79055200D01*
X83435000Y-79055200D01*
X83435000Y-79055202D01*
X83435000Y-79055205D01*
X83435000Y-79325000D01*
X83960000Y-79325000D01*
X84210000Y-79325000D01*
X84734999Y-79325000D01*
X84734999Y-79055214D01*
X84734997Y-79055191D01*
X84732091Y-79030130D01*
X84732090Y-79030126D01*
X84686788Y-78927525D01*
X84686788Y-78927524D01*
X84686783Y-78927517D01*
X84607481Y-78848215D01*
X84607475Y-78848211D01*
X84504876Y-78802910D01*
X84479795Y-78800000D01*
X84479794Y-78800000D01*
X84210000Y-78800000D01*
X84210000Y-79325000D01*
X83960000Y-79325000D01*
X83960000Y-78800000D01*
X83690202Y-78800000D01*
X83665126Y-78802908D01*
X83562526Y-78848210D01*
X83562524Y-78848210D01*
X83562517Y-78848215D01*
X83483216Y-78927516D01*
X83483214Y-78927520D01*
X83483211Y-78927525D01*
X83483211Y-78927526D01*
X83483208Y-78927532D01*
X83437909Y-79030121D01*
X83437339Y-79032827D01*
X83437084Y-79037242D01*
X83435000Y-79055200D01*
X81565499Y-79055200D01*
X81565499Y-79055143D01*
X81565499Y-79055137D01*
X81565499Y-79055136D01*
X81564998Y-79050816D01*
X81564705Y-79048291D01*
X81563410Y-79037115D01*
X81563079Y-79031386D01*
X81562956Y-79030633D01*
X81561406Y-79027339D01*
X81517206Y-78927235D01*
X81437765Y-78847794D01*
X81437763Y-78847793D01*
X81383078Y-78823647D01*
X81334993Y-78802415D01*
X81309869Y-78799500D01*
X81309868Y-78799500D01*
X81309865Y-78799500D01*
X80979071Y-78799500D01*
X80979069Y-78799500D01*
X80850931Y-78799500D01*
X80850928Y-78799500D01*
X80520143Y-78799500D01*
X80520127Y-78799501D01*
X80520113Y-78799502D01*
X80503050Y-78801481D01*
X80495012Y-78802413D01*
X80495011Y-78802413D01*
X80495005Y-78802414D01*
X80494559Y-78802547D01*
X80492303Y-78803609D01*
X80392236Y-78847792D01*
X80312793Y-78927234D01*
X80267414Y-79030005D01*
X80266844Y-79032708D01*
X80266589Y-79037129D01*
X80264500Y-79055131D01*
X80264500Y-79658171D01*
X80259477Y-79693105D01*
X80255073Y-79708104D01*
X80217299Y-79766882D01*
X80217284Y-79766896D01*
X80215916Y-79768081D01*
X80161096Y-79795519D01*
X80153537Y-79797164D01*
X80127169Y-79800000D01*
X79876830Y-79800000D01*
X79841889Y-79794975D01*
X79826890Y-79790570D01*
X79768144Y-79752827D01*
X79766957Y-79751458D01*
X79739477Y-79696583D01*
X79737832Y-79689021D01*
X79735000Y-79662668D01*
X79735000Y-79575000D01*
X78435001Y-79575000D01*
X78435001Y-79658170D01*
X78429976Y-79693114D01*
X78425571Y-79708112D01*
X78387828Y-79766855D01*
X78386459Y-79768042D01*
X78331598Y-79795518D01*
X78324040Y-79797163D01*
X78297669Y-79800000D01*
X76707330Y-79800000D01*
X76672394Y-79794977D01*
X76659814Y-79791283D01*
X76601036Y-79753508D01*
X76572012Y-79689951D01*
X76570750Y-79672371D01*
X76570554Y-79223812D01*
X76566214Y-79183569D01*
X76565499Y-79170273D01*
X76565499Y-79055200D01*
X78435000Y-79055200D01*
X78435000Y-79055202D01*
X78435000Y-79055205D01*
X78435000Y-79325000D01*
X78960000Y-79325000D01*
X79210000Y-79325000D01*
X79734999Y-79325000D01*
X79734999Y-79055214D01*
X79734997Y-79055191D01*
X79732091Y-79030130D01*
X79732090Y-79030126D01*
X79686788Y-78927525D01*
X79686788Y-78927524D01*
X79686783Y-78927517D01*
X79607481Y-78848215D01*
X79607475Y-78848211D01*
X79504876Y-78802910D01*
X79479795Y-78800000D01*
X79479794Y-78800000D01*
X79210000Y-78800000D01*
X79210000Y-79325000D01*
X78960000Y-79325000D01*
X78960000Y-78800000D01*
X78690202Y-78800000D01*
X78665126Y-78802908D01*
X78562526Y-78848210D01*
X78562524Y-78848210D01*
X78562517Y-78848215D01*
X78483216Y-78927516D01*
X78483214Y-78927520D01*
X78483211Y-78927525D01*
X78483211Y-78927526D01*
X78483208Y-78927532D01*
X78437909Y-79030121D01*
X78437339Y-79032827D01*
X78437084Y-79037242D01*
X78435000Y-79055200D01*
X76565499Y-79055200D01*
X76565499Y-79055142D01*
X76565499Y-79055137D01*
X76565499Y-79055136D01*
X76564999Y-79050830D01*
X76565002Y-79050813D01*
X76564998Y-79050814D01*
X76563410Y-79037115D01*
X76563079Y-79031386D01*
X76562956Y-79030633D01*
X76561406Y-79027339D01*
X76517206Y-78927235D01*
X76437765Y-78847794D01*
X76437763Y-78847793D01*
X76383078Y-78823647D01*
X76334993Y-78802415D01*
X76334994Y-78802415D01*
X76309868Y-78799500D01*
X76309865Y-78799500D01*
X76184698Y-78799500D01*
X76167051Y-78798238D01*
X76141054Y-78794500D01*
X76141052Y-78794500D01*
X74874010Y-78794500D01*
X74874000Y-78794500D01*
X74873991Y-78794500D01*
X74873990Y-78794501D01*
X74809064Y-78801481D01*
X74809052Y-78801483D01*
X74757546Y-78812688D01*
X74719345Y-78823644D01*
X74719339Y-78823647D01*
X74701991Y-78833793D01*
X74634184Y-78850645D01*
X74589307Y-78840189D01*
X74504877Y-78802910D01*
X74479795Y-78800000D01*
X74479794Y-78800000D01*
X74210000Y-78800000D01*
X74210000Y-79308170D01*
X74204977Y-79343106D01*
X74197614Y-79368181D01*
X74189751Y-79381311D01*
X74186986Y-79393548D01*
X74165612Y-79421623D01*
X74165608Y-79421629D01*
X74135899Y-79450863D01*
X74066776Y-79518879D01*
X74066777Y-79518879D01*
X74060693Y-79524867D01*
X74040233Y-79539928D01*
X74040602Y-79540463D01*
X74029233Y-79548288D01*
X74028404Y-79547084D01*
X73981592Y-79570519D01*
X73974033Y-79572164D01*
X73947665Y-79575000D01*
X73435001Y-79575000D01*
X73435001Y-79658170D01*
X73429976Y-79693114D01*
X73425571Y-79708112D01*
X73387828Y-79766855D01*
X73386459Y-79768042D01*
X73331598Y-79795518D01*
X73324040Y-79797163D01*
X73297669Y-79800000D01*
X71707330Y-79800000D01*
X71672389Y-79794975D01*
X71657390Y-79790570D01*
X71598644Y-79752827D01*
X71597457Y-79751458D01*
X71569977Y-79696583D01*
X71568332Y-79689021D01*
X71565500Y-79662668D01*
X71565500Y-79373759D01*
X71565499Y-79373703D01*
X71565499Y-79055200D01*
X73435000Y-79055200D01*
X73435000Y-79055202D01*
X73435000Y-79055205D01*
X73435000Y-79325000D01*
X73910220Y-79325000D01*
X73910223Y-79325000D01*
X73960000Y-79276019D01*
X73960000Y-78800000D01*
X73690202Y-78800000D01*
X73665126Y-78802908D01*
X73562526Y-78848210D01*
X73562524Y-78848210D01*
X73562517Y-78848215D01*
X73483216Y-78927516D01*
X73483214Y-78927520D01*
X73483211Y-78927525D01*
X73483211Y-78927526D01*
X73483208Y-78927532D01*
X73437909Y-79030121D01*
X73437339Y-79032827D01*
X73437084Y-79037242D01*
X73435000Y-79055200D01*
X71565499Y-79055200D01*
X71565499Y-79055142D01*
X71565499Y-79055137D01*
X71565499Y-79055136D01*
X71564999Y-79050830D01*
X71565002Y-79050813D01*
X71564998Y-79050814D01*
X71563410Y-79037115D01*
X71563079Y-79031386D01*
X71562956Y-79030633D01*
X71561406Y-79027339D01*
X71517206Y-78927235D01*
X71437765Y-78847794D01*
X71437763Y-78847793D01*
X71383078Y-78823647D01*
X71334993Y-78802415D01*
X71309869Y-78799500D01*
X71309868Y-78799500D01*
X71309865Y-78799500D01*
X70979071Y-78799500D01*
X70979069Y-78799500D01*
X70850931Y-78799500D01*
X70850928Y-78799500D01*
X70520143Y-78799500D01*
X70520127Y-78799501D01*
X70520113Y-78799502D01*
X70503050Y-78801481D01*
X70495012Y-78802413D01*
X70495011Y-78802413D01*
X70495005Y-78802414D01*
X70494559Y-78802547D01*
X70492303Y-78803609D01*
X70392236Y-78847792D01*
X70312793Y-78927234D01*
X70267414Y-79030005D01*
X70266844Y-79032708D01*
X70266589Y-79037129D01*
X70264500Y-79055131D01*
X70264500Y-79658171D01*
X70259477Y-79693105D01*
X70255073Y-79708104D01*
X70217299Y-79766882D01*
X70217284Y-79766896D01*
X70215916Y-79768081D01*
X70161096Y-79795519D01*
X70153537Y-79797164D01*
X70127169Y-79800000D01*
X69876830Y-79800000D01*
X69841889Y-79794975D01*
X69826890Y-79790570D01*
X69768144Y-79752827D01*
X69766957Y-79751458D01*
X69739477Y-79696583D01*
X69737832Y-79689021D01*
X69735000Y-79662668D01*
X69735000Y-79575000D01*
X68435001Y-79575000D01*
X68435001Y-79658170D01*
X68429976Y-79693114D01*
X68425571Y-79708112D01*
X68387828Y-79766855D01*
X68386459Y-79768042D01*
X68331598Y-79795518D01*
X68324040Y-79797163D01*
X68297669Y-79800000D01*
X68127625Y-79800000D01*
X68092684Y-79794975D01*
X68077685Y-79790570D01*
X68018918Y-79752803D01*
X68017872Y-79751596D01*
X67990330Y-79696357D01*
X67988631Y-79688421D01*
X67985886Y-79661655D01*
X67986481Y-79570519D01*
X67989841Y-79055200D01*
X68435000Y-79055200D01*
X68435000Y-79055202D01*
X68435000Y-79055205D01*
X68435000Y-79325000D01*
X68960000Y-79325000D01*
X69210000Y-79325000D01*
X69734999Y-79325000D01*
X69734999Y-79055214D01*
X69734997Y-79055191D01*
X69732091Y-79030130D01*
X69732090Y-79030126D01*
X69686788Y-78927525D01*
X69686788Y-78927524D01*
X69686783Y-78927517D01*
X69607481Y-78848215D01*
X69607475Y-78848211D01*
X69504876Y-78802910D01*
X69479795Y-78800000D01*
X69479794Y-78800000D01*
X69210000Y-78800000D01*
X69210000Y-79325000D01*
X68960000Y-79325000D01*
X68960000Y-78800000D01*
X68690202Y-78800000D01*
X68665126Y-78802908D01*
X68562526Y-78848210D01*
X68562524Y-78848210D01*
X68562517Y-78848215D01*
X68483216Y-78927516D01*
X68483214Y-78927520D01*
X68483211Y-78927525D01*
X68483211Y-78927526D01*
X68483208Y-78927532D01*
X68437909Y-79030121D01*
X68437339Y-79032827D01*
X68437084Y-79037242D01*
X68435000Y-79055200D01*
X67989841Y-79055200D01*
X67989870Y-79050816D01*
X67999064Y-77641015D01*
X68004315Y-77606118D01*
X68008817Y-77591148D01*
X68046971Y-77532621D01*
X68048511Y-77531304D01*
X68103149Y-77504289D01*
X68110353Y-77502747D01*
X68136307Y-77500000D01*
X85108170Y-77500000D01*
X85143106Y-77505023D01*
G37*
%TD.AperFunction*%
%TD*%
%TA.AperFunction,Conductor*%
%TO.N,GNDREF*%
G36*
X70193039Y-84019685D02*
G01*
X70238794Y-84072489D01*
X70250000Y-84124000D01*
X70250000Y-85776000D01*
X70230315Y-85843039D01*
X70177511Y-85888794D01*
X70126000Y-85900000D01*
X68859000Y-85900000D01*
X68791961Y-85880315D01*
X68746206Y-85827511D01*
X68735000Y-85776000D01*
X68735000Y-85124500D01*
X68754685Y-85057461D01*
X68807489Y-85011706D01*
X68859000Y-85000500D01*
X69478108Y-85000500D01*
X69480622Y-85000000D01*
X69503951Y-85000000D01*
X69512608Y-84988991D01*
X69513229Y-84988868D01*
X69513229Y-84988867D01*
X69513231Y-84988867D01*
X69579552Y-84944552D01*
X69623867Y-84878231D01*
X69623867Y-84878229D01*
X69623868Y-84878229D01*
X69635072Y-84821896D01*
X69635500Y-84819931D01*
X69635500Y-84124000D01*
X69655185Y-84056961D01*
X69707989Y-84011206D01*
X69759500Y-84000000D01*
X70126000Y-84000000D01*
X70193039Y-84019685D01*
G37*
%TD.AperFunction*%
%TD*%
%TA.AperFunction,Conductor*%
%TO.N,3.3V*%
G36*
X68327602Y-95155021D02*
G01*
X68340434Y-95158789D01*
X68399212Y-95196563D01*
X68428238Y-95260118D01*
X68429500Y-95277767D01*
X68429500Y-95776000D01*
X68429501Y-95776009D01*
X68433789Y-95815892D01*
X68434500Y-95829147D01*
X68434500Y-95944856D01*
X68434502Y-95944882D01*
X68437400Y-95969877D01*
X68437414Y-95969993D01*
X68437546Y-95970438D01*
X68438609Y-95972696D01*
X68482793Y-96072764D01*
X68482794Y-96072765D01*
X68562235Y-96152206D01*
X68665009Y-96197585D01*
X68690135Y-96200500D01*
X68815355Y-96200499D01*
X68833006Y-96201761D01*
X68858998Y-96205499D01*
X68858999Y-96205500D01*
X68859000Y-96205500D01*
X70125990Y-96205500D01*
X70126000Y-96205500D01*
X70190941Y-96198518D01*
X70242452Y-96187312D01*
X70242450Y-96187312D01*
X70242457Y-96187311D01*
X70270978Y-96179130D01*
X70280658Y-96176354D01*
X70298004Y-96166208D01*
X70365810Y-96149354D01*
X70410692Y-96159809D01*
X70495123Y-96197089D01*
X70520206Y-96199999D01*
X70789999Y-96199999D01*
X70790000Y-96199998D01*
X70790000Y-95723981D01*
X71040000Y-95723981D01*
X71040000Y-96199999D01*
X71309786Y-96199999D01*
X71309791Y-96199999D01*
X71309791Y-96199998D01*
X71309808Y-96199997D01*
X71309808Y-96199996D01*
X71309824Y-96199996D01*
X71330922Y-96197548D01*
X71334869Y-96197091D01*
X71334873Y-96197090D01*
X71437474Y-96151788D01*
X71437479Y-96151785D01*
X71516785Y-96072479D01*
X71516788Y-96072474D01*
X71562089Y-95969877D01*
X71562089Y-95969875D01*
X71562660Y-95967170D01*
X71562915Y-95962761D01*
X71564673Y-95947602D01*
X71565000Y-95945248D01*
X71565000Y-95675000D01*
X71089777Y-95675000D01*
X71040001Y-95723978D01*
X71040000Y-95723981D01*
X70790000Y-95723981D01*
X70790000Y-95691829D01*
X70795022Y-95656897D01*
X70802385Y-95631818D01*
X70810246Y-95618690D01*
X70813013Y-95606451D01*
X70834383Y-95578377D01*
X70939330Y-95475109D01*
X70959765Y-95460071D01*
X70959397Y-95459536D01*
X70970759Y-95451715D01*
X70971589Y-95452921D01*
X71018422Y-95429476D01*
X71025989Y-95427830D01*
X71052330Y-95425000D01*
X71564999Y-95425000D01*
X71564999Y-95291829D01*
X71570022Y-95256893D01*
X71574426Y-95241895D01*
X71612171Y-95183144D01*
X71613540Y-95181957D01*
X71668419Y-95154477D01*
X71675978Y-95152833D01*
X71702331Y-95150000D01*
X73292670Y-95150000D01*
X73327606Y-95155023D01*
X73342604Y-95159427D01*
X73401355Y-95197172D01*
X73402542Y-95198541D01*
X73430018Y-95253402D01*
X73431663Y-95260960D01*
X73434500Y-95287331D01*
X73434500Y-95944856D01*
X73434502Y-95944882D01*
X73437400Y-95969877D01*
X73437414Y-95969993D01*
X73437546Y-95970438D01*
X73438609Y-95972696D01*
X73482793Y-96072764D01*
X73482794Y-96072765D01*
X73562235Y-96152206D01*
X73665009Y-96197585D01*
X73690135Y-96200500D01*
X74008339Y-96200499D01*
X74008387Y-96200500D01*
X74163503Y-96200500D01*
X74167343Y-96200500D01*
X74167375Y-96200499D01*
X74479880Y-96200499D01*
X74479978Y-96200492D01*
X74480733Y-96200398D01*
X74497893Y-96198408D01*
X74503611Y-96198078D01*
X74504225Y-96197978D01*
X74506863Y-96196758D01*
X74607765Y-96152206D01*
X74687206Y-96072765D01*
X74732585Y-95969991D01*
X74735500Y-95944865D01*
X74735500Y-95944805D01*
X75265001Y-95944805D01*
X75267908Y-95969872D01*
X75313210Y-96072472D01*
X75313210Y-96072474D01*
X75313215Y-96072481D01*
X75392517Y-96151783D01*
X75392520Y-96151785D01*
X75392525Y-96151788D01*
X75495123Y-96197089D01*
X75520206Y-96199999D01*
X75789999Y-96199999D01*
X76040000Y-96199999D01*
X76309786Y-96199999D01*
X76309791Y-96199999D01*
X76309791Y-96199998D01*
X76309808Y-96199997D01*
X76309808Y-96199996D01*
X76309824Y-96199996D01*
X76330922Y-96197548D01*
X76334869Y-96197091D01*
X76334873Y-96197090D01*
X76437474Y-96151788D01*
X76437479Y-96151785D01*
X76516785Y-96072479D01*
X76516788Y-96072474D01*
X76562089Y-95969877D01*
X76562089Y-95969875D01*
X76562660Y-95967170D01*
X76562915Y-95962761D01*
X76564673Y-95947602D01*
X76565000Y-95945248D01*
X76565000Y-95675000D01*
X76040000Y-95675000D01*
X76040000Y-96199999D01*
X75789999Y-96199999D01*
X75790000Y-96199998D01*
X75790000Y-95675000D01*
X75265001Y-95675000D01*
X75265001Y-95944805D01*
X74735500Y-95944805D01*
X74735500Y-95570480D01*
X74735500Y-95485931D01*
X74735500Y-95475942D01*
X74735500Y-95473759D01*
X74735499Y-95473703D01*
X74735499Y-95291829D01*
X74740522Y-95256893D01*
X74744926Y-95241895D01*
X74782671Y-95183144D01*
X74784040Y-95181957D01*
X74838919Y-95154477D01*
X74846478Y-95152833D01*
X74872831Y-95150000D01*
X75123170Y-95150000D01*
X75158106Y-95155023D01*
X75173104Y-95159427D01*
X75231855Y-95197172D01*
X75233042Y-95198541D01*
X75260518Y-95253402D01*
X75262163Y-95260960D01*
X75265000Y-95287331D01*
X75265000Y-95425000D01*
X76564999Y-95425000D01*
X76564999Y-95291829D01*
X76570022Y-95256893D01*
X76574426Y-95241895D01*
X76612171Y-95183144D01*
X76613540Y-95181957D01*
X76668419Y-95154477D01*
X76675978Y-95152833D01*
X76702331Y-95150000D01*
X78292670Y-95150000D01*
X78327606Y-95155023D01*
X78342604Y-95159427D01*
X78401355Y-95197172D01*
X78402542Y-95198541D01*
X78430018Y-95253402D01*
X78431663Y-95260960D01*
X78434500Y-95287331D01*
X78434500Y-95944856D01*
X78434502Y-95944882D01*
X78437400Y-95969877D01*
X78437414Y-95969993D01*
X78437546Y-95970438D01*
X78438609Y-95972696D01*
X78482793Y-96072764D01*
X78482794Y-96072765D01*
X78562235Y-96152206D01*
X78665009Y-96197585D01*
X78690135Y-96200500D01*
X79008339Y-96200499D01*
X79008387Y-96200500D01*
X79163503Y-96200500D01*
X79167343Y-96200500D01*
X79167375Y-96200499D01*
X79479880Y-96200499D01*
X79479978Y-96200492D01*
X79480733Y-96200398D01*
X79497893Y-96198408D01*
X79503611Y-96198078D01*
X79504225Y-96197978D01*
X79506863Y-96196758D01*
X79607765Y-96152206D01*
X79687206Y-96072765D01*
X79732585Y-95969991D01*
X79735500Y-95944865D01*
X79735500Y-95944805D01*
X80265001Y-95944805D01*
X80267908Y-95969872D01*
X80313210Y-96072472D01*
X80313210Y-96072474D01*
X80313215Y-96072481D01*
X80392517Y-96151783D01*
X80392520Y-96151785D01*
X80392525Y-96151788D01*
X80495123Y-96197089D01*
X80520206Y-96199999D01*
X80789999Y-96199999D01*
X81040000Y-96199999D01*
X81309786Y-96199999D01*
X81309791Y-96199999D01*
X81309791Y-96199998D01*
X81309808Y-96199997D01*
X81309808Y-96199996D01*
X81309824Y-96199996D01*
X81330922Y-96197548D01*
X81334869Y-96197091D01*
X81334873Y-96197090D01*
X81437474Y-96151788D01*
X81437479Y-96151785D01*
X81516785Y-96072479D01*
X81516788Y-96072474D01*
X81562089Y-95969877D01*
X81562089Y-95969875D01*
X81562660Y-95967170D01*
X81562915Y-95962761D01*
X81564673Y-95947602D01*
X81565000Y-95945248D01*
X81565000Y-95675000D01*
X81040000Y-95675000D01*
X81040000Y-96199999D01*
X80789999Y-96199999D01*
X80790000Y-96199998D01*
X80790000Y-95675000D01*
X80265001Y-95675000D01*
X80265001Y-95944805D01*
X79735500Y-95944805D01*
X79735500Y-95570480D01*
X79735500Y-95485931D01*
X79735500Y-95475942D01*
X79735500Y-95473759D01*
X79735499Y-95473703D01*
X79735499Y-95291829D01*
X79740522Y-95256893D01*
X79744926Y-95241895D01*
X79782671Y-95183144D01*
X79784040Y-95181957D01*
X79838919Y-95154477D01*
X79846478Y-95152833D01*
X79872831Y-95150000D01*
X80123170Y-95150000D01*
X80158106Y-95155023D01*
X80173104Y-95159427D01*
X80231855Y-95197172D01*
X80233042Y-95198541D01*
X80260518Y-95253402D01*
X80262163Y-95260960D01*
X80265000Y-95287331D01*
X80265000Y-95425000D01*
X81564999Y-95425000D01*
X81564999Y-95291829D01*
X81570022Y-95256893D01*
X81574426Y-95241895D01*
X81612171Y-95183144D01*
X81613540Y-95181957D01*
X81668419Y-95154477D01*
X81675978Y-95152833D01*
X81702331Y-95150000D01*
X83292670Y-95150000D01*
X83327606Y-95155023D01*
X83342604Y-95159427D01*
X83401355Y-95197172D01*
X83402542Y-95198541D01*
X83430018Y-95253402D01*
X83431663Y-95260960D01*
X83434500Y-95287331D01*
X83434500Y-95944856D01*
X83434502Y-95944882D01*
X83437400Y-95969877D01*
X83437414Y-95969993D01*
X83437546Y-95970438D01*
X83438609Y-95972696D01*
X83482793Y-96072764D01*
X83482794Y-96072765D01*
X83562235Y-96152206D01*
X83665009Y-96197585D01*
X83690135Y-96200500D01*
X84008339Y-96200499D01*
X84008387Y-96200500D01*
X84163503Y-96200500D01*
X84167343Y-96200500D01*
X84167375Y-96200499D01*
X84479880Y-96200499D01*
X84479978Y-96200492D01*
X84480733Y-96200398D01*
X84497893Y-96198408D01*
X84503611Y-96198078D01*
X84504225Y-96197978D01*
X84506863Y-96196758D01*
X84607765Y-96152206D01*
X84687206Y-96072765D01*
X84732585Y-95969991D01*
X84735500Y-95944865D01*
X84735500Y-95944805D01*
X85265001Y-95944805D01*
X85267908Y-95969872D01*
X85313210Y-96072472D01*
X85313210Y-96072474D01*
X85313215Y-96072481D01*
X85392517Y-96151783D01*
X85392520Y-96151785D01*
X85392525Y-96151788D01*
X85495123Y-96197089D01*
X85520206Y-96199999D01*
X85789999Y-96199999D01*
X86040000Y-96199999D01*
X86309786Y-96199999D01*
X86309791Y-96199999D01*
X86309791Y-96199998D01*
X86309808Y-96199997D01*
X86309808Y-96199996D01*
X86309824Y-96199996D01*
X86330922Y-96197548D01*
X86334869Y-96197091D01*
X86334873Y-96197090D01*
X86437474Y-96151788D01*
X86437479Y-96151785D01*
X86516785Y-96072479D01*
X86516788Y-96072474D01*
X86562089Y-95969877D01*
X86562089Y-95969875D01*
X86562660Y-95967170D01*
X86562915Y-95962761D01*
X86564673Y-95947602D01*
X86565000Y-95945248D01*
X86565000Y-95675000D01*
X86040000Y-95675000D01*
X86040000Y-96199999D01*
X85789999Y-96199999D01*
X85790000Y-96199998D01*
X85790000Y-95675000D01*
X85265001Y-95675000D01*
X85265001Y-95944805D01*
X84735500Y-95944805D01*
X84735500Y-95570480D01*
X84735500Y-95485931D01*
X84735500Y-95475942D01*
X84735500Y-95473759D01*
X84735499Y-95473703D01*
X84735499Y-95291829D01*
X84740522Y-95256893D01*
X84744926Y-95241895D01*
X84782671Y-95183144D01*
X84784040Y-95181957D01*
X84838919Y-95154477D01*
X84846478Y-95152833D01*
X84872831Y-95150000D01*
X85123170Y-95150000D01*
X85158106Y-95155023D01*
X85173104Y-95159427D01*
X85231855Y-95197172D01*
X85233042Y-95198541D01*
X85260518Y-95253402D01*
X85262163Y-95260960D01*
X85265000Y-95287331D01*
X85265000Y-95425000D01*
X86564999Y-95425000D01*
X86564999Y-95291829D01*
X86570022Y-95256893D01*
X86574426Y-95241895D01*
X86612171Y-95183144D01*
X86613540Y-95181957D01*
X86668419Y-95154477D01*
X86675978Y-95152833D01*
X86702331Y-95150000D01*
X86873170Y-95150000D01*
X86908106Y-95155023D01*
X86923104Y-95159427D01*
X86981855Y-95197172D01*
X86983042Y-95198541D01*
X87010518Y-95253402D01*
X87012163Y-95260960D01*
X87015000Y-95287331D01*
X87015000Y-99608170D01*
X87009975Y-99643114D01*
X87005570Y-99658112D01*
X86967827Y-99716855D01*
X86966458Y-99718042D01*
X86911597Y-99745518D01*
X86904039Y-99747163D01*
X86877668Y-99750000D01*
X86707330Y-99750000D01*
X86672389Y-99744975D01*
X86657390Y-99740570D01*
X86598644Y-99702827D01*
X86597457Y-99701458D01*
X86569977Y-99646583D01*
X86568332Y-99639021D01*
X86565500Y-99612668D01*
X86565500Y-99373759D01*
X86565499Y-99373703D01*
X86565499Y-99055142D01*
X86565499Y-99055136D01*
X86565497Y-99055117D01*
X86563409Y-99037113D01*
X86563078Y-99031390D01*
X86562955Y-99030630D01*
X86561406Y-99027339D01*
X86517206Y-98927235D01*
X86437765Y-98847794D01*
X86437763Y-98847793D01*
X86404879Y-98833273D01*
X86334993Y-98802415D01*
X86309869Y-98799500D01*
X86309868Y-98799500D01*
X86309865Y-98799500D01*
X85979071Y-98799500D01*
X85979069Y-98799500D01*
X85850931Y-98799500D01*
X85850928Y-98799500D01*
X85520143Y-98799500D01*
X85520127Y-98799501D01*
X85520113Y-98799502D01*
X85502255Y-98801573D01*
X85495012Y-98802413D01*
X85495011Y-98802413D01*
X85495005Y-98802414D01*
X85494559Y-98802547D01*
X85492303Y-98803609D01*
X85392236Y-98847792D01*
X85312793Y-98927234D01*
X85267414Y-99030005D01*
X85266844Y-99032710D01*
X85266589Y-99037124D01*
X85264500Y-99055127D01*
X85264500Y-99608170D01*
X85259475Y-99643114D01*
X85255070Y-99658112D01*
X85217327Y-99716855D01*
X85215958Y-99718042D01*
X85161097Y-99745518D01*
X85153539Y-99747163D01*
X85127168Y-99750000D01*
X84876830Y-99750000D01*
X84841889Y-99744975D01*
X84826890Y-99740570D01*
X84768144Y-99702827D01*
X84766957Y-99701458D01*
X84739477Y-99646583D01*
X84737832Y-99639021D01*
X84735000Y-99612668D01*
X84735000Y-99575000D01*
X83435001Y-99575000D01*
X83435001Y-99608170D01*
X83429976Y-99643114D01*
X83425571Y-99658112D01*
X83387828Y-99716855D01*
X83386459Y-99718042D01*
X83331598Y-99745518D01*
X83324040Y-99747163D01*
X83297669Y-99750000D01*
X81707330Y-99750000D01*
X81672389Y-99744975D01*
X81657390Y-99740570D01*
X81598644Y-99702827D01*
X81597457Y-99701458D01*
X81569977Y-99646583D01*
X81568332Y-99639021D01*
X81565500Y-99612668D01*
X81565500Y-99373759D01*
X81565499Y-99373703D01*
X81565499Y-99057989D01*
X81565499Y-99055200D01*
X83435000Y-99055200D01*
X83435000Y-99055202D01*
X83435000Y-99055205D01*
X83435000Y-99325000D01*
X83960000Y-99325000D01*
X84210000Y-99325000D01*
X84734999Y-99325000D01*
X84734999Y-99055214D01*
X84734997Y-99055191D01*
X84732091Y-99030130D01*
X84732090Y-99030126D01*
X84686788Y-98927525D01*
X84686788Y-98927524D01*
X84686783Y-98927517D01*
X84607481Y-98848215D01*
X84607475Y-98848211D01*
X84504876Y-98802910D01*
X84479795Y-98800000D01*
X84479794Y-98800000D01*
X84210000Y-98800000D01*
X84210000Y-99325000D01*
X83960000Y-99325000D01*
X83960000Y-98800000D01*
X83690202Y-98800000D01*
X83665126Y-98802908D01*
X83562526Y-98848210D01*
X83562524Y-98848210D01*
X83562517Y-98848215D01*
X83483216Y-98927516D01*
X83483214Y-98927520D01*
X83483211Y-98927525D01*
X83483211Y-98927526D01*
X83483208Y-98927532D01*
X83437909Y-99030121D01*
X83437339Y-99032827D01*
X83437084Y-99037242D01*
X83435000Y-99055200D01*
X81565499Y-99055200D01*
X81565499Y-99055143D01*
X81565499Y-99055136D01*
X81565497Y-99055117D01*
X81563304Y-99036205D01*
X81563210Y-99035271D01*
X81563281Y-99034891D01*
X81563078Y-99031390D01*
X81562955Y-99030630D01*
X81561406Y-99027339D01*
X81517206Y-98927235D01*
X81437765Y-98847794D01*
X81437763Y-98847793D01*
X81404879Y-98833273D01*
X81334993Y-98802415D01*
X81309869Y-98799500D01*
X81309868Y-98799500D01*
X81309865Y-98799500D01*
X80979071Y-98799500D01*
X80979069Y-98799500D01*
X80850931Y-98799500D01*
X80850928Y-98799500D01*
X80520143Y-98799500D01*
X80520127Y-98799501D01*
X80520113Y-98799502D01*
X80502255Y-98801573D01*
X80495012Y-98802413D01*
X80495011Y-98802413D01*
X80495005Y-98802414D01*
X80494559Y-98802547D01*
X80492303Y-98803609D01*
X80392236Y-98847792D01*
X80312793Y-98927234D01*
X80267414Y-99030005D01*
X80266844Y-99032710D01*
X80266589Y-99037124D01*
X80264500Y-99055127D01*
X80264500Y-99608170D01*
X80259475Y-99643114D01*
X80255070Y-99658112D01*
X80217327Y-99716855D01*
X80215958Y-99718042D01*
X80161097Y-99745518D01*
X80153539Y-99747163D01*
X80127168Y-99750000D01*
X79876830Y-99750000D01*
X79841889Y-99744975D01*
X79826890Y-99740570D01*
X79768144Y-99702827D01*
X79766957Y-99701458D01*
X79739477Y-99646583D01*
X79737832Y-99639021D01*
X79735000Y-99612668D01*
X79735000Y-99575000D01*
X78435001Y-99575000D01*
X78435001Y-99608170D01*
X78429976Y-99643114D01*
X78425571Y-99658112D01*
X78387828Y-99716855D01*
X78386459Y-99718042D01*
X78331598Y-99745518D01*
X78324040Y-99747163D01*
X78297669Y-99750000D01*
X76707330Y-99750000D01*
X76672389Y-99744975D01*
X76657390Y-99740570D01*
X76598644Y-99702827D01*
X76597457Y-99701458D01*
X76569977Y-99646583D01*
X76568332Y-99639021D01*
X76565500Y-99612668D01*
X76565500Y-99373759D01*
X76565499Y-99373703D01*
X76565499Y-99057989D01*
X76565499Y-99055200D01*
X78435000Y-99055200D01*
X78435000Y-99055202D01*
X78435000Y-99055205D01*
X78435000Y-99325000D01*
X78960000Y-99325000D01*
X79210000Y-99325000D01*
X79734999Y-99325000D01*
X79734999Y-99055214D01*
X79734997Y-99055191D01*
X79732091Y-99030130D01*
X79732090Y-99030126D01*
X79686788Y-98927525D01*
X79686788Y-98927524D01*
X79686783Y-98927517D01*
X79607481Y-98848215D01*
X79607475Y-98848211D01*
X79504876Y-98802910D01*
X79479795Y-98800000D01*
X79479794Y-98800000D01*
X79210000Y-98800000D01*
X79210000Y-99325000D01*
X78960000Y-99325000D01*
X78960000Y-98800000D01*
X78690202Y-98800000D01*
X78665126Y-98802908D01*
X78562526Y-98848210D01*
X78562524Y-98848210D01*
X78562517Y-98848215D01*
X78483216Y-98927516D01*
X78483214Y-98927520D01*
X78483211Y-98927525D01*
X78483211Y-98927526D01*
X78483208Y-98927532D01*
X78437909Y-99030121D01*
X78437339Y-99032827D01*
X78437084Y-99037242D01*
X78435000Y-99055200D01*
X76565499Y-99055200D01*
X76565499Y-99055143D01*
X76565499Y-99055136D01*
X76565497Y-99055117D01*
X76563304Y-99036205D01*
X76563210Y-99035271D01*
X76563281Y-99034891D01*
X76563078Y-99031390D01*
X76562955Y-99030630D01*
X76561406Y-99027339D01*
X76517206Y-98927235D01*
X76437765Y-98847794D01*
X76437763Y-98847793D01*
X76404879Y-98833273D01*
X76334993Y-98802415D01*
X76309869Y-98799500D01*
X76309868Y-98799500D01*
X76309865Y-98799500D01*
X75979071Y-98799500D01*
X75979069Y-98799500D01*
X75850931Y-98799500D01*
X75850928Y-98799500D01*
X75520143Y-98799500D01*
X75520127Y-98799501D01*
X75520113Y-98799502D01*
X75502255Y-98801573D01*
X75495012Y-98802413D01*
X75495011Y-98802413D01*
X75495005Y-98802414D01*
X75494559Y-98802547D01*
X75492303Y-98803609D01*
X75392236Y-98847792D01*
X75312793Y-98927234D01*
X75267414Y-99030005D01*
X75266844Y-99032710D01*
X75266589Y-99037124D01*
X75264500Y-99055127D01*
X75264500Y-99608170D01*
X75259475Y-99643114D01*
X75255070Y-99658112D01*
X75217327Y-99716855D01*
X75215958Y-99718042D01*
X75161097Y-99745518D01*
X75153539Y-99747163D01*
X75127168Y-99750000D01*
X74876830Y-99750000D01*
X74841889Y-99744975D01*
X74826890Y-99740570D01*
X74768144Y-99702827D01*
X74766957Y-99701458D01*
X74739477Y-99646583D01*
X74737832Y-99639021D01*
X74735000Y-99612668D01*
X74735000Y-99575000D01*
X73435001Y-99575000D01*
X73435001Y-99608170D01*
X73429976Y-99643114D01*
X73425571Y-99658112D01*
X73387828Y-99716855D01*
X73386459Y-99718042D01*
X73331598Y-99745518D01*
X73324040Y-99747163D01*
X73297669Y-99750000D01*
X71707330Y-99750000D01*
X71672389Y-99744975D01*
X71657390Y-99740570D01*
X71598644Y-99702827D01*
X71597457Y-99701458D01*
X71569977Y-99646583D01*
X71568332Y-99639021D01*
X71565500Y-99612668D01*
X71565500Y-99373759D01*
X71565499Y-99373703D01*
X71565499Y-99057989D01*
X71565499Y-99055200D01*
X73435000Y-99055200D01*
X73435000Y-99055202D01*
X73435000Y-99055205D01*
X73435000Y-99325000D01*
X73960000Y-99325000D01*
X74210000Y-99325000D01*
X74734999Y-99325000D01*
X74734999Y-99055214D01*
X74734997Y-99055191D01*
X74732091Y-99030130D01*
X74732090Y-99030126D01*
X74686788Y-98927525D01*
X74686788Y-98927524D01*
X74686783Y-98927517D01*
X74607481Y-98848215D01*
X74607475Y-98848211D01*
X74504876Y-98802910D01*
X74479795Y-98800000D01*
X74479794Y-98800000D01*
X74210000Y-98800000D01*
X74210000Y-99325000D01*
X73960000Y-99325000D01*
X73960000Y-98800000D01*
X73690202Y-98800000D01*
X73665126Y-98802908D01*
X73562526Y-98848210D01*
X73562524Y-98848210D01*
X73562517Y-98848215D01*
X73483216Y-98927516D01*
X73483214Y-98927520D01*
X73483211Y-98927525D01*
X73483211Y-98927526D01*
X73483208Y-98927532D01*
X73437909Y-99030121D01*
X73437339Y-99032827D01*
X73437084Y-99037242D01*
X73435000Y-99055200D01*
X71565499Y-99055200D01*
X71565499Y-99055143D01*
X71565499Y-99055136D01*
X71565497Y-99055117D01*
X71563304Y-99036205D01*
X71563210Y-99035271D01*
X71563281Y-99034891D01*
X71563078Y-99031390D01*
X71562955Y-99030630D01*
X71561406Y-99027339D01*
X71517206Y-98927235D01*
X71437765Y-98847794D01*
X71437763Y-98847793D01*
X71404879Y-98833273D01*
X71334993Y-98802415D01*
X71309869Y-98799500D01*
X71309868Y-98799500D01*
X71309865Y-98799500D01*
X70979071Y-98799500D01*
X70979069Y-98799500D01*
X70850931Y-98799500D01*
X70850928Y-98799500D01*
X70520143Y-98799500D01*
X70520127Y-98799501D01*
X70520113Y-98799502D01*
X70502255Y-98801573D01*
X70495012Y-98802413D01*
X70495011Y-98802413D01*
X70495005Y-98802414D01*
X70494559Y-98802547D01*
X70492303Y-98803609D01*
X70392236Y-98847792D01*
X70312793Y-98927234D01*
X70267414Y-99030005D01*
X70266844Y-99032710D01*
X70266589Y-99037124D01*
X70264500Y-99055127D01*
X70264500Y-99608170D01*
X70259475Y-99643114D01*
X70255070Y-99658112D01*
X70217327Y-99716855D01*
X70215958Y-99718042D01*
X70161097Y-99745518D01*
X70153539Y-99747163D01*
X70127168Y-99750000D01*
X69876830Y-99750000D01*
X69841889Y-99744975D01*
X69826890Y-99740570D01*
X69768144Y-99702827D01*
X69766957Y-99701458D01*
X69739477Y-99646583D01*
X69737832Y-99639021D01*
X69735000Y-99612668D01*
X69735000Y-99575000D01*
X68435001Y-99575000D01*
X68435001Y-99608170D01*
X68429976Y-99643114D01*
X68425571Y-99658112D01*
X68387828Y-99716855D01*
X68386459Y-99718042D01*
X68331598Y-99745518D01*
X68324040Y-99747163D01*
X68297669Y-99750000D01*
X67885585Y-99750000D01*
X67850649Y-99744977D01*
X67825407Y-99737565D01*
X67772662Y-99706269D01*
X67699426Y-99633033D01*
X67678274Y-99604777D01*
X67665667Y-99581688D01*
X67650500Y-99522263D01*
X67650500Y-99055205D01*
X68435000Y-99055205D01*
X68435000Y-99325000D01*
X68960000Y-99325000D01*
X69210000Y-99325000D01*
X69734999Y-99325000D01*
X69734999Y-99055214D01*
X69734997Y-99055191D01*
X69732091Y-99030130D01*
X69732090Y-99030126D01*
X69686788Y-98927525D01*
X69686788Y-98927524D01*
X69686783Y-98927517D01*
X69607481Y-98848215D01*
X69607475Y-98848211D01*
X69504876Y-98802910D01*
X69479795Y-98800000D01*
X69479794Y-98800000D01*
X69210000Y-98800000D01*
X69210000Y-99325000D01*
X68960000Y-99325000D01*
X68960000Y-98800000D01*
X68690202Y-98800000D01*
X68665126Y-98802908D01*
X68562526Y-98848210D01*
X68562524Y-98848210D01*
X68562517Y-98848215D01*
X68483216Y-98927516D01*
X68483214Y-98927520D01*
X68483211Y-98927525D01*
X68483211Y-98927526D01*
X68483208Y-98927532D01*
X68437909Y-99030121D01*
X68437339Y-99032827D01*
X68437238Y-99034570D01*
X68437276Y-99035472D01*
X68437181Y-99036401D01*
X68435000Y-99055205D01*
X67650500Y-99055205D01*
X67650500Y-95485084D01*
X67655522Y-95450151D01*
X67662934Y-95424906D01*
X67694228Y-95372164D01*
X67867469Y-95198923D01*
X67895719Y-95177775D01*
X67918811Y-95165167D01*
X67978236Y-95150000D01*
X68292670Y-95150000D01*
X68327602Y-95155021D01*
G37*
%TD.AperFunction*%
%TD*%
%TA.AperFunction,Conductor*%
%TO.N,GNDREF*%
G36*
X70193039Y-94019685D02*
G01*
X70238794Y-94072489D01*
X70250000Y-94124000D01*
X70250000Y-95776000D01*
X70230315Y-95843039D01*
X70177511Y-95888794D01*
X70126000Y-95900000D01*
X68859000Y-95900000D01*
X68791961Y-95880315D01*
X68746206Y-95827511D01*
X68735000Y-95776000D01*
X68735000Y-95124500D01*
X68754685Y-95057461D01*
X68807489Y-95011706D01*
X68859000Y-95000500D01*
X69478108Y-95000500D01*
X69480622Y-95000000D01*
X69503951Y-95000000D01*
X69512608Y-94988991D01*
X69513229Y-94988868D01*
X69513229Y-94988867D01*
X69513231Y-94988867D01*
X69579552Y-94944552D01*
X69623867Y-94878231D01*
X69623867Y-94878229D01*
X69623868Y-94878229D01*
X69635072Y-94821896D01*
X69635500Y-94819931D01*
X69635500Y-94124000D01*
X69655185Y-94056961D01*
X69707989Y-94011206D01*
X69759500Y-94000000D01*
X70126000Y-94000000D01*
X70193039Y-94019685D01*
G37*
%TD.AperFunction*%
%TD*%
%TA.AperFunction,Conductor*%
%TO.N,3.3V*%
G36*
X68327602Y-85205021D02*
G01*
X68340434Y-85208789D01*
X68399212Y-85246563D01*
X68428238Y-85310118D01*
X68429500Y-85327767D01*
X68429500Y-85776000D01*
X68429501Y-85776009D01*
X68433789Y-85815892D01*
X68434500Y-85829147D01*
X68434500Y-85944856D01*
X68434502Y-85944882D01*
X68437400Y-85969877D01*
X68437414Y-85969993D01*
X68437546Y-85970438D01*
X68438609Y-85972696D01*
X68482793Y-86072764D01*
X68482794Y-86072765D01*
X68562235Y-86152206D01*
X68665009Y-86197585D01*
X68690135Y-86200500D01*
X68815355Y-86200499D01*
X68833006Y-86201761D01*
X68858998Y-86205499D01*
X68858999Y-86205500D01*
X68859000Y-86205500D01*
X70125990Y-86205500D01*
X70126000Y-86205500D01*
X70190941Y-86198518D01*
X70242452Y-86187312D01*
X70242450Y-86187312D01*
X70242457Y-86187311D01*
X70270978Y-86179130D01*
X70280658Y-86176354D01*
X70298004Y-86166208D01*
X70365810Y-86149354D01*
X70410692Y-86159809D01*
X70495123Y-86197089D01*
X70520206Y-86199999D01*
X70789999Y-86199999D01*
X70790000Y-86199998D01*
X70790000Y-85723981D01*
X71040000Y-85723981D01*
X71040000Y-86199999D01*
X71309786Y-86199999D01*
X71309791Y-86199999D01*
X71309791Y-86199998D01*
X71309808Y-86199997D01*
X71309808Y-86199996D01*
X71309824Y-86199996D01*
X71330922Y-86197548D01*
X71334869Y-86197091D01*
X71334873Y-86197090D01*
X71437474Y-86151788D01*
X71437479Y-86151785D01*
X71516785Y-86072479D01*
X71516788Y-86072474D01*
X71562089Y-85969877D01*
X71562089Y-85969875D01*
X71562660Y-85967170D01*
X71562915Y-85962761D01*
X71564673Y-85947602D01*
X71565000Y-85945248D01*
X71565000Y-85675000D01*
X71089777Y-85675000D01*
X71040001Y-85723978D01*
X71040000Y-85723981D01*
X70790000Y-85723981D01*
X70790000Y-85691829D01*
X70795022Y-85656897D01*
X70802385Y-85631818D01*
X70810246Y-85618690D01*
X70813013Y-85606451D01*
X70834383Y-85578377D01*
X70939330Y-85475109D01*
X70959765Y-85460071D01*
X70959397Y-85459536D01*
X70970759Y-85451715D01*
X70971589Y-85452921D01*
X71018422Y-85429476D01*
X71025989Y-85427830D01*
X71052330Y-85425000D01*
X71564999Y-85425000D01*
X71564999Y-85341829D01*
X71570022Y-85306893D01*
X71574426Y-85291895D01*
X71612171Y-85233144D01*
X71613540Y-85231957D01*
X71668419Y-85204477D01*
X71675978Y-85202833D01*
X71702331Y-85200000D01*
X73292670Y-85200000D01*
X73327606Y-85205023D01*
X73342604Y-85209427D01*
X73401355Y-85247172D01*
X73402542Y-85248541D01*
X73430018Y-85303402D01*
X73431663Y-85310960D01*
X73434500Y-85337331D01*
X73434500Y-85944856D01*
X73434502Y-85944882D01*
X73437400Y-85969877D01*
X73437414Y-85969993D01*
X73437546Y-85970438D01*
X73438609Y-85972696D01*
X73482793Y-86072764D01*
X73482794Y-86072765D01*
X73562235Y-86152206D01*
X73665009Y-86197585D01*
X73690135Y-86200500D01*
X74008339Y-86200499D01*
X74008387Y-86200500D01*
X74163503Y-86200500D01*
X74167343Y-86200500D01*
X74167375Y-86200499D01*
X74479880Y-86200499D01*
X74479978Y-86200492D01*
X74480733Y-86200398D01*
X74497893Y-86198408D01*
X74503611Y-86198078D01*
X74504225Y-86197978D01*
X74506863Y-86196758D01*
X74607765Y-86152206D01*
X74687206Y-86072765D01*
X74732585Y-85969991D01*
X74735500Y-85944865D01*
X74735500Y-85944805D01*
X75265001Y-85944805D01*
X75267908Y-85969872D01*
X75313210Y-86072472D01*
X75313210Y-86072474D01*
X75313215Y-86072481D01*
X75392517Y-86151783D01*
X75392520Y-86151785D01*
X75392525Y-86151788D01*
X75495123Y-86197089D01*
X75520206Y-86199999D01*
X75789999Y-86199999D01*
X76040000Y-86199999D01*
X76309786Y-86199999D01*
X76309791Y-86199999D01*
X76309791Y-86199998D01*
X76309808Y-86199997D01*
X76309808Y-86199996D01*
X76309824Y-86199996D01*
X76330922Y-86197548D01*
X76334869Y-86197091D01*
X76334873Y-86197090D01*
X76437474Y-86151788D01*
X76437479Y-86151785D01*
X76516785Y-86072479D01*
X76516788Y-86072474D01*
X76562089Y-85969877D01*
X76562089Y-85969875D01*
X76562660Y-85967170D01*
X76562915Y-85962761D01*
X76564673Y-85947602D01*
X76565000Y-85945248D01*
X76565000Y-85675000D01*
X76040000Y-85675000D01*
X76040000Y-86199999D01*
X75789999Y-86199999D01*
X75790000Y-86199998D01*
X75790000Y-85675000D01*
X75265001Y-85675000D01*
X75265001Y-85944805D01*
X74735500Y-85944805D01*
X74735500Y-85570480D01*
X74735500Y-85485931D01*
X74735500Y-85475942D01*
X74735500Y-85473759D01*
X74735499Y-85473703D01*
X74735499Y-85341829D01*
X74740522Y-85306893D01*
X74744926Y-85291895D01*
X74782671Y-85233144D01*
X74784040Y-85231957D01*
X74838919Y-85204477D01*
X74846478Y-85202833D01*
X74872831Y-85200000D01*
X75123170Y-85200000D01*
X75158106Y-85205023D01*
X75173104Y-85209427D01*
X75231855Y-85247172D01*
X75233042Y-85248541D01*
X75260518Y-85303402D01*
X75262163Y-85310960D01*
X75265000Y-85337331D01*
X75265000Y-85425000D01*
X76564999Y-85425000D01*
X76564999Y-85341829D01*
X76570022Y-85306893D01*
X76574426Y-85291895D01*
X76612171Y-85233144D01*
X76613540Y-85231957D01*
X76668419Y-85204477D01*
X76675978Y-85202833D01*
X76702331Y-85200000D01*
X78292670Y-85200000D01*
X78327606Y-85205023D01*
X78342604Y-85209427D01*
X78401355Y-85247172D01*
X78402542Y-85248541D01*
X78430018Y-85303402D01*
X78431663Y-85310960D01*
X78434500Y-85337331D01*
X78434500Y-85944856D01*
X78434502Y-85944882D01*
X78437400Y-85969877D01*
X78437414Y-85969993D01*
X78437546Y-85970438D01*
X78438609Y-85972696D01*
X78482793Y-86072764D01*
X78482794Y-86072765D01*
X78562235Y-86152206D01*
X78665009Y-86197585D01*
X78690135Y-86200500D01*
X79008339Y-86200499D01*
X79008387Y-86200500D01*
X79163503Y-86200500D01*
X79167343Y-86200500D01*
X79167375Y-86200499D01*
X79479880Y-86200499D01*
X79479978Y-86200492D01*
X79480733Y-86200398D01*
X79497893Y-86198408D01*
X79503611Y-86198078D01*
X79504225Y-86197978D01*
X79506863Y-86196758D01*
X79607765Y-86152206D01*
X79687206Y-86072765D01*
X79732585Y-85969991D01*
X79735500Y-85944865D01*
X79735500Y-85944805D01*
X80265001Y-85944805D01*
X80267908Y-85969872D01*
X80313210Y-86072472D01*
X80313210Y-86072474D01*
X80313215Y-86072481D01*
X80392517Y-86151783D01*
X80392520Y-86151785D01*
X80392525Y-86151788D01*
X80495123Y-86197089D01*
X80520206Y-86199999D01*
X80789999Y-86199999D01*
X81040000Y-86199999D01*
X81309786Y-86199999D01*
X81309791Y-86199999D01*
X81309791Y-86199998D01*
X81309808Y-86199997D01*
X81309808Y-86199996D01*
X81309824Y-86199996D01*
X81330922Y-86197548D01*
X81334869Y-86197091D01*
X81334873Y-86197090D01*
X81437474Y-86151788D01*
X81437479Y-86151785D01*
X81516785Y-86072479D01*
X81516788Y-86072474D01*
X81562089Y-85969877D01*
X81562089Y-85969875D01*
X81562660Y-85967170D01*
X81562915Y-85962761D01*
X81564673Y-85947602D01*
X81565000Y-85945248D01*
X81565000Y-85675000D01*
X81040000Y-85675000D01*
X81040000Y-86199999D01*
X80789999Y-86199999D01*
X80790000Y-86199998D01*
X80790000Y-85675000D01*
X80265001Y-85675000D01*
X80265001Y-85944805D01*
X79735500Y-85944805D01*
X79735500Y-85570480D01*
X79735500Y-85485931D01*
X79735500Y-85475942D01*
X79735500Y-85473759D01*
X79735499Y-85473703D01*
X79735499Y-85341829D01*
X79740522Y-85306893D01*
X79744926Y-85291895D01*
X79782671Y-85233144D01*
X79784040Y-85231957D01*
X79838919Y-85204477D01*
X79846478Y-85202833D01*
X79872831Y-85200000D01*
X80123170Y-85200000D01*
X80158106Y-85205023D01*
X80173104Y-85209427D01*
X80231855Y-85247172D01*
X80233042Y-85248541D01*
X80260518Y-85303402D01*
X80262163Y-85310960D01*
X80265000Y-85337331D01*
X80265000Y-85425000D01*
X81564999Y-85425000D01*
X81564999Y-85341829D01*
X81570022Y-85306893D01*
X81574426Y-85291895D01*
X81612171Y-85233144D01*
X81613540Y-85231957D01*
X81668419Y-85204477D01*
X81675978Y-85202833D01*
X81702331Y-85200000D01*
X83292670Y-85200000D01*
X83327606Y-85205023D01*
X83342604Y-85209427D01*
X83401355Y-85247172D01*
X83402542Y-85248541D01*
X83430018Y-85303402D01*
X83431663Y-85310960D01*
X83434500Y-85337331D01*
X83434500Y-85944856D01*
X83434502Y-85944882D01*
X83437400Y-85969877D01*
X83437414Y-85969993D01*
X83437546Y-85970438D01*
X83438609Y-85972696D01*
X83482793Y-86072764D01*
X83482794Y-86072765D01*
X83562235Y-86152206D01*
X83665009Y-86197585D01*
X83690135Y-86200500D01*
X84008339Y-86200499D01*
X84008387Y-86200500D01*
X84163503Y-86200500D01*
X84167343Y-86200500D01*
X84167375Y-86200499D01*
X84479880Y-86200499D01*
X84479978Y-86200492D01*
X84480733Y-86200398D01*
X84497893Y-86198408D01*
X84503611Y-86198078D01*
X84504225Y-86197978D01*
X84506863Y-86196758D01*
X84607765Y-86152206D01*
X84687206Y-86072765D01*
X84732585Y-85969991D01*
X84735500Y-85944865D01*
X84735500Y-85944805D01*
X85265001Y-85944805D01*
X85267908Y-85969872D01*
X85313210Y-86072472D01*
X85313210Y-86072474D01*
X85313215Y-86072481D01*
X85392517Y-86151783D01*
X85392520Y-86151785D01*
X85392525Y-86151788D01*
X85495123Y-86197089D01*
X85520206Y-86199999D01*
X85789999Y-86199999D01*
X85790000Y-86199998D01*
X85790000Y-85724776D01*
X85741020Y-85675000D01*
X85741019Y-85675000D01*
X85265001Y-85675000D01*
X85265001Y-85944805D01*
X84735500Y-85944805D01*
X84735500Y-85570480D01*
X84735500Y-85485931D01*
X84735500Y-85475942D01*
X84735500Y-85473759D01*
X84735499Y-85473703D01*
X84735499Y-85341829D01*
X84740522Y-85306893D01*
X84744926Y-85291895D01*
X84782671Y-85233144D01*
X84784040Y-85231957D01*
X84838919Y-85204477D01*
X84846478Y-85202833D01*
X84872831Y-85200000D01*
X85123170Y-85200000D01*
X85158106Y-85205023D01*
X85173104Y-85209427D01*
X85231855Y-85247172D01*
X85233042Y-85248541D01*
X85260518Y-85303402D01*
X85262163Y-85310960D01*
X85265000Y-85337331D01*
X85265000Y-85425000D01*
X85773170Y-85425000D01*
X85808102Y-85430022D01*
X85815171Y-85432097D01*
X85833179Y-85437385D01*
X85846308Y-85445246D01*
X85858548Y-85448013D01*
X85886623Y-85469386D01*
X85886626Y-85469388D01*
X85989880Y-85574321D01*
X86004926Y-85594764D01*
X86005463Y-85594395D01*
X86009369Y-85600070D01*
X86009373Y-85600077D01*
X86009377Y-85600082D01*
X86013287Y-85605762D01*
X86012080Y-85606592D01*
X86035519Y-85653406D01*
X86037165Y-85660972D01*
X86040000Y-85687333D01*
X86040000Y-86199999D01*
X86123170Y-86199999D01*
X86158106Y-86205022D01*
X86173104Y-86209426D01*
X86231855Y-86247171D01*
X86233042Y-86248540D01*
X86260518Y-86303401D01*
X86262163Y-86310959D01*
X86265000Y-86337330D01*
X86265000Y-88657670D01*
X86259975Y-88692614D01*
X86255570Y-88707612D01*
X86217827Y-88766355D01*
X86216458Y-88767542D01*
X86161597Y-88795018D01*
X86154039Y-88796663D01*
X86127668Y-88799500D01*
X85520143Y-88799500D01*
X85520127Y-88799501D01*
X85520113Y-88799502D01*
X85502255Y-88801573D01*
X85495012Y-88802413D01*
X85495011Y-88802413D01*
X85495005Y-88802414D01*
X85494559Y-88802547D01*
X85492303Y-88803609D01*
X85392236Y-88847792D01*
X85312793Y-88927234D01*
X85267414Y-89030005D01*
X85266844Y-89032708D01*
X85266589Y-89037129D01*
X85264500Y-89055131D01*
X85264500Y-89658171D01*
X85259477Y-89693105D01*
X85255073Y-89708104D01*
X85217299Y-89766882D01*
X85217284Y-89766896D01*
X85215916Y-89768081D01*
X85161096Y-89795519D01*
X85153537Y-89797164D01*
X85127169Y-89800000D01*
X84876830Y-89800000D01*
X84841889Y-89794975D01*
X84826890Y-89790570D01*
X84768144Y-89752827D01*
X84766957Y-89751458D01*
X84739477Y-89696583D01*
X84737832Y-89689021D01*
X84735000Y-89662668D01*
X84735000Y-89575000D01*
X83435001Y-89575000D01*
X83435001Y-89658170D01*
X83429976Y-89693114D01*
X83425571Y-89708112D01*
X83387828Y-89766855D01*
X83386459Y-89768042D01*
X83331598Y-89795518D01*
X83324040Y-89797163D01*
X83297669Y-89800000D01*
X81707330Y-89800000D01*
X81672389Y-89794975D01*
X81657390Y-89790570D01*
X81598644Y-89752827D01*
X81597457Y-89751458D01*
X81569977Y-89696583D01*
X81568332Y-89689021D01*
X81565500Y-89662668D01*
X81565500Y-89373759D01*
X81565499Y-89373703D01*
X81565499Y-89057989D01*
X81565499Y-89055200D01*
X83435000Y-89055200D01*
X83435000Y-89055202D01*
X83435000Y-89055205D01*
X83435000Y-89325000D01*
X83960000Y-89325000D01*
X84210000Y-89325000D01*
X84734999Y-89325000D01*
X84734999Y-89055214D01*
X84734997Y-89055191D01*
X84732091Y-89030130D01*
X84732090Y-89030126D01*
X84686788Y-88927525D01*
X84686788Y-88927524D01*
X84686783Y-88927517D01*
X84607481Y-88848215D01*
X84607475Y-88848211D01*
X84504876Y-88802910D01*
X84479795Y-88800000D01*
X84479794Y-88800000D01*
X84210000Y-88800000D01*
X84210000Y-89325000D01*
X83960000Y-89325000D01*
X83960000Y-88800000D01*
X83690202Y-88800000D01*
X83665126Y-88802908D01*
X83562526Y-88848210D01*
X83562524Y-88848210D01*
X83562517Y-88848215D01*
X83483216Y-88927516D01*
X83483214Y-88927520D01*
X83483211Y-88927525D01*
X83483211Y-88927526D01*
X83483208Y-88927532D01*
X83437909Y-89030121D01*
X83437339Y-89032827D01*
X83437084Y-89037242D01*
X83435000Y-89055200D01*
X81565499Y-89055200D01*
X81565499Y-89055143D01*
X81565499Y-89055136D01*
X81565497Y-89055117D01*
X81563304Y-89036205D01*
X81563210Y-89035271D01*
X81563281Y-89034891D01*
X81563078Y-89031390D01*
X81562955Y-89030630D01*
X81561406Y-89027339D01*
X81517206Y-88927235D01*
X81437765Y-88847794D01*
X81437763Y-88847793D01*
X81404879Y-88833273D01*
X81334993Y-88802415D01*
X81309869Y-88799500D01*
X81309868Y-88799500D01*
X81309865Y-88799500D01*
X80979071Y-88799500D01*
X80979069Y-88799500D01*
X80850931Y-88799500D01*
X80850928Y-88799500D01*
X80520143Y-88799500D01*
X80520127Y-88799501D01*
X80520113Y-88799502D01*
X80502255Y-88801573D01*
X80495012Y-88802413D01*
X80495011Y-88802413D01*
X80495005Y-88802414D01*
X80494559Y-88802547D01*
X80492303Y-88803609D01*
X80392236Y-88847792D01*
X80312793Y-88927234D01*
X80267414Y-89030005D01*
X80266844Y-89032708D01*
X80266589Y-89037129D01*
X80264500Y-89055131D01*
X80264500Y-89658171D01*
X80259477Y-89693105D01*
X80255073Y-89708104D01*
X80217299Y-89766882D01*
X80217284Y-89766896D01*
X80215916Y-89768081D01*
X80161096Y-89795519D01*
X80153537Y-89797164D01*
X80127169Y-89800000D01*
X79876830Y-89800000D01*
X79841889Y-89794975D01*
X79826890Y-89790570D01*
X79768144Y-89752827D01*
X79766957Y-89751458D01*
X79739477Y-89696583D01*
X79737832Y-89689021D01*
X79735000Y-89662668D01*
X79735000Y-89575000D01*
X78435001Y-89575000D01*
X78435001Y-89658170D01*
X78429976Y-89693114D01*
X78425571Y-89708112D01*
X78387828Y-89766855D01*
X78386459Y-89768042D01*
X78331598Y-89795518D01*
X78324040Y-89797163D01*
X78297669Y-89800000D01*
X76707330Y-89800000D01*
X76672389Y-89794975D01*
X76657390Y-89790570D01*
X76598644Y-89752827D01*
X76597457Y-89751458D01*
X76569977Y-89696583D01*
X76568332Y-89689021D01*
X76565500Y-89662668D01*
X76565500Y-89373759D01*
X76565499Y-89373703D01*
X76565499Y-89057989D01*
X76565499Y-89055200D01*
X78435000Y-89055200D01*
X78435000Y-89055202D01*
X78435000Y-89055205D01*
X78435000Y-89325000D01*
X78960000Y-89325000D01*
X79210000Y-89325000D01*
X79734999Y-89325000D01*
X79734999Y-89055214D01*
X79734997Y-89055191D01*
X79732091Y-89030130D01*
X79732090Y-89030126D01*
X79686788Y-88927525D01*
X79686788Y-88927524D01*
X79686783Y-88927517D01*
X79607481Y-88848215D01*
X79607475Y-88848211D01*
X79504876Y-88802910D01*
X79479795Y-88800000D01*
X79479794Y-88800000D01*
X79210000Y-88800000D01*
X79210000Y-89325000D01*
X78960000Y-89325000D01*
X78960000Y-88800000D01*
X78690202Y-88800000D01*
X78665126Y-88802908D01*
X78562526Y-88848210D01*
X78562524Y-88848210D01*
X78562517Y-88848215D01*
X78483216Y-88927516D01*
X78483214Y-88927520D01*
X78483211Y-88927525D01*
X78483211Y-88927526D01*
X78483208Y-88927532D01*
X78437909Y-89030121D01*
X78437339Y-89032827D01*
X78437084Y-89037242D01*
X78435000Y-89055200D01*
X76565499Y-89055200D01*
X76565499Y-89055143D01*
X76565499Y-89055136D01*
X76565497Y-89055117D01*
X76563304Y-89036205D01*
X76563210Y-89035271D01*
X76563281Y-89034891D01*
X76563078Y-89031390D01*
X76562955Y-89030630D01*
X76561406Y-89027339D01*
X76517206Y-88927235D01*
X76437765Y-88847794D01*
X76437763Y-88847793D01*
X76404879Y-88833273D01*
X76334993Y-88802415D01*
X76309869Y-88799500D01*
X76309868Y-88799500D01*
X76309865Y-88799500D01*
X75979071Y-88799500D01*
X75979069Y-88799500D01*
X75850931Y-88799500D01*
X75850928Y-88799500D01*
X75520143Y-88799500D01*
X75520127Y-88799501D01*
X75520113Y-88799502D01*
X75502255Y-88801573D01*
X75495012Y-88802413D01*
X75495011Y-88802413D01*
X75495005Y-88802414D01*
X75494559Y-88802547D01*
X75492303Y-88803609D01*
X75392236Y-88847792D01*
X75312793Y-88927234D01*
X75267414Y-89030005D01*
X75266844Y-89032708D01*
X75266589Y-89037129D01*
X75264500Y-89055131D01*
X75264500Y-89658171D01*
X75259477Y-89693105D01*
X75255073Y-89708104D01*
X75217299Y-89766882D01*
X75217284Y-89766896D01*
X75215916Y-89768081D01*
X75161096Y-89795519D01*
X75153537Y-89797164D01*
X75127169Y-89800000D01*
X74876830Y-89800000D01*
X74841889Y-89794975D01*
X74826890Y-89790570D01*
X74768144Y-89752827D01*
X74766957Y-89751458D01*
X74739477Y-89696583D01*
X74737832Y-89689021D01*
X74735000Y-89662668D01*
X74735000Y-89575000D01*
X73435001Y-89575000D01*
X73435001Y-89658170D01*
X73429976Y-89693114D01*
X73425571Y-89708112D01*
X73387828Y-89766855D01*
X73386459Y-89768042D01*
X73331598Y-89795518D01*
X73324040Y-89797163D01*
X73297669Y-89800000D01*
X71707330Y-89800000D01*
X71672389Y-89794975D01*
X71657390Y-89790570D01*
X71598644Y-89752827D01*
X71597457Y-89751458D01*
X71569977Y-89696583D01*
X71568332Y-89689021D01*
X71565500Y-89662668D01*
X71565500Y-89373759D01*
X71565499Y-89373703D01*
X71565499Y-89057989D01*
X71565499Y-89055200D01*
X73435000Y-89055200D01*
X73435000Y-89055202D01*
X73435000Y-89055205D01*
X73435000Y-89325000D01*
X73960000Y-89325000D01*
X74210000Y-89325000D01*
X74734999Y-89325000D01*
X74734999Y-89055214D01*
X74734997Y-89055191D01*
X74732091Y-89030130D01*
X74732090Y-89030126D01*
X74686788Y-88927525D01*
X74686788Y-88927524D01*
X74686783Y-88927517D01*
X74607481Y-88848215D01*
X74607475Y-88848211D01*
X74504876Y-88802910D01*
X74479795Y-88800000D01*
X74479794Y-88800000D01*
X74210000Y-88800000D01*
X74210000Y-89325000D01*
X73960000Y-89325000D01*
X73960000Y-88800000D01*
X73690202Y-88800000D01*
X73665126Y-88802908D01*
X73562526Y-88848210D01*
X73562524Y-88848210D01*
X73562517Y-88848215D01*
X73483216Y-88927516D01*
X73483214Y-88927520D01*
X73483211Y-88927525D01*
X73483211Y-88927526D01*
X73483208Y-88927532D01*
X73437909Y-89030121D01*
X73437339Y-89032827D01*
X73437084Y-89037242D01*
X73435000Y-89055200D01*
X71565499Y-89055200D01*
X71565499Y-89055143D01*
X71565499Y-89055136D01*
X71565497Y-89055117D01*
X71563304Y-89036205D01*
X71563210Y-89035271D01*
X71563281Y-89034891D01*
X71563078Y-89031390D01*
X71562955Y-89030630D01*
X71561406Y-89027339D01*
X71517206Y-88927235D01*
X71437765Y-88847794D01*
X71437763Y-88847793D01*
X71404879Y-88833273D01*
X71334993Y-88802415D01*
X71309869Y-88799500D01*
X71309868Y-88799500D01*
X71309865Y-88799500D01*
X70979071Y-88799500D01*
X70979069Y-88799500D01*
X70850931Y-88799500D01*
X70850928Y-88799500D01*
X70520143Y-88799500D01*
X70520127Y-88799501D01*
X70520113Y-88799502D01*
X70502255Y-88801573D01*
X70495012Y-88802413D01*
X70495011Y-88802413D01*
X70495005Y-88802414D01*
X70494559Y-88802547D01*
X70492303Y-88803609D01*
X70392236Y-88847792D01*
X70312793Y-88927234D01*
X70267414Y-89030005D01*
X70266844Y-89032708D01*
X70266589Y-89037129D01*
X70264500Y-89055131D01*
X70264500Y-89658171D01*
X70259477Y-89693105D01*
X70255073Y-89708104D01*
X70217299Y-89766882D01*
X70217284Y-89766896D01*
X70215916Y-89768081D01*
X70161096Y-89795519D01*
X70153537Y-89797164D01*
X70127169Y-89800000D01*
X69876830Y-89800000D01*
X69841889Y-89794975D01*
X69826890Y-89790570D01*
X69768144Y-89752827D01*
X69766957Y-89751458D01*
X69739477Y-89696583D01*
X69737832Y-89689021D01*
X69735000Y-89662668D01*
X69735000Y-89575000D01*
X68435001Y-89575000D01*
X68435001Y-89658170D01*
X68429976Y-89693114D01*
X68425571Y-89708112D01*
X68387828Y-89766855D01*
X68386459Y-89768042D01*
X68331598Y-89795518D01*
X68324040Y-89797163D01*
X68297669Y-89800000D01*
X67935585Y-89800000D01*
X67900649Y-89794977D01*
X67875407Y-89787565D01*
X67822662Y-89756269D01*
X67699426Y-89633033D01*
X67678274Y-89604777D01*
X67665667Y-89581688D01*
X67650500Y-89522263D01*
X67650500Y-89055205D01*
X68435000Y-89055205D01*
X68435000Y-89325000D01*
X68960000Y-89325000D01*
X69210000Y-89325000D01*
X69734999Y-89325000D01*
X69734999Y-89055214D01*
X69734997Y-89055191D01*
X69732091Y-89030130D01*
X69732090Y-89030126D01*
X69686788Y-88927525D01*
X69686788Y-88927524D01*
X69686783Y-88927517D01*
X69607481Y-88848215D01*
X69607475Y-88848211D01*
X69504876Y-88802910D01*
X69479795Y-88800000D01*
X69479794Y-88800000D01*
X69210000Y-88800000D01*
X69210000Y-89325000D01*
X68960000Y-89325000D01*
X68960000Y-88800000D01*
X68690202Y-88800000D01*
X68665126Y-88802908D01*
X68562526Y-88848210D01*
X68562524Y-88848210D01*
X68562517Y-88848215D01*
X68483216Y-88927516D01*
X68483214Y-88927520D01*
X68483211Y-88927525D01*
X68483211Y-88927526D01*
X68483208Y-88927532D01*
X68437909Y-89030121D01*
X68437339Y-89032827D01*
X68437238Y-89034570D01*
X68437276Y-89035472D01*
X68437181Y-89036401D01*
X68435000Y-89055205D01*
X67650500Y-89055205D01*
X67650500Y-85485084D01*
X67655522Y-85450151D01*
X67656150Y-85448013D01*
X67662934Y-85424906D01*
X67694228Y-85372164D01*
X67817469Y-85248923D01*
X67845719Y-85227775D01*
X67868811Y-85215167D01*
X67928236Y-85200000D01*
X68292670Y-85200000D01*
X68327602Y-85205021D01*
G37*
%TD.AperFunction*%
%TD*%
%TA.AperFunction,Conductor*%
%TO.N,GNDREF*%
G36*
X69635500Y-94819931D02*
G01*
X69635084Y-94821836D01*
X69635500Y-94819750D01*
X69635500Y-94819931D01*
G37*
%TD.AperFunction*%
%TA.AperFunction,Conductor*%
G36*
X69635500Y-84819931D02*
G01*
X69635084Y-84821836D01*
X69635500Y-84819750D01*
X69635500Y-84819931D01*
G37*
%TD.AperFunction*%
%TA.AperFunction,Conductor*%
G36*
X74836080Y-79108249D02*
G01*
X74836129Y-79108237D01*
X74851505Y-79104892D01*
X74851535Y-79104887D01*
X74836080Y-79108249D01*
G37*
%TD.AperFunction*%
%TA.AperFunction,Conductor*%
G36*
X86998084Y-65500556D02*
G01*
X87001848Y-65500669D01*
X87005575Y-65500837D01*
X87290069Y-65518045D01*
X87297505Y-65518721D01*
X87304951Y-65519625D01*
X87312324Y-65520747D01*
X87587134Y-65571108D01*
X87594431Y-65572675D01*
X87601691Y-65574465D01*
X87601703Y-65574468D01*
X87608909Y-65576477D01*
X87875613Y-65659586D01*
X87882663Y-65662018D01*
X87889671Y-65664675D01*
X87896567Y-65667532D01*
X88151322Y-65782188D01*
X88158048Y-65785464D01*
X88164684Y-65788947D01*
X88171191Y-65792617D01*
X88410260Y-65937137D01*
X88416534Y-65941194D01*
X88422686Y-65945440D01*
X88428711Y-65949872D01*
X88648621Y-66122161D01*
X88654379Y-66126960D01*
X88659984Y-66131926D01*
X88665434Y-66137057D01*
X88862941Y-66334564D01*
X88868072Y-66340014D01*
X88873038Y-66345619D01*
X88877837Y-66351377D01*
X89050117Y-66571275D01*
X89054538Y-66577283D01*
X89058817Y-66583483D01*
X89062854Y-66589727D01*
X89207389Y-66828820D01*
X89211057Y-66835324D01*
X89214535Y-66841951D01*
X89217813Y-66848684D01*
X89316550Y-67068066D01*
X89332455Y-67103405D01*
X89335326Y-67110335D01*
X89337982Y-67117340D01*
X89340421Y-67124412D01*
X89423520Y-67391087D01*
X89425526Y-67398282D01*
X89427322Y-67405566D01*
X89428893Y-67412881D01*
X89479247Y-67687655D01*
X89480373Y-67695051D01*
X89481275Y-67702475D01*
X89481954Y-67709944D01*
X89499160Y-67994384D01*
X89499329Y-67998117D01*
X89499443Y-68001881D01*
X89499500Y-68005635D01*
X89499500Y-103494363D01*
X89499443Y-103498117D01*
X89499329Y-103501881D01*
X89499160Y-103505614D01*
X89481954Y-103790054D01*
X89481275Y-103797523D01*
X89480373Y-103804947D01*
X89479247Y-103812343D01*
X89428893Y-104087117D01*
X89427319Y-104094449D01*
X89425530Y-104101705D01*
X89423520Y-104108911D01*
X89340421Y-104375586D01*
X89337980Y-104382663D01*
X89335321Y-104389675D01*
X89332452Y-104396600D01*
X89217816Y-104651308D01*
X89214543Y-104658031D01*
X89211062Y-104664665D01*
X89207377Y-104671200D01*
X89062863Y-104910257D01*
X89058807Y-104916530D01*
X89054549Y-104922699D01*
X89050117Y-104928723D01*
X88877837Y-105148621D01*
X88873038Y-105154379D01*
X88868072Y-105159984D01*
X88862941Y-105165434D01*
X88665434Y-105362941D01*
X88659984Y-105368072D01*
X88654379Y-105373038D01*
X88648621Y-105377837D01*
X88428723Y-105550117D01*
X88422699Y-105554549D01*
X88416530Y-105558807D01*
X88410255Y-105562863D01*
X88171192Y-105707381D01*
X88164665Y-105711062D01*
X88158031Y-105714543D01*
X88151308Y-105717816D01*
X87896600Y-105832452D01*
X87889675Y-105835321D01*
X87882663Y-105837980D01*
X87875586Y-105840421D01*
X87608911Y-105923520D01*
X87601708Y-105925529D01*
X87594439Y-105927321D01*
X87587117Y-105928893D01*
X87312343Y-105979247D01*
X87304947Y-105980373D01*
X87297523Y-105981275D01*
X87290054Y-105981954D01*
X87005614Y-105999160D01*
X87001881Y-105999329D01*
X86998117Y-105999443D01*
X86994363Y-105999500D01*
X68005637Y-105999500D01*
X68001884Y-105999443D01*
X67998119Y-105999329D01*
X67994385Y-105999160D01*
X67709944Y-105981954D01*
X67702475Y-105981275D01*
X67695051Y-105980373D01*
X67687655Y-105979247D01*
X67412881Y-105928893D01*
X67405566Y-105927322D01*
X67398282Y-105925526D01*
X67391087Y-105923520D01*
X67124407Y-105840420D01*
X67117334Y-105837980D01*
X67110310Y-105835316D01*
X67103420Y-105832461D01*
X67048880Y-105807915D01*
X66954096Y-105765255D01*
X66954096Y-105765256D01*
X66848683Y-105717813D01*
X66841951Y-105714535D01*
X66835324Y-105711057D01*
X66828820Y-105707389D01*
X66589727Y-105562854D01*
X66583483Y-105558817D01*
X66577283Y-105554538D01*
X66571275Y-105550117D01*
X66351377Y-105377837D01*
X66345619Y-105373038D01*
X66340014Y-105368072D01*
X66334564Y-105362941D01*
X66137057Y-105165434D01*
X66131926Y-105159984D01*
X66126960Y-105154379D01*
X66122161Y-105148621D01*
X65949872Y-104928711D01*
X65945444Y-104922691D01*
X65941192Y-104916532D01*
X65937147Y-104910275D01*
X65792602Y-104671167D01*
X65788941Y-104664674D01*
X65785463Y-104658047D01*
X65782191Y-104651329D01*
X65667532Y-104396567D01*
X65664672Y-104389662D01*
X65662018Y-104382663D01*
X65659581Y-104375599D01*
X65576479Y-104108916D01*
X65574468Y-104101703D01*
X65572677Y-104094437D01*
X65571108Y-104087134D01*
X65520750Y-103812339D01*
X65519627Y-103804965D01*
X65518719Y-103797487D01*
X65518046Y-103790082D01*
X65500837Y-103505575D01*
X65500669Y-103501848D01*
X65500556Y-103498084D01*
X65500500Y-103494363D01*
X65500500Y-79927525D01*
X65949500Y-79927525D01*
X65949500Y-80072475D01*
X65960823Y-80114733D01*
X65978378Y-80180249D01*
X65987017Y-80212488D01*
X65987018Y-80212491D01*
X66057635Y-80334802D01*
X66059123Y-80337568D01*
X66059353Y-80337877D01*
X66161985Y-80440509D01*
X66162674Y-80441005D01*
X66165178Y-80442353D01*
X66284069Y-80510995D01*
X66289268Y-80514224D01*
X66290561Y-80514888D01*
X66294014Y-80516089D01*
X66295038Y-80516531D01*
X66295039Y-80516532D01*
X66795303Y-80732630D01*
X66833811Y-80758782D01*
X66865541Y-80790512D01*
X66866056Y-80790890D01*
X66868666Y-80792295D01*
X66934004Y-80830017D01*
X66934011Y-80830021D01*
X67010438Y-80850500D01*
X68272408Y-80850500D01*
X68339447Y-80870185D01*
X68344481Y-80873597D01*
X68559940Y-81027496D01*
X68607503Y-81061469D01*
X68633574Y-81074566D01*
X68643718Y-81081891D01*
X68656766Y-81088866D01*
X68656768Y-81088866D01*
X68656769Y-81088867D01*
X68656770Y-81088868D01*
X68660614Y-81089632D01*
X68667025Y-81091297D01*
X68667071Y-81091116D01*
X68670874Y-81092076D01*
X68670878Y-81092078D01*
X68675505Y-81092940D01*
X68702227Y-81097919D01*
X68703708Y-81098204D01*
X68707614Y-81098981D01*
X68710339Y-81099703D01*
X68715248Y-81100499D01*
X68715250Y-81100500D01*
X68715252Y-81100500D01*
X68720294Y-81101318D01*
X68721831Y-81101585D01*
X68721912Y-81101585D01*
X68721914Y-81101586D01*
X68721915Y-81101585D01*
X68725379Y-81101616D01*
X68738732Y-81100500D01*
X69458876Y-81100500D01*
X69466742Y-81098114D01*
X69469568Y-81097552D01*
X69513229Y-81088868D01*
X69513229Y-81088867D01*
X69513231Y-81088867D01*
X69579552Y-81044552D01*
X69623867Y-80978231D01*
X69623867Y-80978229D01*
X69623868Y-80978229D01*
X69635072Y-80921896D01*
X69635500Y-80919931D01*
X69635500Y-80215801D01*
X69655185Y-80148762D01*
X69707989Y-80103007D01*
X69777147Y-80093063D01*
X69785868Y-80094637D01*
X69788644Y-80095241D01*
X69798401Y-80097364D01*
X69833342Y-80102389D01*
X69873723Y-80105277D01*
X69876829Y-80105500D01*
X70127169Y-80105500D01*
X70127170Y-80105500D01*
X70130436Y-80105324D01*
X70159839Y-80103748D01*
X70186207Y-80100912D01*
X70218500Y-80095677D01*
X70218508Y-80095675D01*
X70220138Y-80095411D01*
X70220268Y-80096213D01*
X70286765Y-80102668D01*
X70341619Y-80145944D01*
X70364369Y-80212007D01*
X70364500Y-80217714D01*
X70364500Y-80919752D01*
X70376131Y-80978229D01*
X70376132Y-80978230D01*
X70379024Y-80983641D01*
X70382917Y-80988385D01*
X70420447Y-81044552D01*
X70462952Y-81072953D01*
X70476613Y-81082081D01*
X70481358Y-81085975D01*
X70486770Y-81088868D01*
X70537612Y-81098981D01*
X70540337Y-81099703D01*
X70545249Y-81100500D01*
X71284750Y-81100500D01*
X71292225Y-81100500D01*
X71305378Y-81097085D01*
X71310682Y-81096470D01*
X71310684Y-81096470D01*
X71316251Y-81095180D01*
X71325348Y-81093075D01*
X71325544Y-81093924D01*
X71327758Y-81093561D01*
X71337393Y-81090638D01*
X71349208Y-81087678D01*
X71352539Y-81087015D01*
X71376413Y-81068727D01*
X71392495Y-81061471D01*
X71392495Y-81061470D01*
X71392496Y-81061470D01*
X71655520Y-80873597D01*
X71721513Y-80850649D01*
X71727593Y-80850500D01*
X73272408Y-80850500D01*
X73339447Y-80870185D01*
X73344481Y-80873597D01*
X73559940Y-81027496D01*
X73607503Y-81061469D01*
X73633574Y-81074566D01*
X73643718Y-81081891D01*
X73656766Y-81088866D01*
X73656768Y-81088866D01*
X73656769Y-81088867D01*
X73656770Y-81088868D01*
X73660614Y-81089632D01*
X73667025Y-81091297D01*
X73667071Y-81091116D01*
X73670874Y-81092076D01*
X73670878Y-81092078D01*
X73675505Y-81092940D01*
X73702227Y-81097919D01*
X73703708Y-81098204D01*
X73707614Y-81098981D01*
X73710339Y-81099703D01*
X73715248Y-81100499D01*
X73715250Y-81100500D01*
X73715252Y-81100500D01*
X73720294Y-81101318D01*
X73721831Y-81101585D01*
X73721912Y-81101585D01*
X73721914Y-81101586D01*
X73721915Y-81101585D01*
X73725379Y-81101616D01*
X73738732Y-81100500D01*
X74458876Y-81100500D01*
X74466742Y-81098114D01*
X74469568Y-81097552D01*
X74513229Y-81088868D01*
X74513229Y-81088867D01*
X74513231Y-81088867D01*
X74579552Y-81044552D01*
X74623867Y-80978231D01*
X74623867Y-80978229D01*
X74623868Y-80978229D01*
X74635072Y-80921896D01*
X74635500Y-80919931D01*
X74635500Y-80180065D01*
X74635069Y-80178082D01*
X74626063Y-80132806D01*
X74624174Y-80097563D01*
X74626044Y-80076666D01*
X74645834Y-80019754D01*
X74649523Y-80014125D01*
X74665553Y-79994417D01*
X74669719Y-79990251D01*
X74687206Y-79972765D01*
X74732585Y-79869991D01*
X74735500Y-79844865D01*
X74735499Y-79230260D01*
X74755183Y-79163222D01*
X74807987Y-79117467D01*
X74820667Y-79112783D01*
X74769685Y-79156961D01*
X74750000Y-79224000D01*
X74750000Y-80125945D01*
X74761228Y-80177506D01*
X74807007Y-80230290D01*
X74874055Y-80249945D01*
X75248959Y-80249779D01*
X75277419Y-80246456D01*
X75338135Y-80211882D01*
X75370521Y-80149971D01*
X75375040Y-80127252D01*
X75364500Y-80180247D01*
X75364500Y-80180249D01*
X75364500Y-80180251D01*
X75364500Y-80919752D01*
X75376131Y-80978229D01*
X75376132Y-80978230D01*
X75379024Y-80983641D01*
X75382917Y-80988385D01*
X75420447Y-81044552D01*
X75462952Y-81072953D01*
X75476613Y-81082081D01*
X75481358Y-81085975D01*
X75486770Y-81088868D01*
X75537612Y-81098981D01*
X75540337Y-81099703D01*
X75545249Y-81100500D01*
X76284750Y-81100500D01*
X76292225Y-81100500D01*
X76305378Y-81097085D01*
X76310682Y-81096470D01*
X76310684Y-81096470D01*
X76316251Y-81095180D01*
X76325348Y-81093075D01*
X76325544Y-81093924D01*
X76327758Y-81093561D01*
X76337393Y-81090638D01*
X76349208Y-81087678D01*
X76352539Y-81087015D01*
X76376413Y-81068727D01*
X76392495Y-81061471D01*
X76392495Y-81061470D01*
X76392496Y-81061470D01*
X76655520Y-80873597D01*
X76721513Y-80850649D01*
X76727593Y-80850500D01*
X78272408Y-80850500D01*
X78339447Y-80870185D01*
X78344481Y-80873597D01*
X78559940Y-81027496D01*
X78607503Y-81061469D01*
X78633574Y-81074566D01*
X78643718Y-81081891D01*
X78656766Y-81088866D01*
X78656768Y-81088866D01*
X78656769Y-81088867D01*
X78656770Y-81088868D01*
X78660614Y-81089632D01*
X78667025Y-81091297D01*
X78667071Y-81091116D01*
X78670874Y-81092076D01*
X78670878Y-81092078D01*
X78675505Y-81092940D01*
X78702227Y-81097919D01*
X78703708Y-81098204D01*
X78707614Y-81098981D01*
X78710339Y-81099703D01*
X78715248Y-81100499D01*
X78715250Y-81100500D01*
X78715252Y-81100500D01*
X78720294Y-81101318D01*
X78721831Y-81101585D01*
X78721912Y-81101585D01*
X78721914Y-81101586D01*
X78721915Y-81101585D01*
X78725379Y-81101616D01*
X78738732Y-81100500D01*
X79458876Y-81100500D01*
X79466742Y-81098114D01*
X79469568Y-81097552D01*
X79513229Y-81088868D01*
X79513229Y-81088867D01*
X79513231Y-81088867D01*
X79579552Y-81044552D01*
X79623867Y-80978231D01*
X79623867Y-80978229D01*
X79623868Y-80978229D01*
X79635072Y-80921896D01*
X79635500Y-80919931D01*
X79635500Y-80215801D01*
X79655185Y-80148762D01*
X79707989Y-80103007D01*
X79777147Y-80093063D01*
X79785868Y-80094637D01*
X79788644Y-80095241D01*
X79798401Y-80097364D01*
X79833342Y-80102389D01*
X79873723Y-80105277D01*
X79876829Y-80105500D01*
X80127169Y-80105500D01*
X80127170Y-80105500D01*
X80130436Y-80105324D01*
X80159839Y-80103748D01*
X80186207Y-80100912D01*
X80218500Y-80095677D01*
X80218508Y-80095675D01*
X80220138Y-80095411D01*
X80220268Y-80096213D01*
X80286765Y-80102668D01*
X80341619Y-80145944D01*
X80364369Y-80212007D01*
X80364500Y-80217714D01*
X80364500Y-80919752D01*
X80376131Y-80978229D01*
X80376132Y-80978230D01*
X80379024Y-80983641D01*
X80382917Y-80988385D01*
X80420447Y-81044552D01*
X80462952Y-81072953D01*
X80476613Y-81082081D01*
X80481358Y-81085975D01*
X80486770Y-81088868D01*
X80537612Y-81098981D01*
X80540337Y-81099703D01*
X80545249Y-81100500D01*
X81284750Y-81100500D01*
X81292225Y-81100500D01*
X81305378Y-81097085D01*
X81310682Y-81096470D01*
X81310684Y-81096470D01*
X81316251Y-81095180D01*
X81325348Y-81093075D01*
X81325544Y-81093924D01*
X81327758Y-81093561D01*
X81337393Y-81090638D01*
X81349208Y-81087678D01*
X81352539Y-81087015D01*
X81376413Y-81068727D01*
X81392495Y-81061471D01*
X81392495Y-81061470D01*
X81392496Y-81061470D01*
X81655520Y-80873597D01*
X81721513Y-80850649D01*
X81727593Y-80850500D01*
X83272408Y-80850500D01*
X83339447Y-80870185D01*
X83344481Y-80873597D01*
X83559940Y-81027496D01*
X83607503Y-81061469D01*
X83633574Y-81074566D01*
X83643718Y-81081891D01*
X83656766Y-81088866D01*
X83656768Y-81088866D01*
X83656769Y-81088867D01*
X83656770Y-81088868D01*
X83660614Y-81089632D01*
X83667025Y-81091297D01*
X83667071Y-81091116D01*
X83670874Y-81092076D01*
X83670878Y-81092078D01*
X83675505Y-81092940D01*
X83702227Y-81097919D01*
X83703708Y-81098204D01*
X83707614Y-81098981D01*
X83710339Y-81099703D01*
X83715248Y-81100499D01*
X83715250Y-81100500D01*
X83715252Y-81100500D01*
X83720294Y-81101318D01*
X83721831Y-81101585D01*
X83721912Y-81101585D01*
X83721914Y-81101586D01*
X83721915Y-81101585D01*
X83725379Y-81101616D01*
X83738732Y-81100500D01*
X84458876Y-81100500D01*
X84466742Y-81098114D01*
X84469568Y-81097552D01*
X84513229Y-81088868D01*
X84513229Y-81088867D01*
X84513231Y-81088867D01*
X84579552Y-81044552D01*
X84623867Y-80978231D01*
X84623867Y-80978229D01*
X84623868Y-80978229D01*
X84635072Y-80921896D01*
X84635500Y-80919931D01*
X84635500Y-80215801D01*
X84655185Y-80148762D01*
X84707989Y-80103007D01*
X84777147Y-80093063D01*
X84785868Y-80094637D01*
X84788644Y-80095241D01*
X84798401Y-80097364D01*
X84833342Y-80102389D01*
X84873723Y-80105277D01*
X84876829Y-80105500D01*
X84876830Y-80105500D01*
X85112667Y-80105500D01*
X85112668Y-80105500D01*
X85145345Y-80103747D01*
X85171716Y-80100910D01*
X85204010Y-80095674D01*
X85211568Y-80094029D01*
X85211571Y-80094027D01*
X85214125Y-80093472D01*
X85283818Y-80098447D01*
X85339757Y-80140311D01*
X85364183Y-80205772D01*
X85364500Y-80214635D01*
X85364500Y-80919753D01*
X85366170Y-80928150D01*
X85367244Y-80938833D01*
X85367729Y-80938777D01*
X85368530Y-80945690D01*
X85371255Y-80957457D01*
X85374167Y-80968363D01*
X85376129Y-80978227D01*
X85379024Y-80983643D01*
X85382918Y-80988388D01*
X85386348Y-80993522D01*
X85396265Y-81011399D01*
X85403529Y-81027495D01*
X85591403Y-81290519D01*
X85614351Y-81356512D01*
X85614500Y-81362592D01*
X85614500Y-83637406D01*
X85594815Y-83704445D01*
X85591403Y-83709479D01*
X85403536Y-83972492D01*
X85403524Y-83972513D01*
X85390428Y-83998580D01*
X85383110Y-84008713D01*
X85376131Y-84021769D01*
X85375365Y-84025620D01*
X85373708Y-84032033D01*
X85373881Y-84032077D01*
X85372920Y-84035877D01*
X85367088Y-84067182D01*
X85366806Y-84068645D01*
X85363957Y-84082972D01*
X85363413Y-84086799D01*
X85363382Y-84090381D01*
X85364500Y-84103737D01*
X85364500Y-84784198D01*
X85344815Y-84851237D01*
X85292011Y-84896992D01*
X85222853Y-84906936D01*
X85214146Y-84905365D01*
X85201588Y-84902633D01*
X85166647Y-84897610D01*
X85166649Y-84897610D01*
X85123170Y-84894500D01*
X84872831Y-84894500D01*
X84872830Y-84894500D01*
X84840182Y-84896249D01*
X84827526Y-84897610D01*
X84813824Y-84899083D01*
X84813815Y-84899084D01*
X84813790Y-84899087D01*
X84779916Y-84904577D01*
X84779799Y-84903856D01*
X84713000Y-84897235D01*
X84658234Y-84853847D01*
X84635620Y-84787738D01*
X84635500Y-84782284D01*
X84635500Y-84080063D01*
X84635069Y-84078081D01*
X84623868Y-84021770D01*
X84620975Y-84016358D01*
X84617081Y-84011613D01*
X84613194Y-84005796D01*
X84579552Y-83955447D01*
X84537044Y-83927044D01*
X84523385Y-83917917D01*
X84518641Y-83914024D01*
X84513230Y-83911132D01*
X84513229Y-83911131D01*
X84454752Y-83899500D01*
X84454750Y-83899500D01*
X83715246Y-83899500D01*
X83706837Y-83901172D01*
X83696165Y-83902244D01*
X83696222Y-83902729D01*
X83689305Y-83903530D01*
X83677541Y-83906254D01*
X83666631Y-83909169D01*
X83656770Y-83911130D01*
X83651354Y-83914025D01*
X83646616Y-83917914D01*
X83641484Y-83921343D01*
X83623609Y-83931260D01*
X83607510Y-83938526D01*
X83607497Y-83938533D01*
X83344481Y-84126403D01*
X83278487Y-84149351D01*
X83272407Y-84149500D01*
X81727592Y-84149500D01*
X81660553Y-84129815D01*
X81655539Y-84126417D01*
X81392496Y-83938530D01*
X81366421Y-83925430D01*
X81356286Y-83918110D01*
X81343227Y-83911130D01*
X81339377Y-83910364D01*
X81332977Y-83908712D01*
X81332934Y-83908884D01*
X81329120Y-83907920D01*
X81297736Y-83902072D01*
X81296276Y-83901791D01*
X81282023Y-83898957D01*
X81278208Y-83898414D01*
X81274632Y-83898383D01*
X81261281Y-83899500D01*
X80545252Y-83899500D01*
X80545247Y-83899500D01*
X80486770Y-83911131D01*
X80486769Y-83911131D01*
X80486768Y-83911132D01*
X80481355Y-83914024D01*
X80476614Y-83917916D01*
X80420447Y-83955446D01*
X80420446Y-83955447D01*
X80382916Y-84011614D01*
X80379024Y-84016355D01*
X80376132Y-84021768D01*
X80376132Y-84021769D01*
X80376131Y-84021770D01*
X80364931Y-84078081D01*
X80364500Y-84080249D01*
X80364500Y-84784198D01*
X80344815Y-84851237D01*
X80292011Y-84896992D01*
X80222853Y-84906936D01*
X80214146Y-84905365D01*
X80201588Y-84902633D01*
X80166647Y-84897610D01*
X80166649Y-84897610D01*
X80123170Y-84894500D01*
X79872831Y-84894500D01*
X79872830Y-84894500D01*
X79840182Y-84896249D01*
X79827526Y-84897610D01*
X79813824Y-84899083D01*
X79813815Y-84899084D01*
X79813790Y-84899087D01*
X79779916Y-84904577D01*
X79779799Y-84903856D01*
X79713000Y-84897235D01*
X79658234Y-84853847D01*
X79635620Y-84787738D01*
X79635500Y-84782284D01*
X79635500Y-84080063D01*
X79635069Y-84078081D01*
X79623868Y-84021770D01*
X79620975Y-84016358D01*
X79617081Y-84011613D01*
X79613194Y-84005796D01*
X79579552Y-83955447D01*
X79537044Y-83927044D01*
X79523385Y-83917917D01*
X79518641Y-83914024D01*
X79513230Y-83911132D01*
X79513229Y-83911131D01*
X79454752Y-83899500D01*
X79454750Y-83899500D01*
X78715246Y-83899500D01*
X78706837Y-83901172D01*
X78696165Y-83902244D01*
X78696222Y-83902729D01*
X78689305Y-83903530D01*
X78677541Y-83906254D01*
X78666631Y-83909169D01*
X78656770Y-83911130D01*
X78651354Y-83914025D01*
X78646616Y-83917914D01*
X78641484Y-83921343D01*
X78623609Y-83931260D01*
X78607510Y-83938526D01*
X78607497Y-83938533D01*
X78344481Y-84126403D01*
X78278487Y-84149351D01*
X78272407Y-84149500D01*
X76727592Y-84149500D01*
X76660553Y-84129815D01*
X76655539Y-84126417D01*
X76392496Y-83938530D01*
X76366421Y-83925430D01*
X76356286Y-83918110D01*
X76343227Y-83911130D01*
X76339377Y-83910364D01*
X76332977Y-83908712D01*
X76332934Y-83908884D01*
X76329120Y-83907920D01*
X76297736Y-83902072D01*
X76296276Y-83901791D01*
X76282023Y-83898957D01*
X76278208Y-83898414D01*
X76274632Y-83898383D01*
X76261281Y-83899500D01*
X75545252Y-83899500D01*
X75545247Y-83899500D01*
X75486770Y-83911131D01*
X75486769Y-83911131D01*
X75486768Y-83911132D01*
X75481355Y-83914024D01*
X75476614Y-83917916D01*
X75420447Y-83955446D01*
X75420446Y-83955447D01*
X75382916Y-84011614D01*
X75379024Y-84016355D01*
X75376132Y-84021768D01*
X75376132Y-84021769D01*
X75376131Y-84021770D01*
X75364931Y-84078081D01*
X75364500Y-84080249D01*
X75364500Y-84784198D01*
X75344815Y-84851237D01*
X75292011Y-84896992D01*
X75222853Y-84906936D01*
X75214146Y-84905365D01*
X75201588Y-84902633D01*
X75166647Y-84897610D01*
X75166649Y-84897610D01*
X75123170Y-84894500D01*
X74872831Y-84894500D01*
X74872830Y-84894500D01*
X74840182Y-84896249D01*
X74827526Y-84897610D01*
X74813824Y-84899083D01*
X74813815Y-84899084D01*
X74813790Y-84899087D01*
X74779916Y-84904577D01*
X74779799Y-84903856D01*
X74713000Y-84897235D01*
X74658234Y-84853847D01*
X74635620Y-84787738D01*
X74635500Y-84782284D01*
X74635500Y-84080063D01*
X74635069Y-84078081D01*
X74623868Y-84021770D01*
X74620975Y-84016358D01*
X74617081Y-84011613D01*
X74613194Y-84005796D01*
X74579552Y-83955447D01*
X74537044Y-83927044D01*
X74523385Y-83917917D01*
X74518641Y-83914024D01*
X74513230Y-83911132D01*
X74513229Y-83911131D01*
X74454752Y-83899500D01*
X74454750Y-83899500D01*
X73715246Y-83899500D01*
X73706837Y-83901172D01*
X73696165Y-83902244D01*
X73696222Y-83902729D01*
X73689305Y-83903530D01*
X73677541Y-83906254D01*
X73666631Y-83909169D01*
X73656770Y-83911130D01*
X73651354Y-83914025D01*
X73646616Y-83917914D01*
X73641484Y-83921343D01*
X73623609Y-83931260D01*
X73607510Y-83938526D01*
X73607497Y-83938533D01*
X73344481Y-84126403D01*
X73278487Y-84149351D01*
X73272407Y-84149500D01*
X71727592Y-84149500D01*
X71660553Y-84129815D01*
X71655539Y-84126417D01*
X71392496Y-83938530D01*
X71366421Y-83925430D01*
X71356286Y-83918110D01*
X71343227Y-83911130D01*
X71339377Y-83910364D01*
X71332977Y-83908712D01*
X71332934Y-83908884D01*
X71329120Y-83907920D01*
X71297736Y-83902072D01*
X71296276Y-83901791D01*
X71282023Y-83898957D01*
X71278208Y-83898414D01*
X71274632Y-83898383D01*
X71261281Y-83899500D01*
X70545252Y-83899500D01*
X70545247Y-83899500D01*
X70486770Y-83911131D01*
X70486769Y-83911131D01*
X70486768Y-83911132D01*
X70481355Y-83914024D01*
X70476614Y-83917916D01*
X70420447Y-83955446D01*
X70420446Y-83955447D01*
X70382916Y-84011614D01*
X70379024Y-84016355D01*
X70376132Y-84021768D01*
X70376132Y-84021769D01*
X70376131Y-84021770D01*
X70364931Y-84078081D01*
X70364500Y-84080249D01*
X70364500Y-84819750D01*
X70365142Y-84822974D01*
X70365143Y-84822990D01*
X70365145Y-84822990D01*
X70373937Y-84867194D01*
X70375825Y-84902442D01*
X70373954Y-84923338D01*
X70354164Y-84980242D01*
X70350482Y-84985861D01*
X70334452Y-85005575D01*
X70312793Y-85027235D01*
X70267414Y-85130007D01*
X70266844Y-85132711D01*
X70266589Y-85137124D01*
X70264500Y-85155127D01*
X70264500Y-85769735D01*
X70244815Y-85836774D01*
X70192011Y-85882529D01*
X70179335Y-85887212D01*
X70230315Y-85843039D01*
X70250000Y-85776000D01*
X70250000Y-84124000D01*
X70238794Y-84072489D01*
X70193039Y-84019685D01*
X70126000Y-84000000D01*
X69759500Y-84000000D01*
X69707989Y-84011206D01*
X69655185Y-84056961D01*
X69635500Y-84124000D01*
X69635500Y-84080249D01*
X69635500Y-84080063D01*
X69635069Y-84078081D01*
X69623868Y-84021770D01*
X69620975Y-84016358D01*
X69617081Y-84011613D01*
X69613194Y-84005796D01*
X69579552Y-83955447D01*
X69537044Y-83927044D01*
X69523385Y-83917917D01*
X69518641Y-83914024D01*
X69513230Y-83911132D01*
X69513229Y-83911131D01*
X69454752Y-83899500D01*
X69454750Y-83899500D01*
X68715246Y-83899500D01*
X68706837Y-83901172D01*
X68696165Y-83902244D01*
X68696222Y-83902729D01*
X68689305Y-83903530D01*
X68677541Y-83906254D01*
X68666631Y-83909169D01*
X68656770Y-83911130D01*
X68651354Y-83914025D01*
X68646616Y-83917914D01*
X68641484Y-83921343D01*
X68623609Y-83931260D01*
X68607510Y-83938526D01*
X68607497Y-83938533D01*
X68344481Y-84126403D01*
X68278487Y-84149351D01*
X68272407Y-84149500D01*
X68010438Y-84149500D01*
X67972224Y-84159739D01*
X67972221Y-84159739D01*
X67934010Y-84169978D01*
X67933939Y-84170008D01*
X67933130Y-84170485D01*
X67865508Y-84209526D01*
X67865483Y-84209544D01*
X67865481Y-84209545D01*
X67009545Y-85065481D01*
X67009544Y-85065483D01*
X67009526Y-85065508D01*
X66970485Y-85133130D01*
X66970009Y-85133937D01*
X66969979Y-85134007D01*
X66969144Y-85137124D01*
X66964300Y-85155205D01*
X66949500Y-85210438D01*
X66949500Y-89789562D01*
X66958374Y-89822681D01*
X66970168Y-89866697D01*
X66975500Y-89882848D01*
X66976606Y-89887275D01*
X66989622Y-89900013D01*
X67009537Y-89934507D01*
X67009541Y-89934512D01*
X67865541Y-90790512D01*
X67866056Y-90790890D01*
X67868666Y-90792295D01*
X67934004Y-90830017D01*
X67934011Y-90830021D01*
X68010438Y-90850500D01*
X68272408Y-90850500D01*
X68339447Y-90870185D01*
X68344481Y-90873597D01*
X68559940Y-91027496D01*
X68607503Y-91061469D01*
X68633574Y-91074566D01*
X68643718Y-91081891D01*
X68656766Y-91088866D01*
X68656768Y-91088866D01*
X68656769Y-91088867D01*
X68656770Y-91088868D01*
X68660614Y-91089632D01*
X68667025Y-91091297D01*
X68667071Y-91091116D01*
X68670874Y-91092076D01*
X68670878Y-91092078D01*
X68675505Y-91092940D01*
X68702227Y-91097919D01*
X68703708Y-91098204D01*
X68707614Y-91098981D01*
X68710339Y-91099703D01*
X68715248Y-91100499D01*
X68715250Y-91100500D01*
X68715252Y-91100500D01*
X68720294Y-91101318D01*
X68721831Y-91101585D01*
X68721912Y-91101585D01*
X68721914Y-91101586D01*
X68721915Y-91101585D01*
X68725379Y-91101616D01*
X68738732Y-91100500D01*
X69458876Y-91100500D01*
X69466742Y-91098114D01*
X69469568Y-91097552D01*
X69513229Y-91088868D01*
X69513229Y-91088867D01*
X69513231Y-91088867D01*
X69579552Y-91044552D01*
X69623867Y-90978231D01*
X69623867Y-90978229D01*
X69623868Y-90978229D01*
X69635072Y-90921896D01*
X69635500Y-90919931D01*
X69635500Y-90215801D01*
X69655185Y-90148762D01*
X69707989Y-90103007D01*
X69777147Y-90093063D01*
X69785868Y-90094637D01*
X69789426Y-90095411D01*
X69798401Y-90097364D01*
X69833342Y-90102389D01*
X69873723Y-90105277D01*
X69876829Y-90105500D01*
X70127169Y-90105500D01*
X70127170Y-90105500D01*
X70130436Y-90105324D01*
X70159839Y-90103748D01*
X70186207Y-90100912D01*
X70218500Y-90095677D01*
X70218508Y-90095675D01*
X70220138Y-90095411D01*
X70220268Y-90096213D01*
X70286765Y-90102668D01*
X70341619Y-90145944D01*
X70364369Y-90212007D01*
X70364500Y-90217714D01*
X70364500Y-90919752D01*
X70376131Y-90978229D01*
X70376132Y-90978230D01*
X70379024Y-90983641D01*
X70382917Y-90988385D01*
X70420447Y-91044552D01*
X70462952Y-91072953D01*
X70476613Y-91082081D01*
X70481358Y-91085975D01*
X70486770Y-91088868D01*
X70537612Y-91098981D01*
X70540337Y-91099703D01*
X70545249Y-91100500D01*
X71284750Y-91100500D01*
X71292225Y-91100500D01*
X71305378Y-91097085D01*
X71310682Y-91096470D01*
X71310684Y-91096470D01*
X71316251Y-91095180D01*
X71325348Y-91093075D01*
X71325544Y-91093924D01*
X71327758Y-91093561D01*
X71337393Y-91090638D01*
X71349208Y-91087678D01*
X71352539Y-91087015D01*
X71376413Y-91068727D01*
X71392495Y-91061471D01*
X71392495Y-91061470D01*
X71392496Y-91061470D01*
X71655520Y-90873597D01*
X71721513Y-90850649D01*
X71727593Y-90850500D01*
X73272408Y-90850500D01*
X73339447Y-90870185D01*
X73344481Y-90873597D01*
X73559940Y-91027496D01*
X73607503Y-91061469D01*
X73633574Y-91074566D01*
X73643718Y-91081891D01*
X73656766Y-91088866D01*
X73656768Y-91088866D01*
X73656769Y-91088867D01*
X73656770Y-91088868D01*
X73660614Y-91089632D01*
X73667025Y-91091297D01*
X73667071Y-91091116D01*
X73670874Y-91092076D01*
X73670878Y-91092078D01*
X73675505Y-91092940D01*
X73702227Y-91097919D01*
X73703708Y-91098204D01*
X73707614Y-91098981D01*
X73710339Y-91099703D01*
X73715248Y-91100499D01*
X73715250Y-91100500D01*
X73715252Y-91100500D01*
X73720294Y-91101318D01*
X73721831Y-91101585D01*
X73721912Y-91101585D01*
X73721914Y-91101586D01*
X73721915Y-91101585D01*
X73725379Y-91101616D01*
X73738732Y-91100500D01*
X74458876Y-91100500D01*
X74466742Y-91098114D01*
X74469568Y-91097552D01*
X74513229Y-91088868D01*
X74513229Y-91088867D01*
X74513231Y-91088867D01*
X74579552Y-91044552D01*
X74623867Y-90978231D01*
X74623867Y-90978229D01*
X74623868Y-90978229D01*
X74635072Y-90921896D01*
X74635500Y-90919931D01*
X74635500Y-90215801D01*
X74655185Y-90148762D01*
X74707989Y-90103007D01*
X74777147Y-90093063D01*
X74785868Y-90094637D01*
X74789426Y-90095411D01*
X74798401Y-90097364D01*
X74833342Y-90102389D01*
X74873723Y-90105277D01*
X74876829Y-90105500D01*
X75127169Y-90105500D01*
X75127170Y-90105500D01*
X75130436Y-90105324D01*
X75159839Y-90103748D01*
X75186207Y-90100912D01*
X75218500Y-90095677D01*
X75218508Y-90095675D01*
X75220138Y-90095411D01*
X75220268Y-90096213D01*
X75286765Y-90102668D01*
X75341619Y-90145944D01*
X75364369Y-90212007D01*
X75364500Y-90217714D01*
X75364500Y-90919752D01*
X75376131Y-90978229D01*
X75376132Y-90978230D01*
X75379024Y-90983641D01*
X75382917Y-90988385D01*
X75420447Y-91044552D01*
X75462952Y-91072953D01*
X75476613Y-91082081D01*
X75481358Y-91085975D01*
X75486770Y-91088868D01*
X75537612Y-91098981D01*
X75540337Y-91099703D01*
X75545249Y-91100500D01*
X76284750Y-91100500D01*
X76292225Y-91100500D01*
X76305378Y-91097085D01*
X76310682Y-91096470D01*
X76310684Y-91096470D01*
X76316251Y-91095180D01*
X76325348Y-91093075D01*
X76325544Y-91093924D01*
X76327758Y-91093561D01*
X76337393Y-91090638D01*
X76349208Y-91087678D01*
X76352539Y-91087015D01*
X76376413Y-91068727D01*
X76392495Y-91061471D01*
X76392495Y-91061470D01*
X76392496Y-91061470D01*
X76655520Y-90873597D01*
X76721513Y-90850649D01*
X76727593Y-90850500D01*
X78272408Y-90850500D01*
X78339447Y-90870185D01*
X78344481Y-90873597D01*
X78559940Y-91027496D01*
X78607503Y-91061469D01*
X78633574Y-91074566D01*
X78643718Y-91081891D01*
X78656766Y-91088866D01*
X78656768Y-91088866D01*
X78656769Y-91088867D01*
X78656770Y-91088868D01*
X78660614Y-91089632D01*
X78667025Y-91091297D01*
X78667071Y-91091116D01*
X78670874Y-91092076D01*
X78670878Y-91092078D01*
X78675505Y-91092940D01*
X78702227Y-91097919D01*
X78703708Y-91098204D01*
X78707614Y-91098981D01*
X78710339Y-91099703D01*
X78715248Y-91100499D01*
X78715250Y-91100500D01*
X78715252Y-91100500D01*
X78720294Y-91101318D01*
X78721831Y-91101585D01*
X78721912Y-91101585D01*
X78721914Y-91101586D01*
X78721915Y-91101585D01*
X78725379Y-91101616D01*
X78738732Y-91100500D01*
X79458876Y-91100500D01*
X79466742Y-91098114D01*
X79469568Y-91097552D01*
X79513229Y-91088868D01*
X79513229Y-91088867D01*
X79513231Y-91088867D01*
X79579552Y-91044552D01*
X79623867Y-90978231D01*
X79623867Y-90978229D01*
X79623868Y-90978229D01*
X79635072Y-90921896D01*
X79635500Y-90919931D01*
X79635500Y-90215801D01*
X79655185Y-90148762D01*
X79707989Y-90103007D01*
X79777147Y-90093063D01*
X79785868Y-90094637D01*
X79789426Y-90095411D01*
X79798401Y-90097364D01*
X79833342Y-90102389D01*
X79873723Y-90105277D01*
X79876829Y-90105500D01*
X80127169Y-90105500D01*
X80127170Y-90105500D01*
X80130436Y-90105324D01*
X80159839Y-90103748D01*
X80186207Y-90100912D01*
X80218500Y-90095677D01*
X80218508Y-90095675D01*
X80220138Y-90095411D01*
X80220268Y-90096213D01*
X80286765Y-90102668D01*
X80341619Y-90145944D01*
X80364369Y-90212007D01*
X80364500Y-90217714D01*
X80364500Y-90919752D01*
X80376131Y-90978229D01*
X80376132Y-90978230D01*
X80379024Y-90983641D01*
X80382917Y-90988385D01*
X80420447Y-91044552D01*
X80462952Y-91072953D01*
X80476613Y-91082081D01*
X80481358Y-91085975D01*
X80486770Y-91088868D01*
X80537612Y-91098981D01*
X80540337Y-91099703D01*
X80545249Y-91100500D01*
X81284750Y-91100500D01*
X81292225Y-91100500D01*
X81305378Y-91097085D01*
X81310682Y-91096470D01*
X81310684Y-91096470D01*
X81316251Y-91095180D01*
X81325348Y-91093075D01*
X81325544Y-91093924D01*
X81327758Y-91093561D01*
X81337393Y-91090638D01*
X81349208Y-91087678D01*
X81352539Y-91087015D01*
X81376413Y-91068727D01*
X81392495Y-91061471D01*
X81392495Y-91061470D01*
X81392496Y-91061470D01*
X81655520Y-90873597D01*
X81721513Y-90850649D01*
X81727593Y-90850500D01*
X83272408Y-90850500D01*
X83339447Y-90870185D01*
X83344481Y-90873597D01*
X83559940Y-91027496D01*
X83607503Y-91061469D01*
X83633574Y-91074566D01*
X83643718Y-91081891D01*
X83656766Y-91088866D01*
X83656768Y-91088866D01*
X83656769Y-91088867D01*
X83656770Y-91088868D01*
X83660614Y-91089632D01*
X83667025Y-91091297D01*
X83667071Y-91091116D01*
X83670874Y-91092076D01*
X83670878Y-91092078D01*
X83675505Y-91092940D01*
X83702227Y-91097919D01*
X83703708Y-91098204D01*
X83707614Y-91098981D01*
X83710339Y-91099703D01*
X83715248Y-91100499D01*
X83715250Y-91100500D01*
X83715252Y-91100500D01*
X83720294Y-91101318D01*
X83721831Y-91101585D01*
X83721912Y-91101585D01*
X83721914Y-91101586D01*
X83721915Y-91101585D01*
X83725379Y-91101616D01*
X83738732Y-91100500D01*
X84458876Y-91100500D01*
X84466742Y-91098114D01*
X84469568Y-91097552D01*
X84513229Y-91088868D01*
X84513229Y-91088867D01*
X84513231Y-91088867D01*
X84579552Y-91044552D01*
X84623867Y-90978231D01*
X84623867Y-90978229D01*
X84623868Y-90978229D01*
X84635072Y-90921896D01*
X84635500Y-90919931D01*
X84635500Y-90215801D01*
X84655185Y-90148762D01*
X84707989Y-90103007D01*
X84777147Y-90093063D01*
X84785868Y-90094637D01*
X84789426Y-90095411D01*
X84798401Y-90097364D01*
X84833342Y-90102389D01*
X84873723Y-90105277D01*
X84876829Y-90105500D01*
X85127169Y-90105500D01*
X85127170Y-90105500D01*
X85130436Y-90105324D01*
X85159839Y-90103748D01*
X85186207Y-90100912D01*
X85218500Y-90095677D01*
X85218508Y-90095675D01*
X85220138Y-90095411D01*
X85220268Y-90096213D01*
X85286765Y-90102668D01*
X85341619Y-90145944D01*
X85364369Y-90212007D01*
X85364500Y-90217714D01*
X85364500Y-90919753D01*
X85366170Y-90928150D01*
X85367244Y-90938833D01*
X85367729Y-90938777D01*
X85368530Y-90945690D01*
X85371255Y-90957457D01*
X85374167Y-90968363D01*
X85376129Y-90978227D01*
X85379024Y-90983643D01*
X85382918Y-90988388D01*
X85386348Y-90993522D01*
X85396265Y-91011399D01*
X85403529Y-91027495D01*
X85591403Y-91290519D01*
X85614351Y-91356512D01*
X85614500Y-91362592D01*
X85614500Y-93637406D01*
X85594815Y-93704445D01*
X85591403Y-93709479D01*
X85403536Y-93972492D01*
X85403524Y-93972513D01*
X85390428Y-93998580D01*
X85383110Y-94008713D01*
X85376131Y-94021769D01*
X85375365Y-94025620D01*
X85373708Y-94032033D01*
X85373881Y-94032077D01*
X85372920Y-94035877D01*
X85367088Y-94067182D01*
X85366806Y-94068645D01*
X85363957Y-94082972D01*
X85363413Y-94086799D01*
X85363382Y-94090381D01*
X85364500Y-94103737D01*
X85364500Y-94734198D01*
X85344815Y-94801237D01*
X85292011Y-94846992D01*
X85222853Y-94856936D01*
X85214146Y-94855365D01*
X85201588Y-94852633D01*
X85166647Y-94847610D01*
X85166649Y-94847610D01*
X85123170Y-94844500D01*
X84872831Y-94844500D01*
X84872830Y-94844500D01*
X84840182Y-94846249D01*
X84827526Y-94847610D01*
X84813824Y-94849083D01*
X84813815Y-94849084D01*
X84813790Y-94849087D01*
X84779916Y-94854577D01*
X84779799Y-94853856D01*
X84713000Y-94847235D01*
X84658234Y-94803847D01*
X84635620Y-94737738D01*
X84635500Y-94732284D01*
X84635500Y-94080063D01*
X84635069Y-94078081D01*
X84623868Y-94021770D01*
X84620975Y-94016358D01*
X84617081Y-94011613D01*
X84613194Y-94005796D01*
X84579552Y-93955447D01*
X84537044Y-93927044D01*
X84523385Y-93917917D01*
X84518641Y-93914024D01*
X84513230Y-93911132D01*
X84513229Y-93911131D01*
X84454752Y-93899500D01*
X84454750Y-93899500D01*
X83715246Y-93899500D01*
X83706837Y-93901172D01*
X83696165Y-93902244D01*
X83696222Y-93902729D01*
X83689305Y-93903530D01*
X83677541Y-93906254D01*
X83666631Y-93909169D01*
X83656770Y-93911130D01*
X83651354Y-93914025D01*
X83646616Y-93917914D01*
X83641484Y-93921343D01*
X83623609Y-93931260D01*
X83607510Y-93938526D01*
X83607497Y-93938533D01*
X83344481Y-94126403D01*
X83278487Y-94149351D01*
X83272407Y-94149500D01*
X81727592Y-94149500D01*
X81660553Y-94129815D01*
X81655539Y-94126417D01*
X81392496Y-93938530D01*
X81366421Y-93925430D01*
X81356286Y-93918110D01*
X81343227Y-93911130D01*
X81339377Y-93910364D01*
X81332977Y-93908712D01*
X81332934Y-93908884D01*
X81329120Y-93907920D01*
X81297736Y-93902072D01*
X81296276Y-93901791D01*
X81282023Y-93898957D01*
X81278208Y-93898414D01*
X81274632Y-93898383D01*
X81261281Y-93899500D01*
X80545252Y-93899500D01*
X80545247Y-93899500D01*
X80486770Y-93911131D01*
X80486769Y-93911131D01*
X80486768Y-93911132D01*
X80481355Y-93914024D01*
X80476614Y-93917916D01*
X80420447Y-93955446D01*
X80420446Y-93955447D01*
X80382916Y-94011614D01*
X80379024Y-94016355D01*
X80376132Y-94021768D01*
X80376132Y-94021769D01*
X80376131Y-94021770D01*
X80364931Y-94078081D01*
X80364500Y-94080249D01*
X80364500Y-94734198D01*
X80344815Y-94801237D01*
X80292011Y-94846992D01*
X80222853Y-94856936D01*
X80214146Y-94855365D01*
X80201588Y-94852633D01*
X80166647Y-94847610D01*
X80166649Y-94847610D01*
X80123170Y-94844500D01*
X79872831Y-94844500D01*
X79872830Y-94844500D01*
X79840182Y-94846249D01*
X79827526Y-94847610D01*
X79813824Y-94849083D01*
X79813815Y-94849084D01*
X79813790Y-94849087D01*
X79779916Y-94854577D01*
X79779799Y-94853856D01*
X79713000Y-94847235D01*
X79658234Y-94803847D01*
X79635620Y-94737738D01*
X79635500Y-94732284D01*
X79635500Y-94080063D01*
X79635069Y-94078081D01*
X79623868Y-94021770D01*
X79620975Y-94016358D01*
X79617081Y-94011613D01*
X79613194Y-94005796D01*
X79579552Y-93955447D01*
X79537044Y-93927044D01*
X79523385Y-93917917D01*
X79518641Y-93914024D01*
X79513230Y-93911132D01*
X79513229Y-93911131D01*
X79454752Y-93899500D01*
X79454750Y-93899500D01*
X78715246Y-93899500D01*
X78706837Y-93901172D01*
X78696165Y-93902244D01*
X78696222Y-93902729D01*
X78689305Y-93903530D01*
X78677541Y-93906254D01*
X78666631Y-93909169D01*
X78656770Y-93911130D01*
X78651354Y-93914025D01*
X78646616Y-93917914D01*
X78641484Y-93921343D01*
X78623609Y-93931260D01*
X78607510Y-93938526D01*
X78607497Y-93938533D01*
X78344481Y-94126403D01*
X78278487Y-94149351D01*
X78272407Y-94149500D01*
X76727592Y-94149500D01*
X76660553Y-94129815D01*
X76655539Y-94126417D01*
X76392496Y-93938530D01*
X76366421Y-93925430D01*
X76356286Y-93918110D01*
X76343227Y-93911130D01*
X76339377Y-93910364D01*
X76332977Y-93908712D01*
X76332934Y-93908884D01*
X76329120Y-93907920D01*
X76297736Y-93902072D01*
X76296276Y-93901791D01*
X76282023Y-93898957D01*
X76278208Y-93898414D01*
X76274632Y-93898383D01*
X76261281Y-93899500D01*
X75545252Y-93899500D01*
X75545247Y-93899500D01*
X75486770Y-93911131D01*
X75486769Y-93911131D01*
X75486768Y-93911132D01*
X75481355Y-93914024D01*
X75476614Y-93917916D01*
X75420447Y-93955446D01*
X75420446Y-93955447D01*
X75382916Y-94011614D01*
X75379024Y-94016355D01*
X75376132Y-94021768D01*
X75376132Y-94021769D01*
X75376131Y-94021770D01*
X75364931Y-94078081D01*
X75364500Y-94080249D01*
X75364500Y-94734198D01*
X75344815Y-94801237D01*
X75292011Y-94846992D01*
X75222853Y-94856936D01*
X75214146Y-94855365D01*
X75201588Y-94852633D01*
X75166647Y-94847610D01*
X75166649Y-94847610D01*
X75123170Y-94844500D01*
X74872831Y-94844500D01*
X74872830Y-94844500D01*
X74840182Y-94846249D01*
X74827526Y-94847610D01*
X74813824Y-94849083D01*
X74813815Y-94849084D01*
X74813790Y-94849087D01*
X74779916Y-94854577D01*
X74779799Y-94853856D01*
X74713000Y-94847235D01*
X74658234Y-94803847D01*
X74635620Y-94737738D01*
X74635500Y-94732284D01*
X74635500Y-94080063D01*
X74635069Y-94078081D01*
X74623868Y-94021770D01*
X74620975Y-94016358D01*
X74617081Y-94011613D01*
X74613194Y-94005796D01*
X74579552Y-93955447D01*
X74537044Y-93927044D01*
X74523385Y-93917917D01*
X74518641Y-93914024D01*
X74513230Y-93911132D01*
X74513229Y-93911131D01*
X74454752Y-93899500D01*
X74454750Y-93899500D01*
X73715246Y-93899500D01*
X73706837Y-93901172D01*
X73696165Y-93902244D01*
X73696222Y-93902729D01*
X73689305Y-93903530D01*
X73677541Y-93906254D01*
X73666631Y-93909169D01*
X73656770Y-93911130D01*
X73651354Y-93914025D01*
X73646616Y-93917914D01*
X73641484Y-93921343D01*
X73623609Y-93931260D01*
X73607510Y-93938526D01*
X73607497Y-93938533D01*
X73344481Y-94126403D01*
X73278487Y-94149351D01*
X73272407Y-94149500D01*
X71727592Y-94149500D01*
X71660553Y-94129815D01*
X71655539Y-94126417D01*
X71392496Y-93938530D01*
X71366421Y-93925430D01*
X71356286Y-93918110D01*
X71343227Y-93911130D01*
X71339377Y-93910364D01*
X71332977Y-93908712D01*
X71332934Y-93908884D01*
X71329120Y-93907920D01*
X71297736Y-93902072D01*
X71296276Y-93901791D01*
X71282023Y-93898957D01*
X71278208Y-93898414D01*
X71274632Y-93898383D01*
X71261281Y-93899500D01*
X70545252Y-93899500D01*
X70545247Y-93899500D01*
X70486770Y-93911131D01*
X70486769Y-93911131D01*
X70486768Y-93911132D01*
X70481355Y-93914024D01*
X70476614Y-93917916D01*
X70420447Y-93955446D01*
X70420446Y-93955447D01*
X70382916Y-94011614D01*
X70379024Y-94016355D01*
X70376132Y-94021768D01*
X70376132Y-94021769D01*
X70376131Y-94021770D01*
X70364931Y-94078081D01*
X70364500Y-94080249D01*
X70364500Y-94819750D01*
X70365142Y-94822974D01*
X70365143Y-94822990D01*
X70365145Y-94822990D01*
X70373937Y-94867194D01*
X70375825Y-94902442D01*
X70373954Y-94923338D01*
X70354164Y-94980242D01*
X70350482Y-94985861D01*
X70334452Y-95005575D01*
X70312793Y-95027235D01*
X70267414Y-95130007D01*
X70266844Y-95132711D01*
X70266589Y-95137124D01*
X70264500Y-95155127D01*
X70264500Y-95769735D01*
X70244815Y-95836774D01*
X70192011Y-95882529D01*
X70179335Y-95887212D01*
X70230315Y-95843039D01*
X70250000Y-95776000D01*
X70250000Y-94124000D01*
X70238794Y-94072489D01*
X70193039Y-94019685D01*
X70126000Y-94000000D01*
X69759500Y-94000000D01*
X69707989Y-94011206D01*
X69655185Y-94056961D01*
X69635500Y-94124000D01*
X69635500Y-94080249D01*
X69635500Y-94080063D01*
X69635069Y-94078081D01*
X69623868Y-94021770D01*
X69620975Y-94016358D01*
X69617081Y-94011613D01*
X69613194Y-94005796D01*
X69579552Y-93955447D01*
X69537044Y-93927044D01*
X69523385Y-93917917D01*
X69518641Y-93914024D01*
X69513230Y-93911132D01*
X69513229Y-93911131D01*
X69454752Y-93899500D01*
X69454750Y-93899500D01*
X68715246Y-93899500D01*
X68706837Y-93901172D01*
X68696165Y-93902244D01*
X68696222Y-93902729D01*
X68689305Y-93903530D01*
X68677541Y-93906254D01*
X68666631Y-93909169D01*
X68656770Y-93911130D01*
X68651354Y-93914025D01*
X68646616Y-93917914D01*
X68641484Y-93921343D01*
X68623609Y-93931260D01*
X68607510Y-93938526D01*
X68607497Y-93938533D01*
X68344481Y-94126403D01*
X68278487Y-94149351D01*
X68272407Y-94149500D01*
X68010438Y-94149500D01*
X67972224Y-94159739D01*
X67972221Y-94159739D01*
X67934010Y-94169978D01*
X67933939Y-94170008D01*
X67933130Y-94170485D01*
X67865508Y-94209526D01*
X67865483Y-94209544D01*
X67865481Y-94209545D01*
X67009545Y-95065481D01*
X67009544Y-95065483D01*
X67009526Y-95065508D01*
X66970485Y-95133130D01*
X66970009Y-95133937D01*
X66969979Y-95134007D01*
X66964300Y-95155205D01*
X66953372Y-95195989D01*
X66949500Y-95210438D01*
X66949500Y-99789562D01*
X66958374Y-99822681D01*
X66970168Y-99866697D01*
X66975500Y-99882848D01*
X66976606Y-99887275D01*
X66989622Y-99900013D01*
X67009537Y-99934507D01*
X67009541Y-99934512D01*
X67865541Y-100790512D01*
X67866056Y-100790890D01*
X67868666Y-100792295D01*
X67934004Y-100830017D01*
X67934011Y-100830021D01*
X68010438Y-100850500D01*
X68089562Y-100850500D01*
X68272408Y-100850500D01*
X68339447Y-100870185D01*
X68344481Y-100873597D01*
X68558750Y-101026646D01*
X68607503Y-101061469D01*
X68633574Y-101074566D01*
X68643718Y-101081891D01*
X68656766Y-101088866D01*
X68656768Y-101088866D01*
X68656769Y-101088867D01*
X68656770Y-101088868D01*
X68660614Y-101089632D01*
X68667025Y-101091297D01*
X68667071Y-101091116D01*
X68670874Y-101092076D01*
X68670878Y-101092078D01*
X68675505Y-101092940D01*
X68702227Y-101097919D01*
X68703708Y-101098204D01*
X68707614Y-101098981D01*
X68710339Y-101099703D01*
X68715248Y-101100499D01*
X68715250Y-101100500D01*
X68715252Y-101100500D01*
X68720294Y-101101318D01*
X68721831Y-101101585D01*
X68721912Y-101101585D01*
X68721914Y-101101586D01*
X68721915Y-101101585D01*
X68725379Y-101101616D01*
X68738732Y-101100500D01*
X69458876Y-101100500D01*
X69466742Y-101098114D01*
X69469568Y-101097552D01*
X69513229Y-101088868D01*
X69513229Y-101088867D01*
X69513231Y-101088867D01*
X69579552Y-101044552D01*
X69623867Y-100978231D01*
X69623867Y-100978229D01*
X69623868Y-100978229D01*
X69635072Y-100921896D01*
X69635500Y-100919931D01*
X69635500Y-100165811D01*
X69640497Y-100165811D01*
X69641218Y-100128570D01*
X69680122Y-100070534D01*
X69744228Y-100042744D01*
X69785863Y-100044635D01*
X69798401Y-100047364D01*
X69798406Y-100047365D01*
X69807136Y-100048620D01*
X69833342Y-100052389D01*
X69873723Y-100055277D01*
X69876829Y-100055500D01*
X69876830Y-100055500D01*
X70127167Y-100055500D01*
X70127168Y-100055500D01*
X70159845Y-100053747D01*
X70186216Y-100050910D01*
X70218165Y-100045730D01*
X70220152Y-100045408D01*
X70220247Y-100045999D01*
X70287506Y-100052583D01*
X70342324Y-100095904D01*
X70365019Y-100161985D01*
X70364551Y-100179727D01*
X70364500Y-100180245D01*
X70364500Y-100180249D01*
X70364500Y-100180251D01*
X70364500Y-100919752D01*
X70376131Y-100978229D01*
X70376132Y-100978230D01*
X70379024Y-100983641D01*
X70382917Y-100988385D01*
X70420447Y-101044552D01*
X70462952Y-101072953D01*
X70476613Y-101082081D01*
X70481358Y-101085975D01*
X70486770Y-101088868D01*
X70537612Y-101098981D01*
X70540337Y-101099703D01*
X70545249Y-101100500D01*
X71284750Y-101100500D01*
X71292225Y-101100500D01*
X71305378Y-101097085D01*
X71310682Y-101096470D01*
X71310684Y-101096470D01*
X71316251Y-101095180D01*
X71325348Y-101093075D01*
X71325544Y-101093924D01*
X71327758Y-101093561D01*
X71337393Y-101090638D01*
X71349208Y-101087678D01*
X71352539Y-101087015D01*
X71376413Y-101068727D01*
X71392495Y-101061471D01*
X71392495Y-101061470D01*
X71392496Y-101061470D01*
X71655520Y-100873597D01*
X71721513Y-100850649D01*
X71727593Y-100850500D01*
X73272408Y-100850500D01*
X73339447Y-100870185D01*
X73344481Y-100873597D01*
X73558750Y-101026646D01*
X73607503Y-101061469D01*
X73633574Y-101074566D01*
X73643718Y-101081891D01*
X73656766Y-101088866D01*
X73656768Y-101088866D01*
X73656769Y-101088867D01*
X73656770Y-101088868D01*
X73660614Y-101089632D01*
X73667025Y-101091297D01*
X73667071Y-101091116D01*
X73670874Y-101092076D01*
X73670878Y-101092078D01*
X73675505Y-101092940D01*
X73702227Y-101097919D01*
X73703708Y-101098204D01*
X73707614Y-101098981D01*
X73710339Y-101099703D01*
X73715248Y-101100499D01*
X73715250Y-101100500D01*
X73715252Y-101100500D01*
X73720294Y-101101318D01*
X73721831Y-101101585D01*
X73721912Y-101101585D01*
X73721914Y-101101586D01*
X73721915Y-101101585D01*
X73725379Y-101101616D01*
X73738732Y-101100500D01*
X74458876Y-101100500D01*
X74466742Y-101098114D01*
X74469568Y-101097552D01*
X74513229Y-101088868D01*
X74513229Y-101088867D01*
X74513231Y-101088867D01*
X74579552Y-101044552D01*
X74623867Y-100978231D01*
X74623867Y-100978229D01*
X74623868Y-100978229D01*
X74635072Y-100921896D01*
X74635500Y-100919931D01*
X74635500Y-100165811D01*
X74640497Y-100165811D01*
X74641218Y-100128570D01*
X74680122Y-100070534D01*
X74744228Y-100042744D01*
X74785863Y-100044635D01*
X74798401Y-100047364D01*
X74798406Y-100047365D01*
X74807136Y-100048620D01*
X74833342Y-100052389D01*
X74873723Y-100055277D01*
X74876829Y-100055500D01*
X74876830Y-100055500D01*
X75127167Y-100055500D01*
X75127168Y-100055500D01*
X75159845Y-100053747D01*
X75186216Y-100050910D01*
X75218165Y-100045730D01*
X75220152Y-100045408D01*
X75220247Y-100045999D01*
X75287506Y-100052583D01*
X75342324Y-100095904D01*
X75365019Y-100161985D01*
X75364551Y-100179727D01*
X75364500Y-100180245D01*
X75364500Y-100180249D01*
X75364500Y-100180251D01*
X75364500Y-100919752D01*
X75376131Y-100978229D01*
X75376132Y-100978230D01*
X75379024Y-100983641D01*
X75382917Y-100988385D01*
X75420447Y-101044552D01*
X75462952Y-101072953D01*
X75476613Y-101082081D01*
X75481358Y-101085975D01*
X75486770Y-101088868D01*
X75537612Y-101098981D01*
X75540337Y-101099703D01*
X75545249Y-101100500D01*
X76284750Y-101100500D01*
X76292225Y-101100500D01*
X76305378Y-101097085D01*
X76310682Y-101096470D01*
X76310684Y-101096470D01*
X76316251Y-101095180D01*
X76325348Y-101093075D01*
X76325544Y-101093924D01*
X76327758Y-101093561D01*
X76337393Y-101090638D01*
X76349208Y-101087678D01*
X76352539Y-101087015D01*
X76376413Y-101068727D01*
X76392495Y-101061471D01*
X76392495Y-101061470D01*
X76392496Y-101061470D01*
X76655520Y-100873597D01*
X76721513Y-100850649D01*
X76727593Y-100850500D01*
X78272408Y-100850500D01*
X78339447Y-100870185D01*
X78344481Y-100873597D01*
X78558750Y-101026646D01*
X78607503Y-101061469D01*
X78633574Y-101074566D01*
X78643718Y-101081891D01*
X78656766Y-101088866D01*
X78656768Y-101088866D01*
X78656769Y-101088867D01*
X78656770Y-101088868D01*
X78660614Y-101089632D01*
X78667025Y-101091297D01*
X78667071Y-101091116D01*
X78670874Y-101092076D01*
X78670878Y-101092078D01*
X78675505Y-101092940D01*
X78702227Y-101097919D01*
X78703708Y-101098204D01*
X78707614Y-101098981D01*
X78710339Y-101099703D01*
X78715248Y-101100499D01*
X78715250Y-101100500D01*
X78715252Y-101100500D01*
X78720294Y-101101318D01*
X78721831Y-101101585D01*
X78721912Y-101101585D01*
X78721914Y-101101586D01*
X78721915Y-101101585D01*
X78725379Y-101101616D01*
X78738732Y-101100500D01*
X79458876Y-101100500D01*
X79466742Y-101098114D01*
X79469568Y-101097552D01*
X79513229Y-101088868D01*
X79513229Y-101088867D01*
X79513231Y-101088867D01*
X79579552Y-101044552D01*
X79623867Y-100978231D01*
X79623867Y-100978229D01*
X79623868Y-100978229D01*
X79635072Y-100921896D01*
X79635500Y-100919931D01*
X79635500Y-100165811D01*
X79640497Y-100165811D01*
X79641218Y-100128570D01*
X79680122Y-100070534D01*
X79744228Y-100042744D01*
X79785863Y-100044635D01*
X79798401Y-100047364D01*
X79798406Y-100047365D01*
X79807136Y-100048620D01*
X79833342Y-100052389D01*
X79873723Y-100055277D01*
X79876829Y-100055500D01*
X79876830Y-100055500D01*
X80127167Y-100055500D01*
X80127168Y-100055500D01*
X80159845Y-100053747D01*
X80186216Y-100050910D01*
X80218165Y-100045730D01*
X80220152Y-100045408D01*
X80220247Y-100045999D01*
X80287506Y-100052583D01*
X80342324Y-100095904D01*
X80365019Y-100161985D01*
X80364551Y-100179727D01*
X80364500Y-100180245D01*
X80364500Y-100180249D01*
X80364500Y-100180251D01*
X80364500Y-100919752D01*
X80376131Y-100978229D01*
X80376132Y-100978230D01*
X80379024Y-100983641D01*
X80382917Y-100988385D01*
X80420447Y-101044552D01*
X80462952Y-101072953D01*
X80476613Y-101082081D01*
X80481358Y-101085975D01*
X80486770Y-101088868D01*
X80537612Y-101098981D01*
X80540337Y-101099703D01*
X80545249Y-101100500D01*
X81284750Y-101100500D01*
X81292225Y-101100500D01*
X81305378Y-101097085D01*
X81310682Y-101096470D01*
X81310684Y-101096470D01*
X81316251Y-101095180D01*
X81325348Y-101093075D01*
X81325544Y-101093924D01*
X81327758Y-101093561D01*
X81337393Y-101090638D01*
X81349208Y-101087678D01*
X81352539Y-101087015D01*
X81376413Y-101068727D01*
X81392495Y-101061471D01*
X81392495Y-101061470D01*
X81392496Y-101061470D01*
X81655520Y-100873597D01*
X81721513Y-100850649D01*
X81727593Y-100850500D01*
X83272408Y-100850500D01*
X83339447Y-100870185D01*
X83344481Y-100873597D01*
X83558750Y-101026646D01*
X83607503Y-101061469D01*
X83633574Y-101074566D01*
X83643718Y-101081891D01*
X83656766Y-101088866D01*
X83656768Y-101088866D01*
X83656769Y-101088867D01*
X83656770Y-101088868D01*
X83660614Y-101089632D01*
X83667025Y-101091297D01*
X83667071Y-101091116D01*
X83670874Y-101092076D01*
X83670878Y-101092078D01*
X83675505Y-101092940D01*
X83702227Y-101097919D01*
X83703708Y-101098204D01*
X83707614Y-101098981D01*
X83710339Y-101099703D01*
X83715248Y-101100499D01*
X83715250Y-101100500D01*
X83715252Y-101100500D01*
X83720294Y-101101318D01*
X83721831Y-101101585D01*
X83721912Y-101101585D01*
X83721914Y-101101586D01*
X83721915Y-101101585D01*
X83725379Y-101101616D01*
X83738732Y-101100500D01*
X84458876Y-101100500D01*
X84466742Y-101098114D01*
X84469568Y-101097552D01*
X84513229Y-101088868D01*
X84513229Y-101088867D01*
X84513231Y-101088867D01*
X84579552Y-101044552D01*
X84623867Y-100978231D01*
X84623867Y-100978229D01*
X84623868Y-100978229D01*
X84635072Y-100921896D01*
X84635500Y-100919931D01*
X84635500Y-100165811D01*
X84640497Y-100165811D01*
X84641218Y-100128570D01*
X84680122Y-100070534D01*
X84744228Y-100042744D01*
X84785863Y-100044635D01*
X84798401Y-100047364D01*
X84798406Y-100047365D01*
X84807136Y-100048620D01*
X84833342Y-100052389D01*
X84873723Y-100055277D01*
X84876829Y-100055500D01*
X84876830Y-100055500D01*
X85127167Y-100055500D01*
X85127168Y-100055500D01*
X85159845Y-100053747D01*
X85186216Y-100050910D01*
X85218165Y-100045730D01*
X85220152Y-100045408D01*
X85220247Y-100045999D01*
X85287506Y-100052583D01*
X85342324Y-100095904D01*
X85365019Y-100161985D01*
X85364551Y-100179727D01*
X85364500Y-100180245D01*
X85364500Y-100180249D01*
X85364500Y-100180251D01*
X85364500Y-100919752D01*
X85376131Y-100978229D01*
X85376132Y-100978230D01*
X85379024Y-100983641D01*
X85382917Y-100988385D01*
X85420447Y-101044552D01*
X85462952Y-101072953D01*
X85476613Y-101082081D01*
X85481358Y-101085975D01*
X85486770Y-101088868D01*
X85537612Y-101098981D01*
X85540337Y-101099703D01*
X85545249Y-101100500D01*
X86284750Y-101100500D01*
X86288876Y-101100500D01*
X86296742Y-101098114D01*
X86299568Y-101097552D01*
X86343229Y-101088868D01*
X86343229Y-101088867D01*
X86343231Y-101088867D01*
X86409552Y-101044552D01*
X86453867Y-100978231D01*
X86453867Y-100978229D01*
X86453868Y-100978229D01*
X86465072Y-100921896D01*
X86465500Y-100919931D01*
X86465500Y-100165811D01*
X86470326Y-100165811D01*
X86472464Y-100124630D01*
X86513234Y-100067889D01*
X86578209Y-100042197D01*
X86615839Y-100044521D01*
X86628901Y-100047364D01*
X86663842Y-100052389D01*
X86704223Y-100055277D01*
X86707329Y-100055500D01*
X86707330Y-100055500D01*
X86877667Y-100055500D01*
X86877668Y-100055500D01*
X86910345Y-100053747D01*
X86936716Y-100050910D01*
X86969010Y-100045674D01*
X86976568Y-100044029D01*
X87048402Y-100018675D01*
X87103263Y-99991199D01*
X87103267Y-99991195D01*
X87103270Y-99991195D01*
X87134662Y-99970206D01*
X87166591Y-99948861D01*
X87167960Y-99947674D01*
X87224848Y-99881993D01*
X87262591Y-99823250D01*
X87298689Y-99744203D01*
X87303094Y-99729205D01*
X87312364Y-99686598D01*
X87317389Y-99651654D01*
X87320500Y-99608170D01*
X87320500Y-95287331D01*
X87318747Y-95254654D01*
X87315910Y-95228283D01*
X87310674Y-95195989D01*
X87309029Y-95188431D01*
X87283675Y-95116597D01*
X87256199Y-95061736D01*
X87256196Y-95061731D01*
X87256195Y-95061728D01*
X87213869Y-94998420D01*
X87213861Y-94998408D01*
X87212674Y-94997039D01*
X87212670Y-94997036D01*
X87212668Y-94997033D01*
X87173260Y-94962902D01*
X87146984Y-94940145D01*
X87146978Y-94940141D01*
X87146973Y-94940137D01*
X87088239Y-94902403D01*
X87088234Y-94902400D01*
X87088233Y-94902400D01*
X87009177Y-94866303D01*
X87009173Y-94866301D01*
X87009167Y-94866299D01*
X86994200Y-94861904D01*
X86994163Y-94861894D01*
X86951592Y-94852634D01*
X86916647Y-94847610D01*
X86916649Y-94847610D01*
X86873170Y-94844500D01*
X86702331Y-94844500D01*
X86702330Y-94844500D01*
X86669682Y-94846249D01*
X86657026Y-94847610D01*
X86643324Y-94849083D01*
X86643315Y-94849084D01*
X86643290Y-94849087D01*
X86609416Y-94854577D01*
X86609306Y-94853901D01*
X86542325Y-94846865D01*
X86487816Y-94803156D01*
X86465590Y-94736916D01*
X86465500Y-94732189D01*
X86465500Y-94080067D01*
X86465068Y-94078081D01*
X86463831Y-94071862D01*
X86462762Y-94061170D01*
X86462271Y-94061227D01*
X86461470Y-94054314D01*
X86458738Y-94042518D01*
X86455826Y-94031617D01*
X86453868Y-94021770D01*
X86453867Y-94021769D01*
X86453867Y-94021767D01*
X86450979Y-94016364D01*
X86447088Y-94011623D01*
X86443659Y-94006492D01*
X86433735Y-93988604D01*
X86426469Y-93972503D01*
X86426468Y-93972501D01*
X86426466Y-93972497D01*
X86238597Y-93709480D01*
X86215649Y-93643487D01*
X86215500Y-93637407D01*
X86215500Y-91362592D01*
X86235185Y-91295553D01*
X86238582Y-91290539D01*
X86426470Y-91027496D01*
X86437551Y-91005434D01*
X86452067Y-90987281D01*
X86452679Y-90984206D01*
X86455639Y-90972388D01*
X86456827Y-90968470D01*
X86456875Y-90968084D01*
X86456357Y-90967988D01*
X86457076Y-90964125D01*
X86457078Y-90964121D01*
X86462951Y-90932594D01*
X86463163Y-90931493D01*
X86465072Y-90921895D01*
X86465998Y-90917639D01*
X86466567Y-90915224D01*
X86466616Y-90909619D01*
X86465500Y-90896267D01*
X86465500Y-90180065D01*
X86465069Y-90178082D01*
X86455946Y-90132218D01*
X86454057Y-90096975D01*
X86455927Y-90076078D01*
X86457493Y-90070394D01*
X86457076Y-90067008D01*
X86461688Y-90055170D01*
X86467702Y-90033351D01*
X86471241Y-90025997D01*
X86486404Y-90002861D01*
X86516785Y-89972479D01*
X86516788Y-89972474D01*
X86562089Y-89869877D01*
X86562089Y-89869875D01*
X86564999Y-89844794D01*
X86565000Y-89844791D01*
X86565000Y-89575000D01*
X86056830Y-89575000D01*
X86021894Y-89569977D01*
X86016067Y-89568266D01*
X85957290Y-89530491D01*
X85928265Y-89466935D01*
X85938209Y-89397777D01*
X85983964Y-89344973D01*
X86024654Y-89328121D01*
X86025983Y-89327832D01*
X86052332Y-89325000D01*
X86564999Y-89325000D01*
X86564999Y-89055220D01*
X86564998Y-89055202D01*
X86564997Y-89055191D01*
X86562091Y-89030130D01*
X86562090Y-89030126D01*
X86524919Y-88945941D01*
X86515849Y-88876667D01*
X86525559Y-88844351D01*
X86548689Y-88793703D01*
X86553094Y-88778705D01*
X86562364Y-88736098D01*
X86567389Y-88701154D01*
X86570500Y-88657670D01*
X86570500Y-86337330D01*
X86568747Y-86304653D01*
X86565910Y-86278282D01*
X86560674Y-86245988D01*
X86559029Y-86238430D01*
X86533675Y-86166596D01*
X86529049Y-86157359D01*
X86516629Y-86088602D01*
X86526486Y-86051747D01*
X86562585Y-85969991D01*
X86565500Y-85944865D01*
X86565499Y-85155136D01*
X86565497Y-85155117D01*
X86563409Y-85137113D01*
X86563078Y-85131390D01*
X86562955Y-85130630D01*
X86561406Y-85127339D01*
X86517206Y-85027235D01*
X86499128Y-85009157D01*
X86477980Y-84980909D01*
X86467920Y-84962486D01*
X86452758Y-84904171D01*
X86452698Y-84897438D01*
X86455074Y-84872161D01*
X86465500Y-84819750D01*
X86465500Y-84080249D01*
X86465500Y-84080067D01*
X86465068Y-84078081D01*
X86463831Y-84071862D01*
X86462762Y-84061170D01*
X86462271Y-84061227D01*
X86461470Y-84054314D01*
X86458738Y-84042518D01*
X86455826Y-84031617D01*
X86453868Y-84021770D01*
X86453867Y-84021769D01*
X86453867Y-84021767D01*
X86450979Y-84016364D01*
X86447088Y-84011623D01*
X86443659Y-84006492D01*
X86433735Y-83988604D01*
X86426469Y-83972503D01*
X86426468Y-83972501D01*
X86426466Y-83972497D01*
X86238597Y-83709480D01*
X86215649Y-83643487D01*
X86215500Y-83637407D01*
X86215500Y-81362592D01*
X86235185Y-81295553D01*
X86238582Y-81290539D01*
X86426470Y-81027496D01*
X86437551Y-81005434D01*
X86452067Y-80987281D01*
X86452679Y-80984206D01*
X86455639Y-80972388D01*
X86456827Y-80968470D01*
X86456875Y-80968084D01*
X86456357Y-80967988D01*
X86457076Y-80964125D01*
X86457078Y-80964121D01*
X86462951Y-80932594D01*
X86463163Y-80931493D01*
X86465072Y-80921895D01*
X86465998Y-80917639D01*
X86466567Y-80915224D01*
X86466616Y-80909619D01*
X86465500Y-80896267D01*
X86465500Y-80180065D01*
X86465069Y-80178082D01*
X86455946Y-80132218D01*
X86454057Y-80096975D01*
X86455927Y-80076078D01*
X86457493Y-80070394D01*
X86457076Y-80067008D01*
X86461688Y-80055170D01*
X86467702Y-80033351D01*
X86471241Y-80025997D01*
X86486404Y-80002861D01*
X86516785Y-79972479D01*
X86516788Y-79972474D01*
X86562089Y-79869877D01*
X86562089Y-79869875D01*
X86564999Y-79844794D01*
X86565000Y-79844791D01*
X86565000Y-79575000D01*
X86056830Y-79575000D01*
X86021895Y-79569977D01*
X85996819Y-79562614D01*
X85983688Y-79554751D01*
X85971451Y-79551986D01*
X85943375Y-79530612D01*
X85943372Y-79530610D01*
X85840114Y-79425674D01*
X85825074Y-79405239D01*
X85824540Y-79405607D01*
X85816717Y-79394243D01*
X85817919Y-79393415D01*
X85794478Y-79346585D01*
X85794302Y-79345776D01*
X85794302Y-79345775D01*
X85794301Y-79345774D01*
X85792830Y-79339012D01*
X85790000Y-79312668D01*
X85790000Y-79275223D01*
X86040000Y-79275223D01*
X86088980Y-79325000D01*
X86564999Y-79325000D01*
X86564999Y-79055214D01*
X86564997Y-79055191D01*
X86562091Y-79030130D01*
X86562090Y-79030126D01*
X86516788Y-78927525D01*
X86516788Y-78927524D01*
X86516783Y-78927517D01*
X86437481Y-78848215D01*
X86437475Y-78848211D01*
X86334876Y-78802910D01*
X86309795Y-78800000D01*
X86309794Y-78800000D01*
X86040000Y-78800000D01*
X86040000Y-79275223D01*
X85790000Y-79275223D01*
X85790000Y-78800000D01*
X85679500Y-78800000D01*
X85612461Y-78780315D01*
X85566706Y-78727511D01*
X85555500Y-78676000D01*
X85555500Y-77637331D01*
X85553747Y-77604654D01*
X85550910Y-77578283D01*
X85545674Y-77545989D01*
X85544029Y-77538431D01*
X85518675Y-77466597D01*
X85491199Y-77411736D01*
X85491196Y-77411731D01*
X85491195Y-77411728D01*
X85448869Y-77348420D01*
X85448861Y-77348408D01*
X85447674Y-77347039D01*
X85447670Y-77347036D01*
X85447668Y-77347033D01*
X85393876Y-77300445D01*
X85381984Y-77290145D01*
X85381978Y-77290141D01*
X85381973Y-77290137D01*
X85323239Y-77252403D01*
X85323234Y-77252400D01*
X85323233Y-77252400D01*
X85244177Y-77216303D01*
X85244173Y-77216301D01*
X85244167Y-77216299D01*
X85229200Y-77211904D01*
X85229163Y-77211894D01*
X85186592Y-77202634D01*
X85151647Y-77197610D01*
X85151649Y-77197610D01*
X85108170Y-77194500D01*
X68136307Y-77194500D01*
X68134516Y-77194594D01*
X68104154Y-77196196D01*
X68078190Y-77198944D01*
X68078187Y-77198945D01*
X68046440Y-77204008D01*
X68046389Y-77204018D01*
X68039211Y-77205554D01*
X67967743Y-77230435D01*
X67913108Y-77257449D01*
X67913102Y-77257453D01*
X67849961Y-77299122D01*
X67849958Y-77299125D01*
X67848411Y-77300448D01*
X67791051Y-77365782D01*
X67791047Y-77365786D01*
X67752899Y-77424304D01*
X67752897Y-77424307D01*
X67716260Y-77503165D01*
X67716256Y-77503175D01*
X67711763Y-77518115D01*
X67711756Y-77518141D01*
X67702214Y-77560668D01*
X67696964Y-77595556D01*
X67696964Y-77595557D01*
X67693569Y-77639021D01*
X67684376Y-79048830D01*
X67684376Y-79048869D01*
X67684366Y-79050331D01*
X67684364Y-79050404D01*
X67680987Y-79568527D01*
X67680392Y-79659657D01*
X67680393Y-79659681D01*
X67681978Y-79692792D01*
X67681980Y-79692829D01*
X67684723Y-79719575D01*
X67684726Y-79719596D01*
X67689897Y-79752362D01*
X67689904Y-79752398D01*
X67691596Y-79760305D01*
X67702456Y-79791328D01*
X67716929Y-79832674D01*
X67722972Y-79844794D01*
X67744468Y-79887907D01*
X67744473Y-79887916D01*
X67786995Y-79951660D01*
X67787002Y-79951668D01*
X67787003Y-79951670D01*
X67788049Y-79952877D01*
X67853753Y-80009806D01*
X67853755Y-80009807D01*
X67853756Y-80009808D01*
X67871458Y-80021184D01*
X67917213Y-80073988D01*
X67927157Y-80143146D01*
X67898133Y-80206702D01*
X67839355Y-80244477D01*
X67804419Y-80249500D01*
X67294354Y-80249500D01*
X67227315Y-80229815D01*
X67181560Y-80177011D01*
X67180552Y-80174744D01*
X67067884Y-79913918D01*
X67067883Y-79913917D01*
X67016531Y-79795038D01*
X67016529Y-79795036D01*
X67014772Y-79790967D01*
X67013760Y-79788861D01*
X67012984Y-79787518D01*
X67012984Y-79787515D01*
X66940509Y-79661985D01*
X66838015Y-79559491D01*
X66837877Y-79559353D01*
X66837568Y-79559123D01*
X66834802Y-79557635D01*
X66787996Y-79530612D01*
X66784242Y-79528444D01*
X66755808Y-79498624D01*
X66701007Y-79483939D01*
X66701007Y-79483940D01*
X66636740Y-79466720D01*
X66572475Y-79449500D01*
X66572474Y-79449500D01*
X66427525Y-79449500D01*
X66298994Y-79483939D01*
X66298993Y-79483940D01*
X66291338Y-79485991D01*
X66287510Y-79487017D01*
X66161991Y-79559485D01*
X66161984Y-79559490D01*
X66161968Y-79559505D01*
X66059505Y-79661968D01*
X66059490Y-79661984D01*
X66059485Y-79661992D01*
X65987017Y-79787509D01*
X65986989Y-79787578D01*
X65986748Y-79788511D01*
X65960114Y-79887913D01*
X65949500Y-79927525D01*
X65500500Y-79927525D01*
X65500500Y-74040085D01*
X87319237Y-74040085D01*
X87350456Y-74197022D01*
X87350458Y-74197030D01*
X87350461Y-74197040D01*
X87401376Y-74319961D01*
X87401378Y-74319964D01*
X87401379Y-74319967D01*
X87401382Y-74319973D01*
X87475302Y-74430602D01*
X87475305Y-74430607D01*
X87475310Y-74430613D01*
X87569385Y-74524688D01*
X87569390Y-74524692D01*
X87569398Y-74524698D01*
X87651558Y-74579595D01*
X87677233Y-74596751D01*
X87680109Y-74598788D01*
X87680438Y-74598936D01*
X87684052Y-74600286D01*
X87761549Y-74632385D01*
X87797352Y-74647215D01*
X87801761Y-74649301D01*
X87933464Y-74675500D01*
X88066533Y-74675500D01*
X88066535Y-74675500D01*
X88154320Y-74658036D01*
X88154323Y-74658036D01*
X88172653Y-74654389D01*
X88197036Y-74649540D01*
X88319969Y-74598620D01*
X88430606Y-74524695D01*
X88524695Y-74430606D01*
X88598620Y-74319969D01*
X88649540Y-74197036D01*
X88675500Y-74066531D01*
X88675500Y-73933469D01*
X88675500Y-73933466D01*
X88675500Y-73933463D01*
X88649301Y-73801761D01*
X88647214Y-73797349D01*
X88598623Y-73680038D01*
X88598622Y-73680037D01*
X88598620Y-73680031D01*
X88524695Y-73569394D01*
X88524692Y-73569390D01*
X88524691Y-73569389D01*
X88524690Y-73569387D01*
X88430613Y-73475310D01*
X88430607Y-73475305D01*
X88430602Y-73475302D01*
X88319972Y-73401381D01*
X88319965Y-73401378D01*
X88319960Y-73401375D01*
X88319957Y-73401374D01*
X88197042Y-73350462D01*
X88197043Y-73350462D01*
X88197040Y-73350461D01*
X88197030Y-73350458D01*
X88197026Y-73350457D01*
X88197022Y-73350456D01*
X88066535Y-73324500D01*
X88066533Y-73324500D01*
X88066531Y-73324500D01*
X87933469Y-73324500D01*
X87933467Y-73324500D01*
X87933465Y-73324500D01*
X87802975Y-73350456D01*
X87802965Y-73350459D01*
X87802963Y-73350459D01*
X87802959Y-73350461D01*
X87680038Y-73401376D01*
X87680031Y-73401379D01*
X87680025Y-73401382D01*
X87569396Y-73475302D01*
X87569391Y-73475305D01*
X87569385Y-73475310D01*
X87475310Y-73569385D01*
X87475305Y-73569391D01*
X87475302Y-73569396D01*
X87401382Y-73680025D01*
X87401379Y-73680031D01*
X87401376Y-73680037D01*
X87401376Y-73680038D01*
X87350958Y-73801761D01*
X87350459Y-73802965D01*
X87350456Y-73802976D01*
X87324500Y-73933463D01*
X87324500Y-74022165D01*
X87319237Y-74040085D01*
X65500500Y-74040085D01*
X65500500Y-68375446D01*
X75599500Y-68375446D01*
X75599500Y-68624552D01*
X75599501Y-68624581D01*
X75632016Y-68871559D01*
X75696499Y-69112212D01*
X75791824Y-69342348D01*
X75791830Y-69342361D01*
X75791837Y-69342376D01*
X75791838Y-69342377D01*
X75916399Y-69558125D01*
X76068053Y-69755766D01*
X76068057Y-69755771D01*
X76068060Y-69755774D01*
X76068066Y-69755781D01*
X76244218Y-69931933D01*
X76244225Y-69931939D01*
X76244228Y-69931941D01*
X76244232Y-69931945D01*
X76441873Y-70083599D01*
X76657623Y-70208162D01*
X76657638Y-70208169D01*
X76756825Y-70249253D01*
X76887793Y-70303502D01*
X77128435Y-70367982D01*
X77375435Y-70400500D01*
X77375442Y-70400500D01*
X77624558Y-70400500D01*
X77624565Y-70400500D01*
X77871565Y-70367982D01*
X78112207Y-70303502D01*
X78342373Y-70208164D01*
X78558127Y-70083599D01*
X78755776Y-69931938D01*
X78790066Y-69897648D01*
X78790072Y-69897642D01*
X81199500Y-69897642D01*
X81199500Y-70102356D01*
X81231521Y-70304530D01*
X81231522Y-70304534D01*
X81246443Y-70350456D01*
X81294780Y-70499221D01*
X81294783Y-70499228D01*
X81330533Y-70569388D01*
X81330533Y-70569390D01*
X81330534Y-70569390D01*
X81386891Y-70679998D01*
X81387624Y-70681436D01*
X81387715Y-70681613D01*
X81508028Y-70847213D01*
X81652786Y-70991971D01*
X81755414Y-71066533D01*
X81807748Y-71104555D01*
X81807749Y-71104557D01*
X81814626Y-71109552D01*
X81818390Y-71112287D01*
X81934607Y-71171503D01*
X81994327Y-71201932D01*
X81995930Y-71202870D01*
X81999629Y-71204662D01*
X82001637Y-71205660D01*
X82005403Y-71206722D01*
X82045488Y-71219746D01*
X82105135Y-71239126D01*
X82105136Y-71239127D01*
X82148612Y-71253253D01*
X82195465Y-71268477D01*
X82296557Y-71284488D01*
X82397648Y-71300500D01*
X82397649Y-71300500D01*
X82602351Y-71300500D01*
X82602352Y-71300500D01*
X82804534Y-71268477D01*
X82999219Y-71205220D01*
X83181610Y-71112287D01*
X83274590Y-71044732D01*
X83280986Y-71040085D01*
X87319237Y-71040085D01*
X87333601Y-71112290D01*
X87350458Y-71197030D01*
X87350461Y-71197040D01*
X87401376Y-71319961D01*
X87401378Y-71319964D01*
X87401379Y-71319967D01*
X87401382Y-71319973D01*
X87475302Y-71430602D01*
X87475305Y-71430607D01*
X87475310Y-71430613D01*
X87569385Y-71524688D01*
X87569390Y-71524692D01*
X87569398Y-71524698D01*
X87651558Y-71579595D01*
X87677233Y-71596751D01*
X87680109Y-71598788D01*
X87680438Y-71598936D01*
X87684052Y-71600286D01*
X87761549Y-71632385D01*
X87797352Y-71647215D01*
X87801761Y-71649301D01*
X87933464Y-71675500D01*
X88066533Y-71675500D01*
X88066535Y-71675500D01*
X88154320Y-71658036D01*
X88154323Y-71658036D01*
X88172653Y-71654389D01*
X88197036Y-71649540D01*
X88319969Y-71598620D01*
X88430606Y-71524695D01*
X88524695Y-71430606D01*
X88598620Y-71319969D01*
X88649540Y-71197036D01*
X88667936Y-71104556D01*
X88675500Y-71066533D01*
X88675500Y-70933463D01*
X88649301Y-70801761D01*
X88647214Y-70797349D01*
X88598623Y-70680038D01*
X88598622Y-70680037D01*
X88598620Y-70680031D01*
X88524695Y-70569394D01*
X88524692Y-70569390D01*
X88524690Y-70569388D01*
X88524690Y-70569387D01*
X88430613Y-70475310D01*
X88430607Y-70475305D01*
X88430602Y-70475302D01*
X88319972Y-70401381D01*
X88319965Y-70401378D01*
X88319960Y-70401375D01*
X88319957Y-70401374D01*
X88197042Y-70350462D01*
X88197043Y-70350462D01*
X88197040Y-70350461D01*
X88197030Y-70350458D01*
X88197026Y-70350457D01*
X88197022Y-70350456D01*
X88066535Y-70324500D01*
X88066533Y-70324500D01*
X88066531Y-70324500D01*
X87933469Y-70324500D01*
X87933467Y-70324500D01*
X87933465Y-70324500D01*
X87802975Y-70350456D01*
X87802965Y-70350459D01*
X87802963Y-70350459D01*
X87802959Y-70350461D01*
X87680038Y-70401376D01*
X87680031Y-70401379D01*
X87680025Y-70401382D01*
X87569396Y-70475302D01*
X87569391Y-70475305D01*
X87569385Y-70475310D01*
X87475310Y-70569385D01*
X87475309Y-70569388D01*
X87475307Y-70569390D01*
X87475301Y-70569398D01*
X87438471Y-70624516D01*
X87401382Y-70680025D01*
X87401379Y-70680031D01*
X87401376Y-70680037D01*
X87401376Y-70680038D01*
X87350958Y-70801761D01*
X87350459Y-70802965D01*
X87350456Y-70802976D01*
X87324500Y-70933463D01*
X87324500Y-71022165D01*
X87319237Y-71040085D01*
X83280986Y-71040085D01*
X83347213Y-70991971D01*
X83347215Y-70991968D01*
X83347219Y-70991966D01*
X83491966Y-70847219D01*
X83612287Y-70681610D01*
X83705220Y-70499219D01*
X83768477Y-70304534D01*
X83800500Y-70102352D01*
X83800500Y-69897648D01*
X83768477Y-69695466D01*
X83768476Y-69695462D01*
X83768476Y-69695461D01*
X83706723Y-69505406D01*
X83705660Y-69501639D01*
X83704658Y-69499620D01*
X83702868Y-69495926D01*
X83701934Y-69494329D01*
X83652036Y-69396403D01*
X83624508Y-69342376D01*
X83624506Y-69342373D01*
X83612289Y-69318394D01*
X83612286Y-69318388D01*
X83604556Y-69307749D01*
X83604556Y-69307748D01*
X83604555Y-69307748D01*
X83491971Y-69152786D01*
X83347213Y-69008028D01*
X83347212Y-69008027D01*
X83347211Y-69008026D01*
X83189507Y-68893450D01*
X83189168Y-68893161D01*
X83181603Y-68887707D01*
X83181188Y-68887498D01*
X83124654Y-68858691D01*
X83124653Y-68858691D01*
X82999223Y-68794781D01*
X82804534Y-68731522D01*
X82804532Y-68731521D01*
X82804530Y-68731521D01*
X82804529Y-68731520D01*
X82629995Y-68703878D01*
X82613409Y-68701251D01*
X82602354Y-68699500D01*
X82602352Y-68699500D01*
X82397648Y-68699500D01*
X82397647Y-68699500D01*
X82373327Y-68703351D01*
X82373326Y-68703350D01*
X82195468Y-68731521D01*
X82000777Y-68794780D01*
X82000764Y-68794786D01*
X81818397Y-68887708D01*
X81818385Y-68887715D01*
X81652787Y-69008027D01*
X81652784Y-69008029D01*
X81508029Y-69152784D01*
X81508027Y-69152787D01*
X81387715Y-69318385D01*
X81387708Y-69318397D01*
X81294786Y-69500764D01*
X81294780Y-69500777D01*
X81231521Y-69695468D01*
X81199500Y-69897642D01*
X78790072Y-69897642D01*
X78882620Y-69805095D01*
X78931933Y-69755781D01*
X78931938Y-69755776D01*
X79083599Y-69558127D01*
X79208164Y-69342373D01*
X79303502Y-69112207D01*
X79367982Y-68871565D01*
X79400500Y-68624565D01*
X79400500Y-68375435D01*
X79367982Y-68128435D01*
X79303502Y-67887793D01*
X79225185Y-67698719D01*
X79220602Y-67687655D01*
X79208174Y-67657650D01*
X79208173Y-67657649D01*
X79208169Y-67657638D01*
X79208162Y-67657623D01*
X79083599Y-67441873D01*
X79050159Y-67398293D01*
X78931945Y-67244232D01*
X78931941Y-67244228D01*
X78931939Y-67244225D01*
X78931933Y-67244218D01*
X78755781Y-67068066D01*
X78755774Y-67068060D01*
X78755771Y-67068057D01*
X78755766Y-67068053D01*
X78558125Y-66916399D01*
X78429176Y-66841951D01*
X78342376Y-66791837D01*
X78342361Y-66791830D01*
X78342348Y-66791824D01*
X78112211Y-66696499D01*
X78112213Y-66696499D01*
X77871559Y-66632016D01*
X77628665Y-66600039D01*
X77626649Y-66599705D01*
X77624575Y-66599500D01*
X77624570Y-66599500D01*
X77624565Y-66599500D01*
X77375435Y-66599500D01*
X77375429Y-66599500D01*
X77375424Y-66599500D01*
X77373347Y-66599705D01*
X77371333Y-66600039D01*
X77128439Y-66632016D01*
X76887786Y-66696499D01*
X76657650Y-66791824D01*
X76657637Y-66791830D01*
X76657630Y-66791833D01*
X76657623Y-66791837D01*
X76657610Y-66791843D01*
X76657609Y-66791845D01*
X76441873Y-66916399D01*
X76244232Y-67068053D01*
X76244225Y-67068060D01*
X76244218Y-67068066D01*
X76244214Y-67068070D01*
X76244209Y-67068074D01*
X76068074Y-67244209D01*
X76068067Y-67244217D01*
X76068053Y-67244232D01*
X75916399Y-67441873D01*
X75791845Y-67657609D01*
X75791837Y-67657623D01*
X75791833Y-67657630D01*
X75791830Y-67657637D01*
X75791824Y-67657650D01*
X75696499Y-67887786D01*
X75632016Y-68128439D01*
X75599501Y-68375417D01*
X75599500Y-68375446D01*
X65500500Y-68375446D01*
X65500500Y-68005635D01*
X65500556Y-68001914D01*
X65500669Y-67998150D01*
X65500837Y-67994426D01*
X65518046Y-67709913D01*
X65518719Y-67702514D01*
X65519628Y-67695028D01*
X65520751Y-67687655D01*
X65526257Y-67657609D01*
X65571110Y-67412855D01*
X65572668Y-67405598D01*
X65574479Y-67398250D01*
X65576463Y-67391136D01*
X65659603Y-67124328D01*
X65662010Y-67117354D01*
X65664686Y-67110297D01*
X65667515Y-67103467D01*
X65782210Y-66848627D01*
X65785445Y-66841984D01*
X65788963Y-66835282D01*
X65792602Y-66828832D01*
X65830959Y-66765381D01*
X65937147Y-66589722D01*
X65941201Y-66583453D01*
X65945449Y-66577297D01*
X65949874Y-66571285D01*
X65949882Y-66571275D01*
X66122185Y-66351347D01*
X66126938Y-66345643D01*
X66131946Y-66339990D01*
X66137032Y-66334589D01*
X66334589Y-66137032D01*
X66339990Y-66131946D01*
X66345643Y-66126938D01*
X66351347Y-66122185D01*
X66571290Y-65949869D01*
X66577311Y-65945440D01*
X66583463Y-65941194D01*
X66589719Y-65937149D01*
X66828846Y-65792593D01*
X66835282Y-65788963D01*
X66841984Y-65785445D01*
X66848627Y-65782210D01*
X67103467Y-65667515D01*
X67110297Y-65664686D01*
X67117354Y-65662010D01*
X67124358Y-65659593D01*
X67391106Y-65576471D01*
X67398267Y-65574474D01*
X67405582Y-65572671D01*
X67412856Y-65571109D01*
X67687673Y-65520747D01*
X67695042Y-65519625D01*
X67702500Y-65518720D01*
X67709909Y-65518046D01*
X67994427Y-65500837D01*
X67998152Y-65500669D01*
X68001917Y-65500556D01*
X68005637Y-65500500D01*
X86994363Y-65500500D01*
X86998084Y-65500556D01*
G37*
%TD.AperFunction*%
%TD*%
%TA.AperFunction,Conductor*%
%TO.N,Net-(D15-DO)*%
G36*
X83742008Y-100206988D02*
G01*
X84077691Y-100541715D01*
X84081130Y-100549983D01*
X84077715Y-100558261D01*
X84077691Y-100558285D01*
X83742008Y-100893011D01*
X83733730Y-100896426D01*
X83726947Y-100894247D01*
X83389900Y-100653500D01*
X83385159Y-100645902D01*
X83385000Y-100643979D01*
X83385000Y-100456021D01*
X83388427Y-100447748D01*
X83389900Y-100446500D01*
X83726947Y-100205752D01*
X83735670Y-100203732D01*
X83742008Y-100206988D01*
G37*
%TD.AperFunction*%
%TD*%
%TA.AperFunction,Conductor*%
%TO.N,Net-(D15-DO)*%
G36*
X81273052Y-100205752D02*
G01*
X81610100Y-100446500D01*
X81614841Y-100454098D01*
X81615000Y-100456021D01*
X81615000Y-100643979D01*
X81611573Y-100652252D01*
X81610100Y-100653500D01*
X81273052Y-100894247D01*
X81264328Y-100896267D01*
X81257991Y-100893011D01*
X80922307Y-100558283D01*
X80918869Y-100550017D01*
X80922283Y-100541740D01*
X81257992Y-100206987D01*
X81266269Y-100203573D01*
X81273052Y-100205752D01*
G37*
%TD.AperFunction*%
%TD*%
%TA.AperFunction,Conductor*%
%TO.N,Net-(D10-DO)*%
G36*
X78742008Y-100206988D02*
G01*
X79077691Y-100541715D01*
X79081130Y-100549983D01*
X79077715Y-100558261D01*
X79077691Y-100558285D01*
X78742008Y-100893011D01*
X78733730Y-100896426D01*
X78726947Y-100894247D01*
X78389900Y-100653500D01*
X78385159Y-100645902D01*
X78385000Y-100643979D01*
X78385000Y-100456021D01*
X78388427Y-100447748D01*
X78389900Y-100446500D01*
X78726947Y-100205752D01*
X78735670Y-100203732D01*
X78742008Y-100206988D01*
G37*
%TD.AperFunction*%
%TD*%
%TA.AperFunction,Conductor*%
%TO.N,Net-(D10-DO)*%
G36*
X76273052Y-100205752D02*
G01*
X76610100Y-100446500D01*
X76614841Y-100454098D01*
X76615000Y-100456021D01*
X76615000Y-100643979D01*
X76611573Y-100652252D01*
X76610100Y-100653500D01*
X76273052Y-100894247D01*
X76264328Y-100896267D01*
X76257991Y-100893011D01*
X75922307Y-100558283D01*
X75918869Y-100550017D01*
X75922283Y-100541740D01*
X76257992Y-100206987D01*
X76266269Y-100203573D01*
X76273052Y-100205752D01*
G37*
%TD.AperFunction*%
%TD*%
%TA.AperFunction,Conductor*%
%TO.N,Net-(D17-DO)*%
G36*
X68742008Y-84106988D02*
G01*
X69077691Y-84441715D01*
X69081130Y-84449983D01*
X69077715Y-84458261D01*
X69077691Y-84458285D01*
X68742008Y-84793011D01*
X68733730Y-84796426D01*
X68726947Y-84794247D01*
X68389900Y-84553500D01*
X68385159Y-84545902D01*
X68385000Y-84543979D01*
X68385000Y-84356021D01*
X68388427Y-84347748D01*
X68389900Y-84346500D01*
X68726947Y-84105752D01*
X68735670Y-84103732D01*
X68742008Y-84106988D01*
G37*
%TD.AperFunction*%
%TD*%
%TA.AperFunction,Conductor*%
%TO.N,Net-(D17-DO)*%
G36*
X68742008Y-90206988D02*
G01*
X69077691Y-90541715D01*
X69081130Y-90549983D01*
X69077715Y-90558261D01*
X69077691Y-90558285D01*
X68742008Y-90893011D01*
X68733730Y-90896426D01*
X68726947Y-90894247D01*
X68389900Y-90653500D01*
X68385159Y-90645902D01*
X68385000Y-90643979D01*
X68385000Y-90456021D01*
X68388427Y-90447748D01*
X68389900Y-90446500D01*
X68726947Y-90205752D01*
X68735670Y-90203732D01*
X68742008Y-90206988D01*
G37*
%TD.AperFunction*%
%TD*%
%TA.AperFunction,Conductor*%
%TO.N,Net-(D12-DO)*%
G36*
X71273052Y-84105752D02*
G01*
X71610100Y-84346500D01*
X71614841Y-84354098D01*
X71615000Y-84356021D01*
X71615000Y-84543979D01*
X71611573Y-84552252D01*
X71610100Y-84553500D01*
X71273052Y-84794247D01*
X71264328Y-84796267D01*
X71257991Y-84793011D01*
X70922307Y-84458283D01*
X70918869Y-84450017D01*
X70922283Y-84441740D01*
X71257992Y-84106987D01*
X71266269Y-84103573D01*
X71273052Y-84105752D01*
G37*
%TD.AperFunction*%
%TD*%
%TA.AperFunction,Conductor*%
%TO.N,Net-(D12-DO)*%
G36*
X73742008Y-84106988D02*
G01*
X74077691Y-84441715D01*
X74081130Y-84449983D01*
X74077715Y-84458261D01*
X74077691Y-84458285D01*
X73742008Y-84793011D01*
X73733730Y-84796426D01*
X73726947Y-84794247D01*
X73389900Y-84553500D01*
X73385159Y-84545902D01*
X73385000Y-84543979D01*
X73385000Y-84356021D01*
X73388427Y-84347748D01*
X73389900Y-84346500D01*
X73726947Y-84105752D01*
X73735670Y-84103732D01*
X73742008Y-84106988D01*
G37*
%TD.AperFunction*%
%TD*%
%TA.AperFunction,Conductor*%
%TO.N,Net-(D12-DI)*%
G36*
X78742008Y-84106988D02*
G01*
X79077691Y-84441715D01*
X79081130Y-84449983D01*
X79077715Y-84458261D01*
X79077691Y-84458285D01*
X78742008Y-84793011D01*
X78733730Y-84796426D01*
X78726947Y-84794247D01*
X78389900Y-84553500D01*
X78385159Y-84545902D01*
X78385000Y-84543979D01*
X78385000Y-84356021D01*
X78388427Y-84347748D01*
X78389900Y-84346500D01*
X78726947Y-84105752D01*
X78735670Y-84103732D01*
X78742008Y-84106988D01*
G37*
%TD.AperFunction*%
%TD*%
%TA.AperFunction,Conductor*%
%TO.N,Net-(D12-DI)*%
G36*
X76273052Y-84105752D02*
G01*
X76610100Y-84346500D01*
X76614841Y-84354098D01*
X76615000Y-84356021D01*
X76615000Y-84543979D01*
X76611573Y-84552252D01*
X76610100Y-84553500D01*
X76273052Y-84794247D01*
X76264328Y-84796267D01*
X76257991Y-84793011D01*
X75922307Y-84458283D01*
X75918869Y-84450017D01*
X75922283Y-84441740D01*
X76257992Y-84106987D01*
X76266269Y-84103573D01*
X76273052Y-84105752D01*
G37*
%TD.AperFunction*%
%TD*%
%TA.AperFunction,Conductor*%
%TO.N,Net-(D2-DO)*%
G36*
X81273052Y-84105752D02*
G01*
X81610100Y-84346500D01*
X81614841Y-84354098D01*
X81615000Y-84356021D01*
X81615000Y-84543979D01*
X81611573Y-84552252D01*
X81610100Y-84553500D01*
X81273052Y-84794247D01*
X81264328Y-84796267D01*
X81257991Y-84793011D01*
X80922307Y-84458283D01*
X80918869Y-84450017D01*
X80922283Y-84441740D01*
X81257992Y-84106987D01*
X81266269Y-84103573D01*
X81273052Y-84105752D01*
G37*
%TD.AperFunction*%
%TD*%
%TA.AperFunction,Conductor*%
%TO.N,Net-(D2-DO)*%
G36*
X83742008Y-84106988D02*
G01*
X84077691Y-84441715D01*
X84081130Y-84449983D01*
X84077715Y-84458261D01*
X84077691Y-84458285D01*
X83742008Y-84793011D01*
X83733730Y-84796426D01*
X83726947Y-84794247D01*
X83389900Y-84553500D01*
X83385159Y-84545902D01*
X83385000Y-84543979D01*
X83385000Y-84356021D01*
X83388427Y-84347748D01*
X83389900Y-84346500D01*
X83726947Y-84105752D01*
X83735670Y-84103732D01*
X83742008Y-84106988D01*
G37*
%TD.AperFunction*%
%TD*%
%TA.AperFunction,Conductor*%
%TO.N,Net-(D16-DO)*%
G36*
X85923259Y-80557283D02*
G01*
X86258011Y-80892991D01*
X86261426Y-80901269D01*
X86259247Y-80908052D01*
X86018500Y-81245100D01*
X86010903Y-81249841D01*
X86008979Y-81250000D01*
X85821021Y-81250000D01*
X85812748Y-81246573D01*
X85811500Y-81245100D01*
X85570752Y-80908052D01*
X85568732Y-80899329D01*
X85571986Y-80892993D01*
X85906716Y-80557307D01*
X85914983Y-80553869D01*
X85923259Y-80557283D01*
G37*
%TD.AperFunction*%
%TD*%
%TA.AperFunction,Conductor*%
%TO.N,Net-(D16-DO)*%
G36*
X86017252Y-83753427D02*
G01*
X86018500Y-83754900D01*
X86259247Y-84091947D01*
X86261267Y-84100670D01*
X86258011Y-84107008D01*
X85923285Y-84442691D01*
X85915017Y-84446130D01*
X85906739Y-84442715D01*
X85906715Y-84442691D01*
X85571988Y-84107008D01*
X85568573Y-84098730D01*
X85570752Y-84091947D01*
X85811500Y-83754900D01*
X85819098Y-83750159D01*
X85821021Y-83750000D01*
X86008979Y-83750000D01*
X86017252Y-83753427D01*
G37*
%TD.AperFunction*%
%TD*%
%TA.AperFunction,Conductor*%
%TO.N,Net-(D11-DO)*%
G36*
X83742008Y-80206988D02*
G01*
X84077691Y-80541715D01*
X84081130Y-80549983D01*
X84077715Y-80558261D01*
X84077691Y-80558285D01*
X83742008Y-80893011D01*
X83733730Y-80896426D01*
X83726947Y-80894247D01*
X83389900Y-80653500D01*
X83385159Y-80645902D01*
X83385000Y-80643979D01*
X83385000Y-80456021D01*
X83388427Y-80447748D01*
X83389900Y-80446500D01*
X83726947Y-80205752D01*
X83735670Y-80203732D01*
X83742008Y-80206988D01*
G37*
%TD.AperFunction*%
%TD*%
%TA.AperFunction,Conductor*%
%TO.N,Net-(D11-DO)*%
G36*
X81273052Y-80205752D02*
G01*
X81610100Y-80446500D01*
X81614841Y-80454098D01*
X81615000Y-80456021D01*
X81615000Y-80643979D01*
X81611573Y-80652252D01*
X81610100Y-80653500D01*
X81273052Y-80894247D01*
X81264328Y-80896267D01*
X81257991Y-80893011D01*
X80922307Y-80558283D01*
X80918869Y-80550017D01*
X80922283Y-80541740D01*
X81257992Y-80206987D01*
X81266269Y-80203573D01*
X81273052Y-80205752D01*
G37*
%TD.AperFunction*%
%TD*%
%TA.AperFunction,Conductor*%
%TO.N,Net-(D10-DI)*%
G36*
X71273052Y-100205752D02*
G01*
X71610100Y-100446500D01*
X71614841Y-100454098D01*
X71615000Y-100456021D01*
X71615000Y-100643979D01*
X71611573Y-100652252D01*
X71610100Y-100653500D01*
X71273052Y-100894247D01*
X71264328Y-100896267D01*
X71257991Y-100893011D01*
X70922307Y-100558283D01*
X70918869Y-100550017D01*
X70922283Y-100541740D01*
X71257992Y-100206987D01*
X71266269Y-100203573D01*
X71273052Y-100205752D01*
G37*
%TD.AperFunction*%
%TD*%
%TA.AperFunction,Conductor*%
%TO.N,Net-(D10-DI)*%
G36*
X73742008Y-100206988D02*
G01*
X74077691Y-100541715D01*
X74081130Y-100549983D01*
X74077715Y-100558261D01*
X74077691Y-100558285D01*
X73742008Y-100893011D01*
X73733730Y-100896426D01*
X73726947Y-100894247D01*
X73389900Y-100653500D01*
X73385159Y-100645902D01*
X73385000Y-100643979D01*
X73385000Y-100456021D01*
X73388427Y-100447748D01*
X73389900Y-100446500D01*
X73726947Y-100205752D01*
X73735670Y-100203732D01*
X73742008Y-100206988D01*
G37*
%TD.AperFunction*%
%TD*%
%TA.AperFunction,Conductor*%
%TO.N,Net-(D1-DO)*%
G36*
X71273052Y-80205752D02*
G01*
X71610100Y-80446500D01*
X71614841Y-80454098D01*
X71615000Y-80456021D01*
X71615000Y-80643979D01*
X71611573Y-80652252D01*
X71610100Y-80653500D01*
X71273052Y-80894247D01*
X71264328Y-80896267D01*
X71257991Y-80893011D01*
X70922307Y-80558283D01*
X70918869Y-80550017D01*
X70922283Y-80541740D01*
X71257992Y-80206987D01*
X71266269Y-80203573D01*
X71273052Y-80205752D01*
G37*
%TD.AperFunction*%
%TD*%
%TA.AperFunction,Conductor*%
%TO.N,Net-(D1-DO)*%
G36*
X73742008Y-80206988D02*
G01*
X74077691Y-80541715D01*
X74081130Y-80549983D01*
X74077715Y-80558261D01*
X74077691Y-80558285D01*
X73742008Y-80893011D01*
X73733730Y-80896426D01*
X73726947Y-80894247D01*
X73389900Y-80653500D01*
X73385159Y-80645902D01*
X73385000Y-80643979D01*
X73385000Y-80456021D01*
X73388427Y-80447748D01*
X73389900Y-80446500D01*
X73726947Y-80205752D01*
X73735670Y-80203732D01*
X73742008Y-80206988D01*
G37*
%TD.AperFunction*%
%TD*%
%TA.AperFunction,Conductor*%
%TO.N,/LED_DAT*%
G36*
X66821730Y-79870408D02*
G01*
X66827880Y-79876530D01*
X66879232Y-79995409D01*
X67020072Y-80321453D01*
X67060418Y-80414852D01*
X67060553Y-80423806D01*
X67057950Y-80427765D01*
X66927765Y-80557950D01*
X66919492Y-80561377D01*
X66914852Y-80560418D01*
X66376530Y-80327880D01*
X66370294Y-80321453D01*
X66370313Y-80312777D01*
X66495316Y-80001805D01*
X66501580Y-79995409D01*
X66501735Y-79995344D01*
X66812777Y-79870314D01*
X66821730Y-79870408D01*
G37*
%TD.AperFunction*%
%TD*%
%TA.AperFunction,Conductor*%
%TO.N,/LED_DAT*%
G36*
X68742008Y-80206988D02*
G01*
X69077691Y-80541715D01*
X69081130Y-80549983D01*
X69077715Y-80558261D01*
X69077691Y-80558285D01*
X68742008Y-80893011D01*
X68733730Y-80896426D01*
X68726947Y-80894247D01*
X68389900Y-80653500D01*
X68385159Y-80645902D01*
X68385000Y-80643979D01*
X68385000Y-80456021D01*
X68388427Y-80447748D01*
X68389900Y-80446500D01*
X68726947Y-80205752D01*
X68735670Y-80203732D01*
X68742008Y-80206988D01*
G37*
%TD.AperFunction*%
%TD*%
%TA.AperFunction,Conductor*%
%TO.N,Net-(D13-DI)*%
G36*
X76273052Y-90205752D02*
G01*
X76610100Y-90446500D01*
X76614841Y-90454098D01*
X76615000Y-90456021D01*
X76615000Y-90643979D01*
X76611573Y-90652252D01*
X76610100Y-90653500D01*
X76273052Y-90894247D01*
X76264328Y-90896267D01*
X76257991Y-90893011D01*
X75922307Y-90558283D01*
X75918869Y-90550017D01*
X75922283Y-90541740D01*
X76257992Y-90206987D01*
X76266269Y-90203573D01*
X76273052Y-90205752D01*
G37*
%TD.AperFunction*%
%TD*%
%TA.AperFunction,Conductor*%
%TO.N,Net-(D13-DI)*%
G36*
X78742008Y-90206988D02*
G01*
X79077691Y-90541715D01*
X79081130Y-90549983D01*
X79077715Y-90558261D01*
X79077691Y-90558285D01*
X78742008Y-90893011D01*
X78733730Y-90896426D01*
X78726947Y-90894247D01*
X78389900Y-90653500D01*
X78385159Y-90645902D01*
X78385000Y-90643979D01*
X78385000Y-90456021D01*
X78388427Y-90447748D01*
X78389900Y-90446500D01*
X78726947Y-90205752D01*
X78735670Y-90203732D01*
X78742008Y-90206988D01*
G37*
%TD.AperFunction*%
%TD*%
%TA.AperFunction,Conductor*%
%TO.N,Net-(D3-DO)*%
G36*
X73742008Y-90206988D02*
G01*
X74077691Y-90541715D01*
X74081130Y-90549983D01*
X74077715Y-90558261D01*
X74077691Y-90558285D01*
X73742008Y-90893011D01*
X73733730Y-90896426D01*
X73726947Y-90894247D01*
X73389900Y-90653500D01*
X73385159Y-90645902D01*
X73385000Y-90643979D01*
X73385000Y-90456021D01*
X73388427Y-90447748D01*
X73389900Y-90446500D01*
X73726947Y-90205752D01*
X73735670Y-90203732D01*
X73742008Y-90206988D01*
G37*
%TD.AperFunction*%
%TD*%
%TA.AperFunction,Conductor*%
%TO.N,Net-(D3-DO)*%
G36*
X71273052Y-90205752D02*
G01*
X71610100Y-90446500D01*
X71614841Y-90454098D01*
X71615000Y-90456021D01*
X71615000Y-90643979D01*
X71611573Y-90652252D01*
X71610100Y-90653500D01*
X71273052Y-90894247D01*
X71264328Y-90896267D01*
X71257991Y-90893011D01*
X70922307Y-90558283D01*
X70918869Y-90550017D01*
X70922283Y-90541740D01*
X71257992Y-90206987D01*
X71266269Y-90203573D01*
X71273052Y-90205752D01*
G37*
%TD.AperFunction*%
%TD*%
%TA.AperFunction,Conductor*%
%TO.N,Net-(D18-DO)*%
G36*
X85923259Y-90557283D02*
G01*
X86258011Y-90892991D01*
X86261426Y-90901269D01*
X86259247Y-90908052D01*
X86018500Y-91245100D01*
X86010903Y-91249841D01*
X86008979Y-91250000D01*
X85821021Y-91250000D01*
X85812748Y-91246573D01*
X85811500Y-91245100D01*
X85570752Y-90908052D01*
X85568732Y-90899329D01*
X85571986Y-90892993D01*
X85906716Y-90557307D01*
X85914983Y-90553869D01*
X85923259Y-90557283D01*
G37*
%TD.AperFunction*%
%TD*%
%TA.AperFunction,Conductor*%
%TO.N,Net-(D18-DO)*%
G36*
X86017252Y-93753427D02*
G01*
X86018500Y-93754900D01*
X86259247Y-94091947D01*
X86261267Y-94100670D01*
X86258011Y-94107008D01*
X85923285Y-94442691D01*
X85915017Y-94446130D01*
X85906739Y-94442715D01*
X85906715Y-94442691D01*
X85571988Y-94107008D01*
X85568573Y-94098730D01*
X85570752Y-94091947D01*
X85811500Y-93754900D01*
X85819098Y-93750159D01*
X85821021Y-93750000D01*
X86008979Y-93750000D01*
X86017252Y-93753427D01*
G37*
%TD.AperFunction*%
%TD*%
%TA.AperFunction,Conductor*%
%TO.N,Net-(D13-DO)*%
G36*
X83742008Y-90206988D02*
G01*
X84077691Y-90541715D01*
X84081130Y-90549983D01*
X84077715Y-90558261D01*
X84077691Y-90558285D01*
X83742008Y-90893011D01*
X83733730Y-90896426D01*
X83726947Y-90894247D01*
X83389900Y-90653500D01*
X83385159Y-90645902D01*
X83385000Y-90643979D01*
X83385000Y-90456021D01*
X83388427Y-90447748D01*
X83389900Y-90446500D01*
X83726947Y-90205752D01*
X83735670Y-90203732D01*
X83742008Y-90206988D01*
G37*
%TD.AperFunction*%
%TD*%
%TA.AperFunction,Conductor*%
%TO.N,Net-(D13-DO)*%
G36*
X81273052Y-90205752D02*
G01*
X81610100Y-90446500D01*
X81614841Y-90454098D01*
X81615000Y-90456021D01*
X81615000Y-90643979D01*
X81611573Y-90652252D01*
X81610100Y-90653500D01*
X81273052Y-90894247D01*
X81264328Y-90896267D01*
X81257991Y-90893011D01*
X80922307Y-90558283D01*
X80918869Y-90550017D01*
X80922283Y-90541740D01*
X81257992Y-90206987D01*
X81266269Y-90203573D01*
X81273052Y-90205752D01*
G37*
%TD.AperFunction*%
%TD*%
%TA.AperFunction,Conductor*%
%TO.N,Net-(D14-DI)*%
G36*
X78742008Y-94106988D02*
G01*
X79077691Y-94441715D01*
X79081130Y-94449983D01*
X79077715Y-94458261D01*
X79077691Y-94458285D01*
X78742008Y-94793011D01*
X78733730Y-94796426D01*
X78726947Y-94794247D01*
X78389900Y-94553500D01*
X78385159Y-94545902D01*
X78385000Y-94543979D01*
X78385000Y-94356021D01*
X78388427Y-94347748D01*
X78389900Y-94346500D01*
X78726947Y-94105752D01*
X78735670Y-94103732D01*
X78742008Y-94106988D01*
G37*
%TD.AperFunction*%
%TD*%
%TA.AperFunction,Conductor*%
%TO.N,Net-(D14-DI)*%
G36*
X76273052Y-94105752D02*
G01*
X76610100Y-94346500D01*
X76614841Y-94354098D01*
X76615000Y-94356021D01*
X76615000Y-94543979D01*
X76611573Y-94552252D01*
X76610100Y-94553500D01*
X76273052Y-94794247D01*
X76264328Y-94796267D01*
X76257991Y-94793011D01*
X75922307Y-94458283D01*
X75918869Y-94450017D01*
X75922283Y-94441740D01*
X76257992Y-94106987D01*
X76266269Y-94103573D01*
X76273052Y-94105752D01*
G37*
%TD.AperFunction*%
%TD*%
%TA.AperFunction,Conductor*%
%TO.N,Net-(D4-DO)*%
G36*
X83742008Y-94106988D02*
G01*
X84077691Y-94441715D01*
X84081130Y-94449983D01*
X84077715Y-94458261D01*
X84077691Y-94458285D01*
X83742008Y-94793011D01*
X83733730Y-94796426D01*
X83726947Y-94794247D01*
X83389900Y-94553500D01*
X83385159Y-94545902D01*
X83385000Y-94543979D01*
X83385000Y-94356021D01*
X83388427Y-94347748D01*
X83389900Y-94346500D01*
X83726947Y-94105752D01*
X83735670Y-94103732D01*
X83742008Y-94106988D01*
G37*
%TD.AperFunction*%
%TD*%
%TA.AperFunction,Conductor*%
%TO.N,Net-(D4-DO)*%
G36*
X81273052Y-94105752D02*
G01*
X81610100Y-94346500D01*
X81614841Y-94354098D01*
X81615000Y-94356021D01*
X81615000Y-94543979D01*
X81611573Y-94552252D01*
X81610100Y-94553500D01*
X81273052Y-94794247D01*
X81264328Y-94796267D01*
X81257991Y-94793011D01*
X80922307Y-94458283D01*
X80918869Y-94450017D01*
X80922283Y-94441740D01*
X81257992Y-94106987D01*
X81266269Y-94103573D01*
X81273052Y-94105752D01*
G37*
%TD.AperFunction*%
%TD*%
%TA.AperFunction,Conductor*%
%TO.N,Net-(D11-DI)*%
G36*
X78742008Y-80206988D02*
G01*
X79077691Y-80541715D01*
X79081130Y-80549983D01*
X79077715Y-80558261D01*
X79077691Y-80558285D01*
X78742008Y-80893011D01*
X78733730Y-80896426D01*
X78726947Y-80894247D01*
X78389900Y-80653500D01*
X78385159Y-80645902D01*
X78385000Y-80643979D01*
X78385000Y-80456021D01*
X78388427Y-80447748D01*
X78389900Y-80446500D01*
X78726947Y-80205752D01*
X78735670Y-80203732D01*
X78742008Y-80206988D01*
G37*
%TD.AperFunction*%
%TD*%
%TA.AperFunction,Conductor*%
%TO.N,Net-(D11-DI)*%
G36*
X76273052Y-80205752D02*
G01*
X76610100Y-80446500D01*
X76614841Y-80454098D01*
X76615000Y-80456021D01*
X76615000Y-80643979D01*
X76611573Y-80652252D01*
X76610100Y-80653500D01*
X76273052Y-80894247D01*
X76264328Y-80896267D01*
X76257991Y-80893011D01*
X75922307Y-80558283D01*
X75918869Y-80550017D01*
X75922283Y-80541740D01*
X76257992Y-80206987D01*
X76266269Y-80203573D01*
X76273052Y-80205752D01*
G37*
%TD.AperFunction*%
%TD*%
%TA.AperFunction,Conductor*%
%TO.N,Net-(D19-DO)*%
G36*
X68742008Y-100206988D02*
G01*
X69077691Y-100541715D01*
X69081130Y-100549983D01*
X69077715Y-100558261D01*
X69077691Y-100558285D01*
X68742008Y-100893011D01*
X68733730Y-100896426D01*
X68726947Y-100894247D01*
X68389900Y-100653500D01*
X68385159Y-100645902D01*
X68385000Y-100643979D01*
X68385000Y-100456021D01*
X68388427Y-100447748D01*
X68389900Y-100446500D01*
X68726947Y-100205752D01*
X68735670Y-100203732D01*
X68742008Y-100206988D01*
G37*
%TD.AperFunction*%
%TD*%
%TA.AperFunction,Conductor*%
%TO.N,Net-(D19-DO)*%
G36*
X68742008Y-94106988D02*
G01*
X69077691Y-94441715D01*
X69081130Y-94449983D01*
X69077715Y-94458261D01*
X69077691Y-94458285D01*
X68742008Y-94793011D01*
X68733730Y-94796426D01*
X68726947Y-94794247D01*
X68389900Y-94553500D01*
X68385159Y-94545902D01*
X68385000Y-94543979D01*
X68385000Y-94356021D01*
X68388427Y-94347748D01*
X68389900Y-94346500D01*
X68726947Y-94105752D01*
X68735670Y-94103732D01*
X68742008Y-94106988D01*
G37*
%TD.AperFunction*%
%TD*%
%TA.AperFunction,Conductor*%
%TO.N,Net-(D14-DO)*%
G36*
X71273052Y-94105752D02*
G01*
X71610100Y-94346500D01*
X71614841Y-94354098D01*
X71615000Y-94356021D01*
X71615000Y-94543979D01*
X71611573Y-94552252D01*
X71610100Y-94553500D01*
X71273052Y-94794247D01*
X71264328Y-94796267D01*
X71257991Y-94793011D01*
X70922307Y-94458283D01*
X70918869Y-94450017D01*
X70922283Y-94441740D01*
X71257992Y-94106987D01*
X71266269Y-94103573D01*
X71273052Y-94105752D01*
G37*
%TD.AperFunction*%
%TD*%
%TA.AperFunction,Conductor*%
%TO.N,Net-(D14-DO)*%
G36*
X73742008Y-94106988D02*
G01*
X74077691Y-94441715D01*
X74081130Y-94449983D01*
X74077715Y-94458261D01*
X74077691Y-94458285D01*
X73742008Y-94793011D01*
X73733730Y-94796426D01*
X73726947Y-94794247D01*
X73389900Y-94553500D01*
X73385159Y-94545902D01*
X73385000Y-94543979D01*
X73385000Y-94356021D01*
X73388427Y-94347748D01*
X73389900Y-94346500D01*
X73726947Y-94105752D01*
X73735670Y-94103732D01*
X73742008Y-94106988D01*
G37*
%TD.AperFunction*%
%TD*%
M02*
