%TF.GenerationSoftware,KiCad,Pcbnew,10.0.5*%
%TF.CreationDate,2026-09-20T00:29:37+01:00*%
%TF.ProjectId,falling-shapes-earrings,66616c6c-696e-4672-9d73-68617065732d,V1.0*%
%TF.SameCoordinates,Original*%
%TF.FileFunction,Legend,Bot*%
%TF.FilePolarity,Positive*%
%FSLAX46Y46*%
G04 Gerber Fmt 4.6, Leading zero omitted, Abs format (unit mm)*
G04 Created by KiCad (PCBNEW 10.0.5) date 2026-09-20 00:29:37*
%MOMM*%
%LPD*%
G01*
G04 APERTURE LIST*
%ADD10C,0.150000*%
%ADD11C,0.300000*%
%ADD12C,0.200000*%
%ADD13C,0.275000*%
%ADD14C,0.250000*%
G04 APERTURE END LIST*
D10*
X81869819Y-67336779D02*
X80869819Y-67336779D01*
X80869819Y-67336779D02*
X80869819Y-67574874D01*
X80869819Y-67574874D02*
X80917438Y-67717731D01*
X80917438Y-67717731D02*
X81012676Y-67812969D01*
X81012676Y-67812969D02*
X81107914Y-67860588D01*
X81107914Y-67860588D02*
X81298390Y-67908207D01*
X81298390Y-67908207D02*
X81441247Y-67908207D01*
X81441247Y-67908207D02*
X81631723Y-67860588D01*
X81631723Y-67860588D02*
X81726961Y-67812969D01*
X81726961Y-67812969D02*
X81822200Y-67717731D01*
X81822200Y-67717731D02*
X81869819Y-67574874D01*
X81869819Y-67574874D02*
X81869819Y-67336779D01*
X81346009Y-68336779D02*
X81346009Y-68670112D01*
X81869819Y-68812969D02*
X81869819Y-68336779D01*
X81869819Y-68336779D02*
X80869819Y-68336779D01*
X80869819Y-68336779D02*
X80869819Y-68812969D01*
X81822200Y-69193922D02*
X81869819Y-69336779D01*
X81869819Y-69336779D02*
X81869819Y-69574874D01*
X81869819Y-69574874D02*
X81822200Y-69670112D01*
X81822200Y-69670112D02*
X81774580Y-69717731D01*
X81774580Y-69717731D02*
X81679342Y-69765350D01*
X81679342Y-69765350D02*
X81584104Y-69765350D01*
X81584104Y-69765350D02*
X81488866Y-69717731D01*
X81488866Y-69717731D02*
X81441247Y-69670112D01*
X81441247Y-69670112D02*
X81393628Y-69574874D01*
X81393628Y-69574874D02*
X81346009Y-69384398D01*
X81346009Y-69384398D02*
X81298390Y-69289160D01*
X81298390Y-69289160D02*
X81250771Y-69241541D01*
X81250771Y-69241541D02*
X81155533Y-69193922D01*
X81155533Y-69193922D02*
X81060295Y-69193922D01*
X81060295Y-69193922D02*
X80965057Y-69241541D01*
X80965057Y-69241541D02*
X80917438Y-69289160D01*
X80917438Y-69289160D02*
X80869819Y-69384398D01*
X80869819Y-69384398D02*
X80869819Y-69622493D01*
X80869819Y-69622493D02*
X80917438Y-69765350D01*
X81774580Y-70193922D02*
X81822200Y-70241541D01*
X81822200Y-70241541D02*
X81869819Y-70193922D01*
X81869819Y-70193922D02*
X81822200Y-70146303D01*
X81822200Y-70146303D02*
X81774580Y-70193922D01*
X81774580Y-70193922D02*
X81869819Y-70193922D01*
X81250771Y-70193922D02*
X81298390Y-70241541D01*
X81298390Y-70241541D02*
X81346009Y-70193922D01*
X81346009Y-70193922D02*
X81298390Y-70146303D01*
X81298390Y-70146303D02*
X81250771Y-70193922D01*
X81250771Y-70193922D02*
X81346009Y-70193922D01*
X80869819Y-71289160D02*
X80869819Y-71860588D01*
X81869819Y-71574874D02*
X80869819Y-71574874D01*
X81822200Y-72146303D02*
X81869819Y-72289160D01*
X81869819Y-72289160D02*
X81869819Y-72527255D01*
X81869819Y-72527255D02*
X81822200Y-72622493D01*
X81822200Y-72622493D02*
X81774580Y-72670112D01*
X81774580Y-72670112D02*
X81679342Y-72717731D01*
X81679342Y-72717731D02*
X81584104Y-72717731D01*
X81584104Y-72717731D02*
X81488866Y-72670112D01*
X81488866Y-72670112D02*
X81441247Y-72622493D01*
X81441247Y-72622493D02*
X81393628Y-72527255D01*
X81393628Y-72527255D02*
X81346009Y-72336779D01*
X81346009Y-72336779D02*
X81298390Y-72241541D01*
X81298390Y-72241541D02*
X81250771Y-72193922D01*
X81250771Y-72193922D02*
X81155533Y-72146303D01*
X81155533Y-72146303D02*
X81060295Y-72146303D01*
X81060295Y-72146303D02*
X80965057Y-72193922D01*
X80965057Y-72193922D02*
X80917438Y-72241541D01*
X80917438Y-72241541D02*
X80869819Y-72336779D01*
X80869819Y-72336779D02*
X80869819Y-72574874D01*
X80869819Y-72574874D02*
X80917438Y-72717731D01*
X81584104Y-73098684D02*
X81584104Y-73574874D01*
X81869819Y-73003446D02*
X80869819Y-73336779D01*
X80869819Y-73336779D02*
X81869819Y-73670112D01*
X85190475Y-99954819D02*
X84523809Y-100954819D01*
X84523809Y-99954819D02*
X85190475Y-100954819D01*
X83809523Y-100431009D02*
X83666666Y-100478628D01*
X83666666Y-100478628D02*
X83619047Y-100526247D01*
X83619047Y-100526247D02*
X83571428Y-100621485D01*
X83571428Y-100621485D02*
X83571428Y-100764342D01*
X83571428Y-100764342D02*
X83619047Y-100859580D01*
X83619047Y-100859580D02*
X83666666Y-100907200D01*
X83666666Y-100907200D02*
X83761904Y-100954819D01*
X83761904Y-100954819D02*
X84142856Y-100954819D01*
X84142856Y-100954819D02*
X84142856Y-99954819D01*
X84142856Y-99954819D02*
X83809523Y-99954819D01*
X83809523Y-99954819D02*
X83714285Y-100002438D01*
X83714285Y-100002438D02*
X83666666Y-100050057D01*
X83666666Y-100050057D02*
X83619047Y-100145295D01*
X83619047Y-100145295D02*
X83619047Y-100240533D01*
X83619047Y-100240533D02*
X83666666Y-100335771D01*
X83666666Y-100335771D02*
X83714285Y-100383390D01*
X83714285Y-100383390D02*
X83809523Y-100431009D01*
X83809523Y-100431009D02*
X84142856Y-100431009D01*
X83285713Y-99954819D02*
X82714285Y-99954819D01*
X82999999Y-100954819D02*
X82999999Y-99954819D01*
X81857142Y-100954819D02*
X82428570Y-100954819D01*
X82142856Y-100954819D02*
X82142856Y-99954819D01*
X82142856Y-99954819D02*
X82238094Y-100097676D01*
X82238094Y-100097676D02*
X82333332Y-100192914D01*
X82333332Y-100192914D02*
X82428570Y-100240533D01*
D11*
X78071428Y-74606900D02*
X76928571Y-74606900D01*
X77499999Y-75178328D02*
X77499999Y-74035471D01*
X78071428Y-105106900D02*
X76928571Y-105106900D01*
D10*
X86761904Y-67407200D02*
X86619047Y-67454819D01*
X86619047Y-67454819D02*
X86380952Y-67454819D01*
X86380952Y-67454819D02*
X86285714Y-67407200D01*
X86285714Y-67407200D02*
X86238095Y-67359580D01*
X86238095Y-67359580D02*
X86190476Y-67264342D01*
X86190476Y-67264342D02*
X86190476Y-67169104D01*
X86190476Y-67169104D02*
X86238095Y-67073866D01*
X86238095Y-67073866D02*
X86285714Y-67026247D01*
X86285714Y-67026247D02*
X86380952Y-66978628D01*
X86380952Y-66978628D02*
X86571428Y-66931009D01*
X86571428Y-66931009D02*
X86666666Y-66883390D01*
X86666666Y-66883390D02*
X86714285Y-66835771D01*
X86714285Y-66835771D02*
X86761904Y-66740533D01*
X86761904Y-66740533D02*
X86761904Y-66645295D01*
X86761904Y-66645295D02*
X86714285Y-66550057D01*
X86714285Y-66550057D02*
X86666666Y-66502438D01*
X86666666Y-66502438D02*
X86571428Y-66454819D01*
X86571428Y-66454819D02*
X86333333Y-66454819D01*
X86333333Y-66454819D02*
X86190476Y-66502438D01*
X85238095Y-67454819D02*
X85809523Y-67454819D01*
X85523809Y-67454819D02*
X85523809Y-66454819D01*
X85523809Y-66454819D02*
X85619047Y-66597676D01*
X85619047Y-66597676D02*
X85714285Y-66692914D01*
X85714285Y-66692914D02*
X85809523Y-66740533D01*
X88166666Y-88859580D02*
X88214285Y-88907200D01*
X88214285Y-88907200D02*
X88357142Y-88954819D01*
X88357142Y-88954819D02*
X88452380Y-88954819D01*
X88452380Y-88954819D02*
X88595237Y-88907200D01*
X88595237Y-88907200D02*
X88690475Y-88811961D01*
X88690475Y-88811961D02*
X88738094Y-88716723D01*
X88738094Y-88716723D02*
X88785713Y-88526247D01*
X88785713Y-88526247D02*
X88785713Y-88383390D01*
X88785713Y-88383390D02*
X88738094Y-88192914D01*
X88738094Y-88192914D02*
X88690475Y-88097676D01*
X88690475Y-88097676D02*
X88595237Y-88002438D01*
X88595237Y-88002438D02*
X88452380Y-87954819D01*
X88452380Y-87954819D02*
X88357142Y-87954819D01*
X88357142Y-87954819D02*
X88214285Y-88002438D01*
X88214285Y-88002438D02*
X88166666Y-88050057D01*
X87309523Y-88288152D02*
X87309523Y-88954819D01*
X87547618Y-87907200D02*
X87785713Y-88621485D01*
X87785713Y-88621485D02*
X87166666Y-88621485D01*
X72416666Y-66454819D02*
X72749999Y-65978628D01*
X72988094Y-66454819D02*
X72988094Y-65454819D01*
X72988094Y-65454819D02*
X72607142Y-65454819D01*
X72607142Y-65454819D02*
X72511904Y-65502438D01*
X72511904Y-65502438D02*
X72464285Y-65550057D01*
X72464285Y-65550057D02*
X72416666Y-65645295D01*
X72416666Y-65645295D02*
X72416666Y-65788152D01*
X72416666Y-65788152D02*
X72464285Y-65883390D01*
X72464285Y-65883390D02*
X72511904Y-65931009D01*
X72511904Y-65931009D02*
X72607142Y-65978628D01*
X72607142Y-65978628D02*
X72988094Y-65978628D01*
X71464285Y-66454819D02*
X72035713Y-66454819D01*
X71749999Y-66454819D02*
X71749999Y-65454819D01*
X71749999Y-65454819D02*
X71845237Y-65597676D01*
X71845237Y-65597676D02*
X71940475Y-65692914D01*
X71940475Y-65692914D02*
X72035713Y-65740533D01*
X76761904Y-70954819D02*
X76761904Y-71764342D01*
X76761904Y-71764342D02*
X76714285Y-71859580D01*
X76714285Y-71859580D02*
X76666666Y-71907200D01*
X76666666Y-71907200D02*
X76571428Y-71954819D01*
X76571428Y-71954819D02*
X76380952Y-71954819D01*
X76380952Y-71954819D02*
X76285714Y-71907200D01*
X76285714Y-71907200D02*
X76238095Y-71859580D01*
X76238095Y-71859580D02*
X76190476Y-71764342D01*
X76190476Y-71764342D02*
X76190476Y-70954819D01*
X75190476Y-71954819D02*
X75761904Y-71954819D01*
X75476190Y-71954819D02*
X75476190Y-70954819D01*
X75476190Y-70954819D02*
X75571428Y-71097676D01*
X75571428Y-71097676D02*
X75666666Y-71192914D01*
X75666666Y-71192914D02*
X75761904Y-71240533D01*
X71413220Y-104204819D02*
X71413220Y-103204819D01*
X71413220Y-103204819D02*
X71032268Y-103204819D01*
X71032268Y-103204819D02*
X70937030Y-103252438D01*
X70937030Y-103252438D02*
X70889411Y-103300057D01*
X70889411Y-103300057D02*
X70841792Y-103395295D01*
X70841792Y-103395295D02*
X70841792Y-103538152D01*
X70841792Y-103538152D02*
X70889411Y-103633390D01*
X70889411Y-103633390D02*
X70937030Y-103681009D01*
X70937030Y-103681009D02*
X71032268Y-103728628D01*
X71032268Y-103728628D02*
X71413220Y-103728628D01*
X70508458Y-103204819D02*
X70270363Y-104204819D01*
X70270363Y-104204819D02*
X70079887Y-103490533D01*
X70079887Y-103490533D02*
X69889411Y-104204819D01*
X69889411Y-104204819D02*
X69651316Y-103204819D01*
X68698935Y-104204819D02*
X69032268Y-103728628D01*
X69270363Y-104204819D02*
X69270363Y-103204819D01*
X69270363Y-103204819D02*
X68889411Y-103204819D01*
X68889411Y-103204819D02*
X68794173Y-103252438D01*
X68794173Y-103252438D02*
X68746554Y-103300057D01*
X68746554Y-103300057D02*
X68698935Y-103395295D01*
X68698935Y-103395295D02*
X68698935Y-103538152D01*
X68698935Y-103538152D02*
X68746554Y-103633390D01*
X68746554Y-103633390D02*
X68794173Y-103681009D01*
X68794173Y-103681009D02*
X68889411Y-103728628D01*
X68889411Y-103728628D02*
X69270363Y-103728628D01*
X68666666Y-66359580D02*
X68714285Y-66407200D01*
X68714285Y-66407200D02*
X68857142Y-66454819D01*
X68857142Y-66454819D02*
X68952380Y-66454819D01*
X68952380Y-66454819D02*
X69095237Y-66407200D01*
X69095237Y-66407200D02*
X69190475Y-66311961D01*
X69190475Y-66311961D02*
X69238094Y-66216723D01*
X69238094Y-66216723D02*
X69285713Y-66026247D01*
X69285713Y-66026247D02*
X69285713Y-65883390D01*
X69285713Y-65883390D02*
X69238094Y-65692914D01*
X69238094Y-65692914D02*
X69190475Y-65597676D01*
X69190475Y-65597676D02*
X69095237Y-65502438D01*
X69095237Y-65502438D02*
X68952380Y-65454819D01*
X68952380Y-65454819D02*
X68857142Y-65454819D01*
X68857142Y-65454819D02*
X68714285Y-65502438D01*
X68714285Y-65502438D02*
X68666666Y-65550057D01*
X67714285Y-66454819D02*
X68285713Y-66454819D01*
X67999999Y-66454819D02*
X67999999Y-65454819D01*
X67999999Y-65454819D02*
X68095237Y-65597676D01*
X68095237Y-65597676D02*
X68190475Y-65692914D01*
X68190475Y-65692914D02*
X68285713Y-65740533D01*
X72437030Y-80454819D02*
X72913220Y-80454819D01*
X72913220Y-80454819D02*
X72913220Y-79454819D01*
X72103696Y-79931009D02*
X71770363Y-79931009D01*
X71627506Y-80454819D02*
X72103696Y-80454819D01*
X72103696Y-80454819D02*
X72103696Y-79454819D01*
X72103696Y-79454819D02*
X71627506Y-79454819D01*
X71198934Y-80454819D02*
X71198934Y-79454819D01*
X71198934Y-79454819D02*
X70960839Y-79454819D01*
X70960839Y-79454819D02*
X70817982Y-79502438D01*
X70817982Y-79502438D02*
X70722744Y-79597676D01*
X70722744Y-79597676D02*
X70675125Y-79692914D01*
X70675125Y-79692914D02*
X70627506Y-79883390D01*
X70627506Y-79883390D02*
X70627506Y-80026247D01*
X70627506Y-80026247D02*
X70675125Y-80216723D01*
X70675125Y-80216723D02*
X70722744Y-80311961D01*
X70722744Y-80311961D02*
X70817982Y-80407200D01*
X70817982Y-80407200D02*
X70960839Y-80454819D01*
X70960839Y-80454819D02*
X71198934Y-80454819D01*
X70437030Y-80550057D02*
X69675125Y-80550057D01*
X69437029Y-80454819D02*
X69437029Y-79454819D01*
X69437029Y-79454819D02*
X69198934Y-79454819D01*
X69198934Y-79454819D02*
X69056077Y-79502438D01*
X69056077Y-79502438D02*
X68960839Y-79597676D01*
X68960839Y-79597676D02*
X68913220Y-79692914D01*
X68913220Y-79692914D02*
X68865601Y-79883390D01*
X68865601Y-79883390D02*
X68865601Y-80026247D01*
X68865601Y-80026247D02*
X68913220Y-80216723D01*
X68913220Y-80216723D02*
X68960839Y-80311961D01*
X68960839Y-80311961D02*
X69056077Y-80407200D01*
X69056077Y-80407200D02*
X69198934Y-80454819D01*
X69198934Y-80454819D02*
X69437029Y-80454819D01*
X68484648Y-80169104D02*
X68008458Y-80169104D01*
X68579886Y-80454819D02*
X68246553Y-79454819D01*
X68246553Y-79454819D02*
X67913220Y-80454819D01*
X67722743Y-79454819D02*
X67151315Y-79454819D01*
X67437029Y-80454819D02*
X67437029Y-79454819D01*
X67416666Y-94859580D02*
X67464285Y-94907200D01*
X67464285Y-94907200D02*
X67607142Y-94954819D01*
X67607142Y-94954819D02*
X67702380Y-94954819D01*
X67702380Y-94954819D02*
X67845237Y-94907200D01*
X67845237Y-94907200D02*
X67940475Y-94811961D01*
X67940475Y-94811961D02*
X67988094Y-94716723D01*
X67988094Y-94716723D02*
X68035713Y-94526247D01*
X68035713Y-94526247D02*
X68035713Y-94383390D01*
X68035713Y-94383390D02*
X67988094Y-94192914D01*
X67988094Y-94192914D02*
X67940475Y-94097676D01*
X67940475Y-94097676D02*
X67845237Y-94002438D01*
X67845237Y-94002438D02*
X67702380Y-93954819D01*
X67702380Y-93954819D02*
X67607142Y-93954819D01*
X67607142Y-93954819D02*
X67464285Y-94002438D01*
X67464285Y-94002438D02*
X67416666Y-94050057D01*
X66511904Y-93954819D02*
X66988094Y-93954819D01*
X66988094Y-93954819D02*
X67035713Y-94431009D01*
X67035713Y-94431009D02*
X66988094Y-94383390D01*
X66988094Y-94383390D02*
X66892856Y-94335771D01*
X66892856Y-94335771D02*
X66654761Y-94335771D01*
X66654761Y-94335771D02*
X66559523Y-94383390D01*
X66559523Y-94383390D02*
X66511904Y-94431009D01*
X66511904Y-94431009D02*
X66464285Y-94526247D01*
X66464285Y-94526247D02*
X66464285Y-94764342D01*
X66464285Y-94764342D02*
X66511904Y-94859580D01*
X66511904Y-94859580D02*
X66559523Y-94907200D01*
X66559523Y-94907200D02*
X66654761Y-94954819D01*
X66654761Y-94954819D02*
X66892856Y-94954819D01*
X66892856Y-94954819D02*
X66988094Y-94907200D01*
X66988094Y-94907200D02*
X67035713Y-94859580D01*
X68954819Y-76333333D02*
X68478628Y-76000000D01*
X68954819Y-75761905D02*
X67954819Y-75761905D01*
X67954819Y-75761905D02*
X67954819Y-76142857D01*
X67954819Y-76142857D02*
X68002438Y-76238095D01*
X68002438Y-76238095D02*
X68050057Y-76285714D01*
X68050057Y-76285714D02*
X68145295Y-76333333D01*
X68145295Y-76333333D02*
X68288152Y-76333333D01*
X68288152Y-76333333D02*
X68383390Y-76285714D01*
X68383390Y-76285714D02*
X68431009Y-76238095D01*
X68431009Y-76238095D02*
X68478628Y-76142857D01*
X68478628Y-76142857D02*
X68478628Y-75761905D01*
X68050057Y-76714286D02*
X68002438Y-76761905D01*
X68002438Y-76761905D02*
X67954819Y-76857143D01*
X67954819Y-76857143D02*
X67954819Y-77095238D01*
X67954819Y-77095238D02*
X68002438Y-77190476D01*
X68002438Y-77190476D02*
X68050057Y-77238095D01*
X68050057Y-77238095D02*
X68145295Y-77285714D01*
X68145295Y-77285714D02*
X68240533Y-77285714D01*
X68240533Y-77285714D02*
X68383390Y-77238095D01*
X68383390Y-77238095D02*
X68954819Y-76666667D01*
X68954819Y-76666667D02*
X68954819Y-77285714D01*
X85639411Y-103002438D02*
X85734649Y-102954819D01*
X85734649Y-102954819D02*
X85877506Y-102954819D01*
X85877506Y-102954819D02*
X86020363Y-103002438D01*
X86020363Y-103002438D02*
X86115601Y-103097676D01*
X86115601Y-103097676D02*
X86163220Y-103192914D01*
X86163220Y-103192914D02*
X86210839Y-103383390D01*
X86210839Y-103383390D02*
X86210839Y-103526247D01*
X86210839Y-103526247D02*
X86163220Y-103716723D01*
X86163220Y-103716723D02*
X86115601Y-103811961D01*
X86115601Y-103811961D02*
X86020363Y-103907200D01*
X86020363Y-103907200D02*
X85877506Y-103954819D01*
X85877506Y-103954819D02*
X85782268Y-103954819D01*
X85782268Y-103954819D02*
X85639411Y-103907200D01*
X85639411Y-103907200D02*
X85591792Y-103859580D01*
X85591792Y-103859580D02*
X85591792Y-103526247D01*
X85591792Y-103526247D02*
X85782268Y-103526247D01*
X85163220Y-103954819D02*
X85163220Y-102954819D01*
X85163220Y-102954819D02*
X84591792Y-103954819D01*
X84591792Y-103954819D02*
X84591792Y-102954819D01*
X84115601Y-103954819D02*
X84115601Y-102954819D01*
X84115601Y-102954819D02*
X83877506Y-102954819D01*
X83877506Y-102954819D02*
X83734649Y-103002438D01*
X83734649Y-103002438D02*
X83639411Y-103097676D01*
X83639411Y-103097676D02*
X83591792Y-103192914D01*
X83591792Y-103192914D02*
X83544173Y-103383390D01*
X83544173Y-103383390D02*
X83544173Y-103526247D01*
X83544173Y-103526247D02*
X83591792Y-103716723D01*
X83591792Y-103716723D02*
X83639411Y-103811961D01*
X83639411Y-103811961D02*
X83734649Y-103907200D01*
X83734649Y-103907200D02*
X83877506Y-103954819D01*
X83877506Y-103954819D02*
X84115601Y-103954819D01*
X88166666Y-79109580D02*
X88214285Y-79157200D01*
X88214285Y-79157200D02*
X88357142Y-79204819D01*
X88357142Y-79204819D02*
X88452380Y-79204819D01*
X88452380Y-79204819D02*
X88595237Y-79157200D01*
X88595237Y-79157200D02*
X88690475Y-79061961D01*
X88690475Y-79061961D02*
X88738094Y-78966723D01*
X88738094Y-78966723D02*
X88785713Y-78776247D01*
X88785713Y-78776247D02*
X88785713Y-78633390D01*
X88785713Y-78633390D02*
X88738094Y-78442914D01*
X88738094Y-78442914D02*
X88690475Y-78347676D01*
X88690475Y-78347676D02*
X88595237Y-78252438D01*
X88595237Y-78252438D02*
X88452380Y-78204819D01*
X88452380Y-78204819D02*
X88357142Y-78204819D01*
X88357142Y-78204819D02*
X88214285Y-78252438D01*
X88214285Y-78252438D02*
X88166666Y-78300057D01*
X87785713Y-78300057D02*
X87738094Y-78252438D01*
X87738094Y-78252438D02*
X87642856Y-78204819D01*
X87642856Y-78204819D02*
X87404761Y-78204819D01*
X87404761Y-78204819D02*
X87309523Y-78252438D01*
X87309523Y-78252438D02*
X87261904Y-78300057D01*
X87261904Y-78300057D02*
X87214285Y-78395295D01*
X87214285Y-78395295D02*
X87214285Y-78490533D01*
X87214285Y-78490533D02*
X87261904Y-78633390D01*
X87261904Y-78633390D02*
X87833332Y-79204819D01*
X87833332Y-79204819D02*
X87214285Y-79204819D01*
X67416666Y-83859580D02*
X67464285Y-83907200D01*
X67464285Y-83907200D02*
X67607142Y-83954819D01*
X67607142Y-83954819D02*
X67702380Y-83954819D01*
X67702380Y-83954819D02*
X67845237Y-83907200D01*
X67845237Y-83907200D02*
X67940475Y-83811961D01*
X67940475Y-83811961D02*
X67988094Y-83716723D01*
X67988094Y-83716723D02*
X68035713Y-83526247D01*
X68035713Y-83526247D02*
X68035713Y-83383390D01*
X68035713Y-83383390D02*
X67988094Y-83192914D01*
X67988094Y-83192914D02*
X67940475Y-83097676D01*
X67940475Y-83097676D02*
X67845237Y-83002438D01*
X67845237Y-83002438D02*
X67702380Y-82954819D01*
X67702380Y-82954819D02*
X67607142Y-82954819D01*
X67607142Y-82954819D02*
X67464285Y-83002438D01*
X67464285Y-83002438D02*
X67416666Y-83050057D01*
X67083332Y-82954819D02*
X66464285Y-82954819D01*
X66464285Y-82954819D02*
X66797618Y-83335771D01*
X66797618Y-83335771D02*
X66654761Y-83335771D01*
X66654761Y-83335771D02*
X66559523Y-83383390D01*
X66559523Y-83383390D02*
X66511904Y-83431009D01*
X66511904Y-83431009D02*
X66464285Y-83526247D01*
X66464285Y-83526247D02*
X66464285Y-83764342D01*
X66464285Y-83764342D02*
X66511904Y-83859580D01*
X66511904Y-83859580D02*
X66559523Y-83907200D01*
X66559523Y-83907200D02*
X66654761Y-83954819D01*
X66654761Y-83954819D02*
X66940475Y-83954819D01*
X66940475Y-83954819D02*
X67035713Y-83907200D01*
X67035713Y-83907200D02*
X67083332Y-83859580D01*
%TO.C,XBT1*%
D12*
X74000000Y-77850000D02*
X74000000Y-80800000D01*
X75000000Y-77850000D02*
X74000000Y-77850000D01*
X81000000Y-77850000D02*
X80000000Y-77850000D01*
X74000000Y-80800000D02*
X73500000Y-81000000D01*
X81000000Y-80800000D02*
X81000000Y-77850000D01*
X73500000Y-81000000D02*
X73500000Y-81000000D01*
X81500000Y-81000000D02*
X81000000Y-80800000D01*
X71000000Y-83200000D02*
X70250000Y-84600000D01*
X84000000Y-83200000D02*
X84000000Y-83200000D01*
X70250000Y-84600000D02*
X70250000Y-90000000D01*
X84750000Y-84600000D02*
X84000000Y-83200000D01*
X84750000Y-87500000D02*
X84750000Y-84600000D01*
X84000000Y-88000000D02*
X84750000Y-87500000D01*
X84000000Y-90000000D02*
X84000000Y-88000000D01*
X84000000Y-90000000D02*
X84000000Y-92000000D01*
X84000000Y-92000000D02*
X84750000Y-92500000D01*
X84750000Y-92500000D02*
X84750000Y-95400000D01*
X70250000Y-95400000D02*
X70250000Y-90000000D01*
X84750000Y-95400000D02*
X84000000Y-96800000D01*
X71000000Y-96800000D02*
X70250000Y-95400000D01*
X84000000Y-96800000D02*
X84000000Y-96800000D01*
X73500000Y-99000000D02*
X73500000Y-99000000D01*
X81500000Y-99000000D02*
X81000000Y-99200000D01*
X74000000Y-99200000D02*
X73500000Y-99000000D01*
X81000000Y-99200000D02*
X81000000Y-102150000D01*
X74000000Y-102150000D02*
X74000000Y-99200000D01*
X75000000Y-102150000D02*
X74000000Y-102150000D01*
X81000000Y-102150000D02*
X80000000Y-102150000D01*
X70999625Y-83200694D02*
G75*
G02*
X73500000Y-81000000I4348877J-2420308D01*
G01*
X81503582Y-81001222D02*
G75*
G02*
X84000000Y-83200000I-1700075J-4446771D01*
G01*
X73500000Y-99000000D02*
G75*
G02*
X70999625Y-96799306I1848500J4621000D01*
G01*
X84000000Y-96800000D02*
G75*
G02*
X81503582Y-98998778I-4196500J2248000D01*
G01*
%TO.C,S1*%
X89300000Y-69900000D02*
X89300000Y-75100000D01*
D13*
X85237500Y-70250000D02*
G75*
G02*
X84962500Y-70250000I-137500J0D01*
G01*
X84962500Y-70250000D02*
G75*
G02*
X85237500Y-70250000I137500J0D01*
G01*
%TO.C,C4*%
D12*
X88000000Y-89400000D02*
X88000000Y-90600000D01*
%TO.C,R1*%
X72250000Y-68100000D02*
X72250000Y-66900000D01*
%TO.C,U1*%
X67850000Y-74425000D02*
X72650000Y-74425000D01*
X72650000Y-68575000D02*
X67850000Y-68575000D01*
D14*
X74000000Y-68900000D02*
G75*
G02*
X73750000Y-68900000I-125000J0D01*
G01*
X73750000Y-68900000D02*
G75*
G02*
X74000000Y-68900000I125000J0D01*
G01*
%TO.C,C1*%
D12*
X68500000Y-66900000D02*
X68500000Y-68100000D01*
%TO.C,C5*%
X67250000Y-96600000D02*
X67250000Y-95400000D01*
%TO.C,R2*%
X66150000Y-76500000D02*
X67350000Y-76500000D01*
%TO.C,C2*%
X88000000Y-79650000D02*
X88000000Y-80850000D01*
%TO.C,C3*%
X67250000Y-85600000D02*
X67250000Y-84400000D01*
%TD*%
M02*
