%TF.GenerationSoftware,KiCad,Pcbnew,10.0.5*%
%TF.CreationDate,2026-09-20T00:29:37+01:00*%
%TF.ProjectId,falling-shapes-earrings,66616c6c-696e-4672-9d73-68617065732d,V1.0*%
%TF.SameCoordinates,Original*%
%TF.FileFunction,Legend,Top*%
%TF.FilePolarity,Positive*%
%FSLAX46Y46*%
G04 Gerber Fmt 4.6, Leading zero omitted, Abs format (unit mm)*
G04 Created by KiCad (PCBNEW 10.0.5) date 2026-09-20 00:29:37*
%MOMM*%
%LPD*%
G01*
G04 APERTURE LIST*
%ADD10C,0.150000*%
%ADD11C,0.200000*%
G04 APERTURE END LIST*
D10*
X82119048Y-68073866D02*
X82880953Y-68073866D01*
X82500000Y-68454819D02*
X82500000Y-67692914D01*
X72119048Y-68073866D02*
X72880953Y-68073866D01*
%TO.C,D20*%
D11*
X86500000Y-100900000D02*
X86500000Y-99100000D01*
%TO.C,D15*%
X81500000Y-100900000D02*
X81500000Y-99100000D01*
%TO.C,D17*%
X68500000Y-84100000D02*
X68500000Y-85900000D01*
%TO.C,D7*%
X78500000Y-84100000D02*
X78500000Y-85900000D01*
%TO.C,D16*%
X86500000Y-80900000D02*
X86500000Y-79100000D01*
%TO.C,D10*%
X76500000Y-100900000D02*
X76500000Y-99100000D01*
%TO.C,D1*%
X71500000Y-80900000D02*
X71500000Y-79100000D01*
%TO.C,D8*%
X76500000Y-90900000D02*
X76500000Y-89100000D01*
%TO.C,D18*%
X86500000Y-90900000D02*
X86500000Y-89100000D01*
%TO.C,D2*%
X83500000Y-84100000D02*
X83500000Y-85900000D01*
%TO.C,D9*%
X78500000Y-94100000D02*
X78500000Y-95900000D01*
%TO.C,D12*%
X73500000Y-84100000D02*
X73500000Y-85900000D01*
%TO.C,D3*%
X71500000Y-90900000D02*
X71500000Y-89100000D01*
%TO.C,D11*%
X81500000Y-80900000D02*
X81500000Y-79100000D01*
%TO.C,D5*%
X71500000Y-100900000D02*
X71500000Y-99100000D01*
%TO.C,D19*%
X68500000Y-94100000D02*
X68500000Y-95900000D01*
%TO.C,D4*%
X83500000Y-94100000D02*
X83500000Y-95900000D01*
%TO.C,D13*%
X81500000Y-90900000D02*
X81500000Y-89100000D01*
%TO.C,D6*%
X76500000Y-80900000D02*
X76500000Y-79100000D01*
%TO.C,D14*%
X73500000Y-94100000D02*
X73500000Y-95900000D01*
%TD*%
M02*
