%TF.GenerationSoftware,KiCad,Pcbnew,10.0.5*%
%TF.CreationDate,2026-09-20T00:29:37+01:00*%
%TF.ProjectId,falling-shapes-earrings,66616c6c-696e-4672-9d73-68617065732d,V1.0*%
%TF.SameCoordinates,Original*%
%TF.FileFunction,Paste,Top*%
%TF.FilePolarity,Positive*%
%FSLAX46Y46*%
G04 Gerber Fmt 4.6, Leading zero omitted, Abs format (unit mm)*
G04 Created by KiCad (PCBNEW 10.0.5) date 2026-09-20 00:29:37*
%MOMM*%
%LPD*%
G01*
G04 APERTURE LIST*
%ADD10R,0.700000X0.700000*%
G04 APERTURE END LIST*
D10*
%TO.C,D20*%
X85915000Y-100550000D03*
X85915000Y-99450000D03*
X84085000Y-100550000D03*
X84085000Y-99450000D03*
%TD*%
%TO.C,D15*%
X80915000Y-100550000D03*
X80915000Y-99450000D03*
X79085000Y-100550000D03*
X79085000Y-99450000D03*
%TD*%
%TO.C,D17*%
X69085000Y-84450000D03*
X69085000Y-85550000D03*
X70915000Y-84450000D03*
X70915000Y-85550000D03*
%TD*%
%TO.C,D7*%
X79085000Y-84450000D03*
X79085000Y-85550000D03*
X80915000Y-84450000D03*
X80915000Y-85550000D03*
%TD*%
%TO.C,D16*%
X85915000Y-80550000D03*
X85915000Y-79450000D03*
X84085000Y-80550000D03*
X84085000Y-79450000D03*
%TD*%
%TO.C,D10*%
X75915000Y-100550000D03*
X75915000Y-99450000D03*
X74085000Y-100550000D03*
X74085000Y-99450000D03*
%TD*%
%TO.C,D1*%
X70915000Y-80550000D03*
X70915000Y-79450000D03*
X69085000Y-80550000D03*
X69085000Y-79450000D03*
%TD*%
%TO.C,D8*%
X75915000Y-90550000D03*
X75915000Y-89450000D03*
X74085000Y-90550000D03*
X74085000Y-89450000D03*
%TD*%
%TO.C,D18*%
X85915000Y-90550000D03*
X85915000Y-89450000D03*
X84085000Y-90550000D03*
X84085000Y-89450000D03*
%TD*%
%TO.C,D2*%
X84085000Y-84450000D03*
X84085000Y-85550000D03*
X85915000Y-84450000D03*
X85915000Y-85550000D03*
%TD*%
%TO.C,D9*%
X79085000Y-94450000D03*
X79085000Y-95550000D03*
X80915000Y-94450000D03*
X80915000Y-95550000D03*
%TD*%
%TO.C,D12*%
X74085000Y-84450000D03*
X74085000Y-85550000D03*
X75915000Y-84450000D03*
X75915000Y-85550000D03*
%TD*%
%TO.C,D3*%
X70915000Y-90550000D03*
X70915000Y-89450000D03*
X69085000Y-90550000D03*
X69085000Y-89450000D03*
%TD*%
%TO.C,D11*%
X80915000Y-80550000D03*
X80915000Y-79450000D03*
X79085000Y-80550000D03*
X79085000Y-79450000D03*
%TD*%
%TO.C,D5*%
X70915000Y-100550000D03*
X70915000Y-99450000D03*
X69085000Y-100550000D03*
X69085000Y-99450000D03*
%TD*%
%TO.C,D19*%
X69085000Y-94450000D03*
X69085000Y-95550000D03*
X70915000Y-94450000D03*
X70915000Y-95550000D03*
%TD*%
%TO.C,D4*%
X84085000Y-94450000D03*
X84085000Y-95550000D03*
X85915000Y-94450000D03*
X85915000Y-95550000D03*
%TD*%
%TO.C,D13*%
X80915000Y-90550000D03*
X80915000Y-89450000D03*
X79085000Y-90550000D03*
X79085000Y-89450000D03*
%TD*%
%TO.C,D6*%
X75915000Y-80550000D03*
X75915000Y-79450000D03*
X74085000Y-80550000D03*
X74085000Y-79450000D03*
%TD*%
%TO.C,D14*%
X74085000Y-94450000D03*
X74085000Y-95550000D03*
X75915000Y-94450000D03*
X75915000Y-95550000D03*
%TD*%
M02*
